<?xml version="1.0" encoding="utf-8" standalone="no"?>
<!DOCTYPE svg PUBLIC "-//W3C//DTD SVG 1.1//EN"
  "http://www.w3.org/Graphics/SVG/1.1/DTD/svg11.dtd">
<svg xmlns:xlink="http://www.w3.org/1999/xlink" width="924.38pt" height="389.01pt" viewBox="0 0 924.38 389.01" xmlns="http://www.w3.org/2000/svg" version="1.1">
 <metadata>
  <rdf:RDF xmlns:dc="http://purl.org/dc/elements/1.1/" xmlns:cc="http://creativecommons.org/ns#" xmlns:rdf="http://www.w3.org/1999/02/22-rdf-syntax-ns#">
   <cc:Work>
    <dc:type rdf:resource="http://purl.org/dc/dcmitype/StillImage"/>
    <dc:date>2025-04-21T07:03:47.503223</dc:date>
    <dc:format>image/svg+xml</dc:format>
    <dc:creator>
     <cc:Agent>
      <dc:title>Matplotlib v3.10.1, https://matplotlib.org/</dc:title>
     </cc:Agent>
    </dc:creator>
   </cc:Work>
  </rdf:RDF>
 </metadata>
 <defs>
  <style type="text/css">*{stroke-linejoin: round; stroke-linecap: butt}</style>
 </defs>
 <g id="figure_1">
  <g id="patch_1">
   <path d="M 0 389.01 
L 924.38 389.01 
L 924.38 0 
L 0 0 
z
" style="fill: #ffffff"/>
  </g>
  <g id="axes_1">
   <g id="patch_2">
    <path d="M 24.38 158.4 
L 917.18 158.4 
L 917.18 7.2 
L 24.38 7.2 
z
" style="fill: #ffffff"/>
   </g>
   <g id="matplotlib.axis_1">
    <g id="xtick_1">
     <g id="line2d_1">
      <defs>
       <path id="m5557db689b" d="M 0 0 
L 0 3.5 
" style="stroke: #000000; stroke-width: 0.8"/>
      </defs>
      <g>
       <use xlink:href="#m5557db689b" x="64.961818" y="158.4" style="stroke: #000000; stroke-width: 0.8"/>
      </g>
     </g>
     <g id="text_1">
      <!-- 0.0 -->
      <g transform="translate(52.239318 177.5575) scale(0.16 -0.16)">
       <defs>
        <path id="DejaVuSans-30" d="M 2034 4250 
Q 1547 4250 1301 3770 
Q 1056 3291 1056 2328 
Q 1056 1369 1301 889 
Q 1547 409 2034 409 
Q 2525 409 2770 889 
Q 3016 1369 3016 2328 
Q 3016 3291 2770 3770 
Q 2525 4250 2034 4250 
z
M 2034 4750 
Q 2819 4750 3233 4129 
Q 3647 3509 3647 2328 
Q 3647 1150 3233 529 
Q 2819 -91 2034 -91 
Q 1250 -91 836 529 
Q 422 1150 422 2328 
Q 422 3509 836 4129 
Q 1250 4750 2034 4750 
z
" transform="scale(0.015625)"/>
        <path id="DejaVuSans-2e" d="M 684 794 
L 1344 794 
L 1344 0 
L 684 0 
L 684 794 
z
" transform="scale(0.015625)"/>
       </defs>
       <use xlink:href="#DejaVuSans-30"/>
       <use xlink:href="#DejaVuSans-2e" transform="translate(63.623047 0)"/>
       <use xlink:href="#DejaVuSans-30" transform="translate(95.410156 0)"/>
      </g>
     </g>
    </g>
    <g id="xtick_2">
     <g id="line2d_2">
      <g>
       <use xlink:href="#m5557db689b" x="172.608434" y="158.4" style="stroke: #000000; stroke-width: 0.8"/>
      </g>
     </g>
     <g id="text_2">
      <!-- 2.5 -->
      <g transform="translate(159.885934 177.5575) scale(0.16 -0.16)">
       <defs>
        <path id="DejaVuSans-32" d="M 1228 531 
L 3431 531 
L 3431 0 
L 469 0 
L 469 531 
Q 828 903 1448 1529 
Q 2069 2156 2228 2338 
Q 2531 2678 2651 2914 
Q 2772 3150 2772 3378 
Q 2772 3750 2511 3984 
Q 2250 4219 1831 4219 
Q 1534 4219 1204 4116 
Q 875 4013 500 3803 
L 500 4441 
Q 881 4594 1212 4672 
Q 1544 4750 1819 4750 
Q 2544 4750 2975 4387 
Q 3406 4025 3406 3419 
Q 3406 3131 3298 2873 
Q 3191 2616 2906 2266 
Q 2828 2175 2409 1742 
Q 1991 1309 1228 531 
z
" transform="scale(0.015625)"/>
        <path id="DejaVuSans-35" d="M 691 4666 
L 3169 4666 
L 3169 4134 
L 1269 4134 
L 1269 2991 
Q 1406 3038 1543 3061 
Q 1681 3084 1819 3084 
Q 2600 3084 3056 2656 
Q 3513 2228 3513 1497 
Q 3513 744 3044 326 
Q 2575 -91 1722 -91 
Q 1428 -91 1123 -41 
Q 819 9 494 109 
L 494 744 
Q 775 591 1075 516 
Q 1375 441 1709 441 
Q 2250 441 2565 725 
Q 2881 1009 2881 1497 
Q 2881 1984 2565 2268 
Q 2250 2553 1709 2553 
Q 1456 2553 1204 2497 
Q 953 2441 691 2322 
L 691 4666 
z
" transform="scale(0.015625)"/>
       </defs>
       <use xlink:href="#DejaVuSans-32"/>
       <use xlink:href="#DejaVuSans-2e" transform="translate(63.623047 0)"/>
       <use xlink:href="#DejaVuSans-35" transform="translate(95.410156 0)"/>
      </g>
     </g>
    </g>
    <g id="xtick_3">
     <g id="line2d_3">
      <g>
       <use xlink:href="#m5557db689b" x="280.25505" y="158.4" style="stroke: #000000; stroke-width: 0.8"/>
      </g>
     </g>
     <g id="text_3">
      <!-- 5.0 -->
      <g transform="translate(267.53255 177.5575) scale(0.16 -0.16)">
       <use xlink:href="#DejaVuSans-35"/>
       <use xlink:href="#DejaVuSans-2e" transform="translate(63.623047 0)"/>
       <use xlink:href="#DejaVuSans-30" transform="translate(95.410156 0)"/>
      </g>
     </g>
    </g>
    <g id="xtick_4">
     <g id="line2d_4">
      <g>
       <use xlink:href="#m5557db689b" x="387.901666" y="158.4" style="stroke: #000000; stroke-width: 0.8"/>
      </g>
     </g>
     <g id="text_4">
      <!-- 7.5 -->
      <g transform="translate(375.179166 177.5575) scale(0.16 -0.16)">
       <defs>
        <path id="DejaVuSans-37" d="M 525 4666 
L 3525 4666 
L 3525 4397 
L 1831 0 
L 1172 0 
L 2766 4134 
L 525 4134 
L 525 4666 
z
" transform="scale(0.015625)"/>
       </defs>
       <use xlink:href="#DejaVuSans-37"/>
       <use xlink:href="#DejaVuSans-2e" transform="translate(63.623047 0)"/>
       <use xlink:href="#DejaVuSans-35" transform="translate(95.410156 0)"/>
      </g>
     </g>
    </g>
    <g id="xtick_5">
     <g id="line2d_5">
      <g>
       <use xlink:href="#m5557db689b" x="495.548282" y="158.4" style="stroke: #000000; stroke-width: 0.8"/>
      </g>
     </g>
     <g id="text_5">
      <!-- 10.0 -->
      <g transform="translate(477.735782 177.5575) scale(0.16 -0.16)">
       <defs>
        <path id="DejaVuSans-31" d="M 794 531 
L 1825 531 
L 1825 4091 
L 703 3866 
L 703 4441 
L 1819 4666 
L 2450 4666 
L 2450 531 
L 3481 531 
L 3481 0 
L 794 0 
L 794 531 
z
" transform="scale(0.015625)"/>
       </defs>
       <use xlink:href="#DejaVuSans-31"/>
       <use xlink:href="#DejaVuSans-30" transform="translate(63.623047 0)"/>
       <use xlink:href="#DejaVuSans-2e" transform="translate(127.246094 0)"/>
       <use xlink:href="#DejaVuSans-30" transform="translate(159.033203 0)"/>
      </g>
     </g>
    </g>
    <g id="xtick_6">
     <g id="line2d_6">
      <g>
       <use xlink:href="#m5557db689b" x="603.194898" y="158.4" style="stroke: #000000; stroke-width: 0.8"/>
      </g>
     </g>
     <g id="text_6">
      <!-- 12.5 -->
      <g transform="translate(585.382398 177.5575) scale(0.16 -0.16)">
       <use xlink:href="#DejaVuSans-31"/>
       <use xlink:href="#DejaVuSans-32" transform="translate(63.623047 0)"/>
       <use xlink:href="#DejaVuSans-2e" transform="translate(127.246094 0)"/>
       <use xlink:href="#DejaVuSans-35" transform="translate(159.033203 0)"/>
      </g>
     </g>
    </g>
    <g id="xtick_7">
     <g id="line2d_7">
      <g>
       <use xlink:href="#m5557db689b" x="710.841515" y="158.4" style="stroke: #000000; stroke-width: 0.8"/>
      </g>
     </g>
     <g id="text_7">
      <!-- 15.0 -->
      <g transform="translate(693.029015 177.5575) scale(0.16 -0.16)">
       <use xlink:href="#DejaVuSans-31"/>
       <use xlink:href="#DejaVuSans-35" transform="translate(63.623047 0)"/>
       <use xlink:href="#DejaVuSans-2e" transform="translate(127.246094 0)"/>
       <use xlink:href="#DejaVuSans-30" transform="translate(159.033203 0)"/>
      </g>
     </g>
    </g>
    <g id="xtick_8">
     <g id="line2d_8">
      <g>
       <use xlink:href="#m5557db689b" x="818.488131" y="158.4" style="stroke: #000000; stroke-width: 0.8"/>
      </g>
     </g>
     <g id="text_8">
      <!-- 17.5 -->
      <g transform="translate(800.675631 177.5575) scale(0.16 -0.16)">
       <use xlink:href="#DejaVuSans-31"/>
       <use xlink:href="#DejaVuSans-37" transform="translate(63.623047 0)"/>
       <use xlink:href="#DejaVuSans-2e" transform="translate(127.246094 0)"/>
       <use xlink:href="#DejaVuSans-35" transform="translate(159.033203 0)"/>
      </g>
     </g>
    </g>
   </g>
   <g id="matplotlib.axis_2">
    <g id="ytick_1">
     <g id="line2d_9">
      <defs>
       <path id="m45202d3800" d="M 0 0 
L -3.5 0 
" style="stroke: #000000; stroke-width: 0.8"/>
      </defs>
      <g>
       <use xlink:href="#m45202d3800" x="24.38" y="150.458158" style="stroke: #000000; stroke-width: 0.8"/>
      </g>
     </g>
     <g id="text_9">
      <!-- 1 -->
      <g transform="translate(7.2 156.536908) scale(0.16 -0.16)">
       <use xlink:href="#DejaVuSans-31"/>
      </g>
     </g>
    </g>
    <g id="ytick_2">
     <g id="line2d_10">
      <g>
       <use xlink:href="#m45202d3800" x="24.38" y="82.570494" style="stroke: #000000; stroke-width: 0.8"/>
      </g>
     </g>
     <g id="text_10">
      <!-- 2 -->
      <g transform="translate(7.2 88.649244) scale(0.16 -0.16)">
       <use xlink:href="#DejaVuSans-32"/>
      </g>
     </g>
    </g>
    <g id="ytick_3">
     <g id="line2d_11">
      <g>
       <use xlink:href="#m45202d3800" x="24.38" y="14.682831" style="stroke: #000000; stroke-width: 0.8"/>
      </g>
     </g>
     <g id="text_11">
      <!-- 3 -->
      <g transform="translate(7.2 20.761581) scale(0.16 -0.16)">
       <defs>
        <path id="DejaVuSans-33" d="M 2597 2516 
Q 3050 2419 3304 2112 
Q 3559 1806 3559 1356 
Q 3559 666 3084 287 
Q 2609 -91 1734 -91 
Q 1441 -91 1130 -33 
Q 819 25 488 141 
L 488 750 
Q 750 597 1062 519 
Q 1375 441 1716 441 
Q 2309 441 2620 675 
Q 2931 909 2931 1356 
Q 2931 1769 2642 2001 
Q 2353 2234 1838 2234 
L 1294 2234 
L 1294 2753 
L 1863 2753 
Q 2328 2753 2575 2939 
Q 2822 3125 2822 3475 
Q 2822 3834 2567 4026 
Q 2313 4219 1838 4219 
Q 1578 4219 1281 4162 
Q 984 4106 628 3988 
L 628 4550 
Q 988 4650 1302 4700 
Q 1616 4750 1894 4750 
Q 2613 4750 3031 4423 
Q 3450 4097 3450 3541 
Q 3450 3153 3228 2886 
Q 3006 2619 2597 2516 
z
" transform="scale(0.015625)"/>
       </defs>
       <use xlink:href="#DejaVuSans-33"/>
      </g>
     </g>
    </g>
   </g>
   <g id="line2d_12">
    <path d="M 64.961818 82.570494 
L 75.523653 99.050661 
L 82.023243 108.770292 
L 86.897936 115.690478 
L 90.96018 121.137226 
L 95.022424 126.235157 
L 99.084668 130.933947 
L 102.334464 134.385957 
L 105.584259 137.548953 
L 108.834054 140.404984 
L 112.083849 142.935308 
L 115.333645 145.12187 
L 117.770991 146.526242 
L 120.208337 147.722028 
L 122.645684 148.711736 
L 125.08303 149.490246 
L 127.520377 150.051062 
L 129.957723 150.391799 
L 132.39507 150.512936 
L 134.832416 150.416719 
L 137.269762 150.106225 
L 139.707109 149.584554 
L 142.144455 148.854141 
L 144.581802 147.916154 
L 147.019148 146.769935 
L 149.456495 145.412455 
L 151.893841 143.839152 
L 155.143636 141.424601 
L 158.393432 138.681052 
L 161.643227 135.634866 
L 164.893022 132.304698 
L 168.142817 128.70419 
L 172.205061 123.840686 
L 176.267305 118.597028 
L 180.32955 113.010177 
L 185.204242 105.944826 
L 190.891384 97.336223 
L 198.203423 85.855311 
L 214.4524 60.125595 
L 219.327093 52.908589 
L 224.201785 46.111325 
L 228.264029 40.794563 
L 232.326274 35.846624 
L 235.576069 32.187529 
L 238.825864 28.821123 
L 242.075659 25.769687 
L 245.325455 23.051957 
L 248.57525 20.681819 
L 251.012596 19.137259 
L 253.449943 17.793373 
L 255.887289 16.648252 
L 258.324636 15.701685 
L 260.761982 14.971691 
L 263.199328 14.46089 
L 265.636675 14.16867 
L 268.074021 14.093905 
L 270.511368 14.235 
L 272.948714 14.589944 
L 275.386061 15.156386 
L 277.823407 15.931714 
L 280.260753 16.91315 
L 282.6981 18.097856 
L 285.135446 19.483042 
L 287.572793 21.066085 
L 290.822588 23.480607 
L 294.072383 26.238429 
L 297.322179 29.33702 
L 300.571974 32.768396 
L 303.821769 36.490282 
L 307.884013 41.509424 
L 311.946257 46.890456 
L 316.82095 53.755642 
L 322.508092 62.217653 
L 329.007682 72.312758 
L 351.756249 108.05157 
L 356.630942 115.128405 
L 361.505635 121.787224 
L 365.567879 126.956197 
L 369.630123 131.731933 
L 372.879918 135.239662 
L 376.129713 138.446868 
L 379.379509 141.336348 
L 382.629304 143.890693 
L 385.879099 146.093348 
L 388.316446 147.507012 
L 390.753792 148.712105 
L 393.191138 149.705811 
L 395.628485 150.485982 
L 398.065831 151.05083 
L 400.503178 151.398605 
L 402.940524 151.527273 
L 405.377871 151.437443 
L 407.815217 151.136103 
L 410.252563 150.614816 
L 412.68991 149.869123 
L 415.127256 148.899127 
L 417.564603 147.708169 
L 420.001949 146.301862 
L 422.439296 144.687453 
L 425.689091 142.226009 
L 428.938886 139.432825 
L 432.188681 136.334533 
L 435.438477 132.958116 
L 438.688272 129.310837 
L 442.750516 124.372568 
L 446.81276 119.015933 
L 450.875004 113.251943 
L 454.937248 107.109952 
L 459.811941 99.331488 
L 472.811122 78.279724 
L 481.748059 64.278543 
L 487.435201 55.75814 
L 492.309894 48.866416 
L 496.372138 43.48932 
L 500.434382 38.484994 
L 504.496626 33.861605 
L 508.55887 29.590299 
L 511.808665 26.473268 
L 515.05846 23.677321 
L 518.308256 21.215866 
L 521.558051 19.101391 
L 523.995397 17.750069 
L 526.432744 16.604503 
L 528.87009 15.668389 
L 531.307437 14.944872 
L 533.744783 14.436534 
L 536.182129 14.145395 
L 538.619476 14.072949 
L 541.056822 14.22021 
L 543.494169 14.587789 
L 545.931515 15.175998 
L 548.368862 15.983949 
L 550.806208 17.006783 
L 553.243554 18.2401 
L 555.680901 19.679017 
L 558.930696 21.907899 
L 562.180491 24.478255 
L 565.430287 27.374503 
L 568.680082 30.580065 
L 571.929877 34.077667 
L 575.992121 38.8334 
L 580.054365 43.983053 
L 584.116609 49.492104 
L 588.991302 56.503237 
L 594.678444 65.102385 
L 602.802932 77.872506 
L 617.427011 100.94332 
L 623.114152 109.489579 
L 627.988845 116.457916 
L 632.051089 121.936536 
L 636.113333 127.054644 
L 640.175577 131.760609 
L 643.425373 135.200469 
L 646.675168 138.334591 
L 649.924963 141.153366 
L 653.174758 143.652874 
L 656.424554 145.847725 
L 658.8619 147.276612 
L 661.299247 148.490146 
L 663.736593 149.473007 
L 666.173939 150.217761 
L 668.611286 150.722923 
L 671.048632 150.991293 
L 673.485979 151.028578 
L 675.923325 150.84229 
L 678.360672 150.440878 
L 680.798018 149.833068 
L 683.235364 149.027361 
L 685.672711 148.031657 
L 688.110057 146.845494 
L 690.547404 145.455921 
L 692.98475 143.865836 
L 696.234545 141.440532 
L 699.484341 138.675506 
L 702.734136 135.582053 
L 705.983931 132.174354 
L 709.233726 128.471703 
L 713.295971 123.47166 
L 718.170663 117.03797 
L 723.045356 110.21664 
L 727.920049 103.038169 
L 733.607191 94.269505 
L 740.91923 82.522164 
L 752.293514 64.147658 
L 757.168206 56.787369 
L 762.042899 49.751227 
L 766.917592 43.127595 
L 770.979836 37.999056 
L 774.229631 34.194829 
L 777.479427 30.685676 
L 780.729222 27.494387 
L 783.979017 24.637564 
L 787.228812 22.123762 
L 790.478608 19.951663 
L 793.728403 18.108371 
L 796.978198 16.580626 
L 799.415545 15.678667 
L 801.852891 14.993871 
L 804.290238 14.525997 
L 806.727584 14.274325 
L 809.16493 14.237695 
L 811.602277 14.414552 
L 814.039623 14.803009 
L 816.47697 15.400922 
L 818.914316 16.205979 
L 821.351663 17.215796 
L 823.789009 18.428025 
L 826.226355 19.840467 
L 828.663702 21.451198 
L 831.913497 23.904713 
L 835.163292 26.705943 
L 838.413088 29.85489 
L 841.662883 33.324939 
L 844.912678 37.076798 
L 848.974922 42.127424 
L 853.037166 47.535047 
L 857.911859 54.427056 
L 863.599001 62.913501 
L 870.91104 74.309858 
L 876.598182 83.365624 
L 876.598182 83.365624 
" clip-path="url(#p5d37f2b3e1)" style="fill: none; stroke: #1f77b4; stroke-width: 1.5; stroke-linecap: square"/>
   </g>
   <g id="line2d_13">
    <path d="M 64.961818 150.458158 
L 67.399165 150.349426 
L 69.836511 150.023502 
L 72.273857 149.477672 
L 74.711204 148.716297 
L 77.14855 147.746116 
L 79.585897 146.571853 
L 82.023243 145.196672 
L 84.46059 143.622807 
L 87.710385 141.218986 
L 90.96018 138.473844 
L 94.209975 135.404312 
L 97.459771 132.033674 
L 100.709566 128.379643 
L 104.77181 123.45079 
L 108.834054 118.162035 
L 113.708747 111.403721 
L 118.58344 104.27413 
L 125.08303 94.346794 
L 148.644046 57.848948 
L 154.331188 49.725464 
L 159.20588 43.205822 
L 163.268124 38.151835 
L 167.330369 33.492572 
L 170.580164 30.078331 
L 173.829959 26.963811 
L 177.079754 24.16617 
L 180.32955 21.70005 
L 182.766896 20.078375 
L 185.204242 18.673708 
L 187.641589 17.483812 
L 190.078935 16.502743 
L 192.516282 15.725593 
L 194.953628 15.148762 
L 197.390975 14.770166 
L 199.828321 14.589367 
L 202.265667 14.607635 
L 204.703014 14.827952 
L 207.14036 15.254935 
L 209.577707 15.89471 
L 212.015053 16.754707 
L 214.4524 17.843405 
L 216.889746 19.169999 
L 219.327093 20.740079 
L 222.576888 23.155966 
L 225.826683 25.910131 
L 229.076478 28.98384 
L 232.326274 32.358382 
L 235.576069 36.014759 
L 239.638313 40.951546 
L 243.700557 46.257218 
L 248.57525 53.048267 
L 253.449943 60.221323 
L 259.949533 70.203771 
L 270.511368 86.885378 
L 280.260753 102.179373 
L 285.947895 110.702907 
L 290.822588 117.613567 
L 294.884832 123.025494 
L 298.947076 128.079717 
L 303.00932 132.736838 
L 306.259115 136.145454 
L 309.508911 139.246923 
L 312.758706 142.020782 
L 316.008501 144.451789 
L 319.258296 146.530218 
L 321.695643 147.854367 
L 324.132989 148.975958 
L 326.570336 149.893998 
L 329.007682 150.607051 
L 331.445029 151.11254 
L 333.882375 151.405949 
L 336.319722 151.479925 
L 338.757068 151.323178 
L 341.194414 150.921818 
L 343.631761 150.293022 
L 346.069107 149.44799 
L 348.506454 148.390333 
L 350.9438 147.122875 
L 353.381147 145.648299 
L 355.818493 143.970168 
L 359.068288 141.42655 
L 362.318084 138.546981 
L 365.567879 135.350319 
L 368.817674 131.854862 
L 372.067469 128.077978 
L 376.129713 122.99267 
L 380.191957 117.552364 
L 385.06665 110.614506 
L 390.753792 102.063754 
L 398.87828 89.341187 
L 417.564603 59.89921 
L 423.251744 51.528765 
L 428.126437 44.788557 
L 432.188681 39.535098 
L 436.250925 34.626156 
L 439.500721 30.989816 
L 442.750516 27.656867 
L 446.000311 24.662258 
L 449.250106 22.033417 
L 451.687453 20.313585 
L 454.124799 18.815127 
L 456.562146 17.540002 
L 458.999492 16.48747 
L 461.436839 15.654262 
L 463.874185 15.034819 
L 466.311532 14.621578 
L 468.748878 14.405293 
L 471.186224 14.406535 
L 473.623571 14.645056 
L 476.060917 15.1071 
L 478.498264 15.780295 
L 480.93561 16.653944 
L 483.372957 17.719197 
L 486.622752 19.425886 
L 489.872547 21.449921 
L 493.122342 23.78568 
L 496.372138 26.4323 
L 499.621933 29.392544 
L 502.871728 32.671395 
L 506.121523 36.274419 
L 509.371319 40.198264 
L 513.433563 45.455001 
L 518.308256 52.190851 
L 523.182948 59.31086 
L 529.682539 69.249545 
L 539.431925 84.665415 
L 549.18131 99.971643 
L 554.868452 108.487753 
L 560.555594 116.611965 
L 565.430287 123.155606 
L 569.492531 128.223157 
L 572.742326 131.97954 
L 575.992121 135.443269 
L 579.241916 138.595456 
L 582.491712 141.423772 
L 585.741507 143.935129 
L 588.991302 146.130942 
L 591.428649 147.533452 
L 593.865995 148.710694 
L 596.303342 149.657594 
L 598.740688 150.374419 
L 601.178034 150.864583 
L 603.615381 151.133019 
L 606.052727 151.184985 
L 608.490074 151.025188 
L 610.92742 150.657121 
L 613.364767 150.082526 
L 615.802113 149.300917 
L 618.239459 148.309083 
L 620.676806 147.10052 
L 623.114152 145.669984 
L 625.551499 144.030477 
L 628.801294 141.54349 
L 632.051089 138.733894 
L 635.300885 135.617903 
L 638.55068 132.207324 
L 641.800475 128.512731 
L 645.862719 123.515197 
L 649.924963 118.13512 
L 654.799656 111.278025 
L 660.486798 102.847727 
L 666.986388 92.762202 
L 684.860262 64.694315 
L 691.359853 55.000687 
L 696.234545 48.124933 
L 700.29679 42.739614 
L 704.359034 37.723838 
L 708.421278 33.120813 
L 711.671073 29.757719 
L 714.920868 26.691183 
L 718.170663 23.931692 
L 721.420459 21.523212 
L 724.670254 19.473536 
L 727.1076 18.167968 
L 729.544947 17.058556 
L 731.982293 16.144071 
L 734.41964 15.424569 
L 736.856986 14.901683 
L 739.294333 14.578853 
L 741.731679 14.461455 
L 744.169025 14.55686 
L 746.606372 14.874394 
L 749.043718 15.425204 
L 751.481065 16.222025 
L 753.918411 17.278438 
L 756.355758 18.570974 
L 758.793104 20.072687 
L 762.042899 22.385254 
L 765.292695 25.03419 
L 768.54249 28.000475 
L 771.792285 31.265874 
L 775.04208 34.812607 
L 779.104324 39.614537 
L 783.166568 44.792283 
L 787.228812 50.306983 
L 792.103505 57.308046 
L 797.790647 65.887014 
L 805.915135 78.574245 
L 821.351663 102.841582 
L 827.038804 111.308819 
L 831.913497 118.163243 
L 835.975741 123.527717 
L 840.037985 128.53409 
L 844.100229 133.130112 
L 847.350025 136.488214 
L 850.59982 139.541358 
L 853.849615 142.270216 
L 857.09941 144.659098 
L 860.349206 146.69661 
L 862.786552 147.989289 
L 865.223898 149.077146 
L 867.661245 149.957433 
L 870.098591 150.626639 
L 872.535938 151.079712 
L 874.973284 151.309153 
L 876.598182 151.332618 
L 876.598182 151.332618 
" clip-path="url(#p5d37f2b3e1)" style="fill: none; stroke: #ff7f0e; stroke-width: 1.5; stroke-linecap: square"/>
   </g>
   <g id="patch_3">
    <path d="M 24.38 158.4 
L 24.38 7.2 
" style="fill: none; stroke: #000000; stroke-width: 0.8; stroke-linejoin: miter; stroke-linecap: square"/>
   </g>
   <g id="patch_4">
    <path d="M 917.18 158.4 
L 917.18 7.2 
" style="fill: none; stroke: #000000; stroke-width: 0.8; stroke-linejoin: miter; stroke-linecap: square"/>
   </g>
   <g id="patch_5">
    <path d="M 24.38 158.4 
L 917.18 158.4 
" style="fill: none; stroke: #000000; stroke-width: 0.8; stroke-linejoin: miter; stroke-linecap: square"/>
   </g>
   <g id="patch_6">
    <path d="M 24.38 7.2 
L 917.18 7.2 
" style="fill: none; stroke: #000000; stroke-width: 0.8; stroke-linejoin: miter; stroke-linecap: square"/>
   </g>
   <g id="legend_1">
    <g id="patch_7">
     <path d="M 35.58 66.97 
L 96.25 66.97 
Q 99.45 66.97 99.45 63.77 
L 99.45 18.4 
Q 99.45 15.2 96.25 15.2 
L 35.58 15.2 
Q 32.38 15.2 32.38 18.4 
L 32.38 63.77 
Q 32.38 66.97 35.58 66.97 
z
" style="fill: #ffffff; opacity: 0.8; stroke: #cccccc; stroke-linejoin: miter"/>
    </g>
    <g id="line2d_14">
     <path d="M 38.78 28.1575 
L 54.78 28.1575 
L 70.78 28.1575 
" style="fill: none; stroke: #1f77b4; stroke-width: 1.5; stroke-linecap: square"/>
    </g>
    <g id="text_12">
     <!-- x -->
     <g transform="translate(83.58 33.7575) scale(0.16 -0.16)">
      <defs>
       <path id="DejaVuSans-78" d="M 3513 3500 
L 2247 1797 
L 3578 0 
L 2900 0 
L 1881 1375 
L 863 0 
L 184 0 
L 1544 1831 
L 300 3500 
L 978 3500 
L 1906 2253 
L 2834 3500 
L 3513 3500 
z
" transform="scale(0.015625)"/>
      </defs>
      <use xlink:href="#DejaVuSans-78"/>
     </g>
    </g>
    <g id="line2d_15">
     <path d="M 38.78 51.6425 
L 54.78 51.6425 
L 70.78 51.6425 
" style="fill: none; stroke: #ff7f0e; stroke-width: 1.5; stroke-linecap: square"/>
    </g>
    <g id="text_13">
     <!-- y -->
     <g transform="translate(83.58 57.2425) scale(0.16 -0.16)">
      <defs>
       <path id="DejaVuSans-79" d="M 2059 -325 
Q 1816 -950 1584 -1140 
Q 1353 -1331 966 -1331 
L 506 -1331 
L 506 -850 
L 844 -850 
Q 1081 -850 1212 -737 
Q 1344 -625 1503 -206 
L 1606 56 
L 191 3500 
L 800 3500 
L 1894 763 
L 2988 3500 
L 3597 3500 
L 2059 -325 
z
" transform="scale(0.015625)"/>
      </defs>
      <use xlink:href="#DejaVuSans-79"/>
     </g>
    </g>
   </g>
  </g>
  <g id="axes_2">
   <g id="patch_8">
    <path d="M 24.38 339.84 
L 917.18 339.84 
L 917.18 188.64 
L 24.38 188.64 
z
" style="fill: #ffffff"/>
   </g>
   <g id="matplotlib.axis_3">
    <g id="xtick_9">
     <g id="line2d_16">
      <g>
       <use xlink:href="#m5557db689b" x="64.961818" y="339.84" style="stroke: #000000; stroke-width: 0.8"/>
      </g>
     </g>
     <g id="text_14">
      <!-- 0.0 -->
      <g transform="translate(52.239318 358.9975) scale(0.16 -0.16)">
       <use xlink:href="#DejaVuSans-30"/>
       <use xlink:href="#DejaVuSans-2e" transform="translate(63.623047 0)"/>
       <use xlink:href="#DejaVuSans-30" transform="translate(95.410156 0)"/>
      </g>
     </g>
    </g>
    <g id="xtick_10">
     <g id="line2d_17">
      <g>
       <use xlink:href="#m5557db689b" x="172.608434" y="339.84" style="stroke: #000000; stroke-width: 0.8"/>
      </g>
     </g>
     <g id="text_15">
      <!-- 2.5 -->
      <g transform="translate(159.885934 358.9975) scale(0.16 -0.16)">
       <use xlink:href="#DejaVuSans-32"/>
       <use xlink:href="#DejaVuSans-2e" transform="translate(63.623047 0)"/>
       <use xlink:href="#DejaVuSans-35" transform="translate(95.410156 0)"/>
      </g>
     </g>
    </g>
    <g id="xtick_11">
     <g id="line2d_18">
      <g>
       <use xlink:href="#m5557db689b" x="280.25505" y="339.84" style="stroke: #000000; stroke-width: 0.8"/>
      </g>
     </g>
     <g id="text_16">
      <!-- 5.0 -->
      <g transform="translate(267.53255 358.9975) scale(0.16 -0.16)">
       <use xlink:href="#DejaVuSans-35"/>
       <use xlink:href="#DejaVuSans-2e" transform="translate(63.623047 0)"/>
       <use xlink:href="#DejaVuSans-30" transform="translate(95.410156 0)"/>
      </g>
     </g>
    </g>
    <g id="xtick_12">
     <g id="line2d_19">
      <g>
       <use xlink:href="#m5557db689b" x="387.901666" y="339.84" style="stroke: #000000; stroke-width: 0.8"/>
      </g>
     </g>
     <g id="text_17">
      <!-- 7.5 -->
      <g transform="translate(375.179166 358.9975) scale(0.16 -0.16)">
       <use xlink:href="#DejaVuSans-37"/>
       <use xlink:href="#DejaVuSans-2e" transform="translate(63.623047 0)"/>
       <use xlink:href="#DejaVuSans-35" transform="translate(95.410156 0)"/>
      </g>
     </g>
    </g>
    <g id="xtick_13">
     <g id="line2d_20">
      <g>
       <use xlink:href="#m5557db689b" x="495.548282" y="339.84" style="stroke: #000000; stroke-width: 0.8"/>
      </g>
     </g>
     <g id="text_18">
      <!-- 10.0 -->
      <g transform="translate(477.735782 358.9975) scale(0.16 -0.16)">
       <use xlink:href="#DejaVuSans-31"/>
       <use xlink:href="#DejaVuSans-30" transform="translate(63.623047 0)"/>
       <use xlink:href="#DejaVuSans-2e" transform="translate(127.246094 0)"/>
       <use xlink:href="#DejaVuSans-30" transform="translate(159.033203 0)"/>
      </g>
     </g>
    </g>
    <g id="xtick_14">
     <g id="line2d_21">
      <g>
       <use xlink:href="#m5557db689b" x="603.194898" y="339.84" style="stroke: #000000; stroke-width: 0.8"/>
      </g>
     </g>
     <g id="text_19">
      <!-- 12.5 -->
      <g transform="translate(585.382398 358.9975) scale(0.16 -0.16)">
       <use xlink:href="#DejaVuSans-31"/>
       <use xlink:href="#DejaVuSans-32" transform="translate(63.623047 0)"/>
       <use xlink:href="#DejaVuSans-2e" transform="translate(127.246094 0)"/>
       <use xlink:href="#DejaVuSans-35" transform="translate(159.033203 0)"/>
      </g>
     </g>
    </g>
    <g id="xtick_15">
     <g id="line2d_22">
      <g>
       <use xlink:href="#m5557db689b" x="710.841515" y="339.84" style="stroke: #000000; stroke-width: 0.8"/>
      </g>
     </g>
     <g id="text_20">
      <!-- 15.0 -->
      <g transform="translate(693.029015 358.9975) scale(0.16 -0.16)">
       <use xlink:href="#DejaVuSans-31"/>
       <use xlink:href="#DejaVuSans-35" transform="translate(63.623047 0)"/>
       <use xlink:href="#DejaVuSans-2e" transform="translate(127.246094 0)"/>
       <use xlink:href="#DejaVuSans-30" transform="translate(159.033203 0)"/>
      </g>
     </g>
    </g>
    <g id="xtick_16">
     <g id="line2d_23">
      <g>
       <use xlink:href="#m5557db689b" x="818.488131" y="339.84" style="stroke: #000000; stroke-width: 0.8"/>
      </g>
     </g>
     <g id="text_21">
      <!-- 17.5 -->
      <g transform="translate(800.675631 358.9975) scale(0.16 -0.16)">
       <use xlink:href="#DejaVuSans-31"/>
       <use xlink:href="#DejaVuSans-37" transform="translate(63.623047 0)"/>
       <use xlink:href="#DejaVuSans-2e" transform="translate(127.246094 0)"/>
       <use xlink:href="#DejaVuSans-35" transform="translate(159.033203 0)"/>
      </g>
     </g>
    </g>
    <g id="text_22">
     <!-- time -->
     <g transform="translate(452.70625 378.4825) scale(0.16 -0.16)">
      <defs>
       <path id="DejaVuSans-74" d="M 1172 4494 
L 1172 3500 
L 2356 3500 
L 2356 3053 
L 1172 3053 
L 1172 1153 
Q 1172 725 1289 603 
Q 1406 481 1766 481 
L 2356 481 
L 2356 0 
L 1766 0 
Q 1100 0 847 248 
Q 594 497 594 1153 
L 594 3053 
L 172 3053 
L 172 3500 
L 594 3500 
L 594 4494 
L 1172 4494 
z
" transform="scale(0.015625)"/>
       <path id="DejaVuSans-69" d="M 603 3500 
L 1178 3500 
L 1178 0 
L 603 0 
L 603 3500 
z
M 603 4863 
L 1178 4863 
L 1178 4134 
L 603 4134 
L 603 4863 
z
" transform="scale(0.015625)"/>
       <path id="DejaVuSans-6d" d="M 3328 2828 
Q 3544 3216 3844 3400 
Q 4144 3584 4550 3584 
Q 5097 3584 5394 3201 
Q 5691 2819 5691 2113 
L 5691 0 
L 5113 0 
L 5113 2094 
Q 5113 2597 4934 2840 
Q 4756 3084 4391 3084 
Q 3944 3084 3684 2787 
Q 3425 2491 3425 1978 
L 3425 0 
L 2847 0 
L 2847 2094 
Q 2847 2600 2669 2842 
Q 2491 3084 2119 3084 
Q 1678 3084 1418 2786 
Q 1159 2488 1159 1978 
L 1159 0 
L 581 0 
L 581 3500 
L 1159 3500 
L 1159 2956 
Q 1356 3278 1631 3431 
Q 1906 3584 2284 3584 
Q 2666 3584 2933 3390 
Q 3200 3197 3328 2828 
z
" transform="scale(0.015625)"/>
       <path id="DejaVuSans-65" d="M 3597 1894 
L 3597 1613 
L 953 1613 
Q 991 1019 1311 708 
Q 1631 397 2203 397 
Q 2534 397 2845 478 
Q 3156 559 3463 722 
L 3463 178 
Q 3153 47 2828 -22 
Q 2503 -91 2169 -91 
Q 1331 -91 842 396 
Q 353 884 353 1716 
Q 353 2575 817 3079 
Q 1281 3584 2069 3584 
Q 2775 3584 3186 3129 
Q 3597 2675 3597 1894 
z
M 3022 2063 
Q 3016 2534 2758 2815 
Q 2500 3097 2075 3097 
Q 1594 3097 1305 2825 
Q 1016 2553 972 2059 
L 3022 2063 
z
" transform="scale(0.015625)"/>
      </defs>
      <use xlink:href="#DejaVuSans-74"/>
      <use xlink:href="#DejaVuSans-69" transform="translate(39.208984 0)"/>
      <use xlink:href="#DejaVuSans-6d" transform="translate(66.992188 0)"/>
      <use xlink:href="#DejaVuSans-65" transform="translate(164.404297 0)"/>
     </g>
    </g>
   </g>
   <g id="matplotlib.axis_4">
    <g id="ytick_4">
     <g id="line2d_24">
      <g>
       <use xlink:href="#m45202d3800" x="24.38" y="319.445478" style="stroke: #000000; stroke-width: 0.8"/>
      </g>
     </g>
     <g id="text_23">
      <!-- 1 -->
      <g transform="translate(7.2 325.524228) scale(0.16 -0.16)">
       <use xlink:href="#DejaVuSans-31"/>
      </g>
     </g>
    </g>
    <g id="ytick_5">
     <g id="line2d_25">
      <g>
       <use xlink:href="#m45202d3800" x="24.38" y="273.317182" style="stroke: #000000; stroke-width: 0.8"/>
      </g>
     </g>
     <g id="text_24">
      <!-- 2 -->
      <g transform="translate(7.2 279.395932) scale(0.16 -0.16)">
       <use xlink:href="#DejaVuSans-32"/>
      </g>
     </g>
    </g>
    <g id="ytick_6">
     <g id="line2d_26">
      <g>
       <use xlink:href="#m45202d3800" x="24.38" y="227.188885" style="stroke: #000000; stroke-width: 0.8"/>
      </g>
     </g>
     <g id="text_25">
      <!-- 3 -->
      <g transform="translate(7.2 233.267635) scale(0.16 -0.16)">
       <use xlink:href="#DejaVuSans-33"/>
      </g>
     </g>
    </g>
   </g>
   <g id="line2d_27">
    <path d="M 64.961818 273.317182 
L 69.024062 277.466668 
L 72.273857 280.502253 
L 75.523653 283.291797 
L 78.773448 285.83568 
L 82.023243 288.132182 
L 85.273038 290.177535 
L 88.522834 291.965921 
L 91.772629 293.489473 
L 95.022424 294.738179 
L 98.272219 295.69264 
L 100.709566 296.207163 
L 103.146912 296.54454 
L 105.584259 296.698935 
L 108.021605 296.662935 
L 110.458952 296.427544 
L 112.896298 295.98219 
L 115.333645 295.31472 
L 117.770991 294.411402 
L 120.208337 293.257057 
L 122.645684 291.843607 
L 125.08303 290.167964 
L 127.520377 288.227385 
L 129.957723 286.021702 
L 132.39507 283.553318 
L 134.832416 280.82721 
L 138.082211 276.804916 
L 141.332007 272.363179 
L 144.581802 267.535143 
L 148.644046 261.020522 
L 153.518739 252.650604 
L 167.330369 228.495351 
L 171.392613 222.001334 
L 174.642408 217.189135 
L 177.892203 212.782172 
L 181.141998 208.83153 
L 183.579345 206.191936 
L 186.016691 203.840888 
L 188.454038 201.788579 
L 190.891384 200.041756 
L 193.328731 198.603594 
L 195.766077 197.473694 
L 198.203423 196.648078 
L 200.64077 196.119199 
L 203.078116 195.87593 
L 205.515463 195.903575 
L 207.952809 196.183858 
L 210.390156 196.694932 
L 212.827502 197.411373 
L 216.077297 198.635456 
L 219.327093 200.09774 
L 222.576888 201.786726 
L 226.639132 204.191451 
L 230.701376 206.867485 
L 235.576069 210.359871 
L 241.26321 214.712679 
L 250.200147 221.878479 
L 272.136265 239.538597 
L 282.6981 247.757531 
L 306.259115 265.624788 
L 317.633399 274.064165 
L 325.757887 279.834466 
L 333.069926 284.7464 
L 338.757068 288.322082 
L 344.44421 291.625102 
L 349.318903 294.179998 
L 353.381147 296.075693 
L 357.443391 297.726118 
L 361.505635 299.096821 
L 364.75543 299.965991 
L 368.005225 300.611304 
L 371.25502 301.010056 
L 374.504816 301.136945 
L 376.942162 301.036843 
L 379.379509 300.749161 
L 381.816855 300.263285 
L 384.254201 299.573098 
L 386.691548 298.671741 
L 389.128894 297.551613 
L 391.566241 296.20437 
L 394.003587 294.620924 
L 396.440934 292.791446 
L 398.87828 290.705364 
L 401.315627 288.351363 
L 403.752973 285.717384 
L 407.002768 281.784031 
L 410.252563 277.404497 
L 413.502359 272.595881 
L 416.752154 267.394549 
L 420.814398 260.427537 
L 425.689091 251.591303 
L 435.438477 233.773796 
L 439.500721 226.795755 
L 443.562965 220.273583 
L 446.81276 215.461748 
L 450.062555 211.069761 
L 452.499902 208.081579 
L 454.937248 205.377409 
L 457.374595 202.975528 
L 459.811941 200.892895 
L 462.249287 199.145154 
L 464.686634 197.746631 
L 467.12398 196.710337 
L 468.748878 196.226542 
L 471.186224 195.754839 
L 473.623571 195.532321 
L 476.060917 195.554057 
L 478.498264 195.813121 
L 480.93561 196.300574 
L 483.372957 197.005462 
L 485.810303 197.914819 
L 489.060098 199.419177 
L 492.309894 201.219099 
L 495.559689 203.267147 
L 499.621933 206.093568 
L 506.121523 210.943445 
L 515.870909 218.42245 
L 559.743145 252.961526 
L 573.554775 263.443119 
L 588.178853 274.239161 
L 596.303342 280.008122 
L 602.802932 284.379598 
L 608.490074 287.959846 
L 613.364767 290.804602 
L 618.239459 293.40711 
L 623.114152 295.732473 
L 627.176396 297.418058 
L 631.23864 298.826913 
L 634.488436 299.725171 
L 637.738231 300.396133 
L 640.988026 300.818193 
L 644.237821 300.970171 
L 646.675168 300.894413 
L 649.112514 300.646453 
L 651.549861 300.217826 
L 653.987207 299.599826 
L 656.424554 298.773191 
L 658.8619 297.720589 
L 661.299247 296.430542 
L 663.736593 294.894253 
L 666.173939 293.105605 
L 668.611286 291.061161 
L 671.048632 288.760168 
L 673.485979 286.20455 
L 676.735774 282.409324 
L 679.985569 278.188263 
L 683.235364 273.568172 
L 686.48516 268.584377 
L 690.547404 261.932707 
L 695.422097 253.509548 
L 710.046175 227.87998 
L 713.295971 222.698791 
L 716.545766 217.932667 
L 719.795561 213.646792 
L 722.232907 210.735083 
L 724.670254 208.102085 
L 727.1076 205.761755 
L 729.544947 203.723985 
L 731.982293 201.994611 
L 734.41964 200.575404 
L 736.856986 199.464075 
L 739.294333 198.654274 
L 741.731679 198.135589 
L 744.169025 197.893547 
L 746.606372 197.909615 
L 749.043718 198.161198 
L 751.481065 198.621639 
L 754.73086 199.509172 
L 757.980655 200.681168 
L 761.23045 202.117422 
L 764.480246 203.792613 
L 768.54249 206.183036 
L 772.604734 208.854212 
L 777.479427 212.354755 
L 783.166568 216.724809 
L 818.101867 244.164893 
L 831.101048 253.905114 
L 862.786552 277.3679 
L 870.098591 282.395584 
L 876.598182 286.612784 
L 876.598182 286.612784 
" clip-path="url(#p781b58eac1)" style="fill: none; stroke: #2ca02c; stroke-width: 1.5; stroke-linecap: square"/>
   </g>
   <g id="line2d_28">
    <path d="M 64.961818 319.445478 
L 69.024062 319.342686 
L 73.086306 319.03464 
L 77.14855 318.515467 
L 81.210794 317.771682 
L 85.273038 316.789089 
L 89.335283 315.552848 
L 93.397527 314.047467 
L 97.459771 312.253988 
L 100.709566 310.593107 
L 103.959361 308.720836 
L 107.209156 306.630748 
L 110.458952 304.319135 
L 114.521196 301.116853 
L 118.58344 297.571137 
L 122.645684 293.692759 
L 127.520377 288.688436 
L 142.144455 273.369471 
L 145.394251 270.341706 
L 148.644046 267.614068 
L 151.081392 265.81545 
L 153.518739 264.265333 
L 155.956085 262.979135 
L 158.393432 261.967401 
L 160.830778 261.237063 
L 163.268124 260.791433 
L 165.705471 260.630205 
L 168.142817 260.749459 
L 170.580164 261.141655 
L 173.01751 261.795637 
L 175.454857 262.696633 
L 177.892203 263.826252 
L 180.32955 265.162486 
L 183.579345 267.218397 
L 186.82914 269.52819 
L 190.891384 272.708562 
L 195.766077 276.851386 
L 202.265667 282.706958 
L 212.827502 292.264521 
L 217.702195 296.374379 
L 222.576888 300.173232 
L 227.451581 303.704609 
L 232.326274 306.958625 
L 237.200966 309.92954 
L 242.075659 312.617058 
L 246.950352 315.026326 
L 251.825045 317.167936 
L 256.699738 319.057923 
L 261.574431 320.719148 
L 266.449124 322.169478 
L 272.136265 323.610433 
L 277.823407 324.799068 
L 283.510549 325.755033 
L 289.19769 326.498653 
L 295.697281 327.115467 
L 302.196871 327.51014 
L 308.696462 327.682483 
L 315.196052 327.633062 
L 321.695643 327.355107 
L 328.195233 326.831971 
L 333.882375 326.152499 
L 339.569517 325.241188 
L 344.44421 324.252456 
L 349.318903 323.043818 
L 354.193595 321.582702 
L 358.255839 320.145906 
L 362.318084 318.483954 
L 366.380328 316.569507 
L 370.442572 314.375613 
L 374.504816 311.875506 
L 377.754611 309.635717 
L 381.004406 307.16045 
L 385.06665 303.742704 
L 389.128894 299.99193 
L 393.191138 295.947193 
L 398.065831 290.776929 
L 404.565422 283.528379 
L 411.065012 276.329425 
L 415.127256 272.18591 
L 418.377052 269.199207 
L 420.814398 267.197334 
L 423.251744 265.429137 
L 425.689091 263.918194 
L 428.126437 262.685312 
L 430.563784 261.748519 
L 433.00113 261.118569 
L 435.438477 260.785942 
L 437.875823 260.746251 
L 440.31317 260.993456 
L 442.750516 261.518674 
L 445.187862 262.310185 
L 447.625209 263.353428 
L 450.062555 264.631002 
L 452.499902 266.122666 
L 455.749697 268.404278 
L 458.999492 270.96257 
L 463.061736 274.439679 
L 486.622752 295.198385 
L 492.309894 299.738903 
L 497.184586 303.352864 
L 502.059279 306.67558 
L 506.121523 309.206045 
L 510.996216 311.955475 
L 515.870909 314.427051 
L 520.745602 316.634126 
L 525.620295 318.588834 
L 530.494988 320.305128 
L 535.369681 321.798787 
L 541.056822 323.283584 
L 546.743964 324.52046 
L 552.431106 325.53523 
L 558.118247 326.340747 
L 564.617838 327.021046 
L 571.117428 327.459898 
L 577.617019 327.669684 
L 584.116609 327.659544 
L 590.6162 327.429794 
L 597.11579 326.961682 
L 602.802932 326.334415 
L 608.490074 325.479011 
L 613.364767 324.542631 
L 618.239459 323.396894 
L 623.114152 322.017588 
L 627.176396 320.661625 
L 631.23864 319.088514 
L 635.300885 317.272366 
L 639.363129 315.188996 
L 643.425373 312.815918 
L 647.487617 310.132352 
L 651.549861 307.119215 
L 654.799656 304.453892 
L 658.049451 301.526629 
L 662.111695 297.563334 
L 667.798837 291.637318 
L 680.798018 277.876904 
L 684.860262 273.919196 
L 688.110057 271.005562 
L 691.359853 268.440877 
L 693.797199 266.785899 
L 696.234545 265.382783 
L 698.671892 264.246486 
L 701.109238 263.387752 
L 703.546585 262.813117 
L 705.983931 262.524905 
L 708.421278 262.52123 
L 710.858624 262.795995 
L 713.295971 263.33889 
L 715.733317 264.135399 
L 718.170663 265.164288 
L 721.420459 266.836119 
L 724.670254 268.814502 
L 727.920049 271.06413 
L 731.982293 274.198551 
L 736.044537 277.61385 
L 741.731679 282.693511 
L 751.481065 291.461671 
L 756.355758 295.501436 
L 762.042899 299.915138 
L 766.917592 303.433754 
L 771.792285 306.690553 
L 776.666978 309.674975 
L 781.541671 312.382348 
L 786.416364 314.813882 
L 791.291057 316.976671 
L 796.165749 318.883916 
L 801.040442 320.562952 
L 805.915135 322.031737 
L 811.602277 323.49438 
L 817.289419 324.704478 
L 822.97656 325.681627 
L 828.663702 326.446468 
L 835.163292 327.088478 
L 841.662883 327.511068 
L 848.162473 327.713465 
L 854.662064 327.695282 
L 861.161654 327.450584 
L 867.661245 326.965007 
L 873.348387 326.324822 
L 876.598182 325.860711 
L 876.598182 325.860711 
" clip-path="url(#p781b58eac1)" style="fill: none; stroke: #d62728; stroke-width: 1.5; stroke-linecap: square"/>
   </g>
   <g id="line2d_29">
    <path d="M 64.961818 319.445478 
L 75.523653 308.27234 
L 80.398346 303.407909 
L 84.46059 299.624037 
L 88.522834 296.145891 
L 91.772629 293.61246 
L 95.022424 291.317606 
L 98.272219 289.27205 
L 101.522015 287.474038 
L 104.77181 285.913892 
L 108.021605 284.577115 
L 111.2714 283.444399 
L 115.333645 282.27826 
L 119.395889 281.335232 
L 124.270581 280.413269 
L 130.770172 279.416172 
L 153.518739 276.141042 
L 162.455676 274.484906 
L 172.205061 272.433869 
L 190.891384 268.444865 
L 198.203423 267.114609 
L 204.703014 266.141059 
L 211.202604 265.400479 
L 217.702195 264.908137 
L 223.389337 264.687415 
L 229.076478 264.678337 
L 234.76362 264.879548 
L 241.26321 265.34527 
L 248.57525 266.110027 
L 261.574431 267.766256 
L 270.511368 268.83426 
L 276.198509 269.302778 
L 281.073202 269.48107 
L 285.135446 269.421738 
L 289.19769 269.131669 
L 292.447486 268.706672 
L 295.697281 268.087655 
L 298.947076 267.253594 
L 302.196871 266.191672 
L 305.446667 264.871121 
L 308.696462 263.258893 
L 311.946257 261.334155 
L 315.196052 259.088299 
L 318.445848 256.524931 
L 321.695643 253.65988 
L 324.945438 250.521195 
L 329.007682 246.275549 
L 334.694824 239.927106 
L 342.819312 230.784486 
L 346.069107 227.410922 
L 349.318903 224.360885 
L 351.756249 222.3394 
L 354.193595 220.581315 
L 356.630942 219.113027 
L 359.068288 217.95595 
L 361.505635 217.124855 
L 363.942981 216.623447 
L 366.380328 216.449014 
L 368.817674 216.593436 
L 371.25502 217.043182 
L 373.692367 217.779316 
L 376.129713 218.777492 
L 378.56706 220.009364 
L 381.816855 221.963364 
L 385.06665 224.205621 
L 389.128894 227.306426 
L 394.816036 231.972387 
L 404.565422 239.998221 
L 409.440115 243.685437 
L 413.502359 246.505612 
L 417.564603 249.061572 
L 421.626847 251.332668 
L 425.689091 253.309533 
L 429.751335 254.994081 
L 433.813579 256.400351 
L 437.875823 257.554048 
L 441.938067 258.480016 
L 446.000311 259.203805 
L 450.875004 259.843178 
L 456.562146 260.334539 
L 463.061736 260.659964 
L 475.248468 260.99158 
L 485.810303 261.339451 
L 493.934791 261.833708 
L 502.059279 262.57298 
L 510.996216 263.624768 
L 519.933153 264.905188 
L 540.244373 267.941506 
L 545.931515 268.523305 
L 550.806208 268.814866 
L 554.868452 268.865519 
L 558.930696 268.684695 
L 562.180491 268.340136 
L 565.430287 267.792465 
L 568.680082 267.019965 
L 571.929877 266.002565 
L 575.179672 264.721842 
L 578.429468 263.161023 
L 581.679263 261.304979 
L 584.929058 259.138455 
L 588.178853 256.643819 
L 591.428649 253.841063 
L 594.678444 250.765325 
L 598.740688 246.605649 
L 604.42783 240.39381 
L 613.364767 230.583507 
L 616.614562 227.307448 
L 619.864357 224.352155 
L 622.301704 222.41461 
L 624.73905 220.751617 
L 627.176396 219.380299 
L 629.613743 218.313016 
L 632.051089 217.557428 
L 634.488436 217.11649 
L 636.925782 216.988458 
L 639.363129 217.166881 
L 641.800475 217.640609 
L 644.237821 218.393788 
L 646.675168 219.405861 
L 649.112514 220.65157 
L 652.36231 222.623485 
L 655.612105 224.873998 
L 659.674349 227.960641 
L 666.173939 233.239084 
L 675.110876 240.481681 
L 679.985569 244.140291 
L 684.047813 246.930205 
L 688.110057 249.440071 
L 692.172301 251.66484 
L 696.234545 253.604866 
L 700.29679 255.264139 
L 704.359034 256.652956 
L 708.421278 257.787916 
L 712.483522 258.691923 
L 717.358215 259.513419 
L 722.232907 260.096063 
L 727.920049 260.542462 
L 735.232088 260.871697 
L 765.292695 261.923501 
L 772.604734 262.562061 
L 779.916773 263.431803 
L 788.85371 264.740944 
L 809.977379 267.944103 
L 815.664521 268.545053 
L 820.539214 268.840442 
L 824.601458 268.88412 
L 828.663702 268.703983 
L 832.725946 268.261653 
L 835.975741 267.692533 
L 839.225536 266.910405 
L 842.475332 265.899219 
L 845.725127 264.62461 
L 848.974922 263.056822 
L 852.224717 261.177383 
L 855.474513 258.979099 
L 858.724308 256.466061 
L 861.974103 253.65364 
L 865.223898 250.568487 
L 869.286143 246.387384 
L 874.160835 241.028043 
L 876.598182 238.272174 
L 876.598182 238.272174 
" clip-path="url(#p781b58eac1)" style="fill: none; stroke: #9467bd; stroke-width: 1.5; stroke-linecap: square"/>
   </g>
   <g id="line2d_30">
    <path d="M 64.961818 319.445478 
L 68.211613 316.108491 
L 71.461409 313.110963 
L 73.898755 311.127808 
L 76.336102 309.399124 
L 78.773448 307.942782 
L 81.210794 306.770338 
L 83.648141 305.887032 
L 86.085487 305.291786 
L 88.522834 304.977205 
L 90.96018 304.929577 
L 93.397527 305.128874 
L 95.834873 305.55006 
L 98.272219 306.170785 
L 101.522015 307.259346 
L 104.77181 308.585298 
L 108.834054 310.483636 
L 115.333645 313.829132 
L 125.08303 318.874928 
L 130.770172 321.570618 
L 135.644865 323.660367 
L 140.519558 325.518169 
L 145.394251 327.135528 
L 150.268943 328.521302 
L 155.143636 329.691589 
L 160.018329 330.657793 
L 165.705471 331.544883 
L 171.392613 332.19551 
L 177.079754 332.635117 
L 183.579345 332.912334 
L 190.078935 332.959438 
L 197.390975 332.785517 
L 204.703014 332.405902 
L 212.015053 331.814163 
L 218.514644 331.07069 
L 225.826683 329.97237 
L 232.326274 328.778549 
L 238.825864 327.359101 
L 244.513006 325.904122 
L 250.200147 324.215351 
L 255.07484 322.54956 
L 259.949533 320.654959 
L 264.824226 318.510656 
L 268.88647 316.491562 
L 272.948714 314.224419 
L 277.010958 311.675128 
L 281.073202 308.810133 
L 284.322998 306.268629 
L 287.572793 303.487285 
L 290.822588 300.449673 
L 294.072383 297.139586 
L 297.322179 293.54104 
L 300.571974 289.642489 
L 303.821769 285.444598 
L 307.071564 280.94226 
L 311.133808 274.909568 
L 316.008501 267.182034 
L 329.820131 244.785471 
L 333.069926 240.157134 
L 335.507273 237.065651 
L 337.944619 234.395051 
L 339.569517 232.89422 
L 341.194414 231.645954 
L 342.819312 230.647948 
L 344.44421 229.908688 
L 346.069107 229.436641 
L 347.694005 229.237221 
L 349.318903 229.312788 
L 350.9438 229.662647 
L 352.568698 230.283052 
L 354.193595 231.167201 
L 355.818493 232.30524 
L 357.443391 233.68426 
L 359.068288 235.288749 
L 361.505635 238.08421 
L 363.942981 241.286091 
L 366.380328 244.826069 
L 369.630123 249.957097 
L 373.692367 256.817135 
L 386.691548 279.174464 
L 390.753792 285.6132 
L 394.816036 291.591834 
L 398.065831 296.006331 
L 401.315627 300.08247 
L 404.565422 303.827074 
L 407.815217 307.24429 
L 411.065012 310.343321 
L 414.314808 313.140621 
L 417.564603 315.65323 
L 420.814398 317.898768 
L 424.064193 319.895438 
L 427.313989 321.662025 
L 430.563784 323.217898 
L 434.626028 324.899785 
L 438.688272 326.321879 
L 442.750516 327.504047 
L 446.81276 328.465943 
L 450.875004 329.227409 
L 455.749697 329.904805 
L 460.62439 330.357373 
L 466.311532 330.648365 
L 471.998673 330.725807 
L 477.685815 330.587321 
L 484.185405 330.209138 
L 490.684996 329.625788 
L 497.184586 328.835064 
L 502.871728 327.945476 
L 508.55887 326.82481 
L 514.246011 325.462271 
L 519.933153 323.856315 
L 524.807846 322.260769 
L 529.682539 320.433737 
L 534.557232 318.340921 
L 538.619476 316.364804 
L 542.68172 314.149265 
L 546.743964 311.664495 
L 550.806208 308.900294 
L 554.056003 306.459183 
L 557.305799 303.775022 
L 560.555594 300.820093 
L 563.805389 297.574326 
L 567.055184 294.025299 
L 570.30498 290.168235 
L 573.554775 286.006005 
L 577.617019 280.390832 
L 581.679263 274.353178 
L 585.741507 267.927637 
L 598.740688 246.752214 
L 601.990483 242.147367 
L 604.42783 239.059514 
L 606.865176 236.346419 
L 609.302523 234.05973 
L 610.92742 232.796224 
L 612.552318 231.757402 
L 614.177215 230.956205 
L 615.802113 230.404939 
L 617.427011 230.115284 
L 619.051908 230.098286 
L 620.676806 230.364364 
L 622.301704 230.918432 
L 623.926601 231.74636 
L 625.551499 232.829749 
L 627.176396 234.150356 
L 628.801294 235.690099 
L 631.23864 238.371426 
L 633.675987 241.445691 
L 636.113333 244.853875 
L 639.363129 249.817046 
L 643.425373 256.503803 
L 658.8619 282.550616 
L 662.924144 288.707126 
L 666.986388 294.399099 
L 670.236183 298.590792 
L 673.485979 302.449002 
L 676.735774 305.972271 
L 679.985569 309.168027 
L 683.235364 312.052581 
L 686.48516 314.651093 
L 689.734955 316.984951 
L 692.98475 319.068145 
L 696.234545 320.918223 
L 699.484341 322.552363 
L 703.546585 324.316941 
L 707.608829 325.802352 
L 711.671073 327.0397 
L 715.733317 328.059179 
L 720.60801 329.02825 
L 725.482703 329.745803 
L 730.357396 330.25253 
L 736.044537 330.6179 
L 741.731679 330.768167 
L 747.418821 330.713188 
L 753.105962 330.442463 
L 759.605553 329.86963 
L 766.105143 329.059867 
L 772.604734 328.019999 
L 779.104324 326.736399 
L 784.791466 325.38717 
L 790.478608 323.790267 
L 795.353301 322.188833 
L 800.227993 320.356168 
L 805.102686 318.265676 
L 809.16493 316.287381 
L 813.227174 314.060523 
L 817.289419 311.553198 
L 821.351663 308.733316 
L 824.601458 306.230684 
L 827.851253 303.490746 
L 831.101048 300.496814 
L 834.350844 297.232118 
L 837.600639 293.679814 
L 840.850434 289.8324 
L 844.100229 285.687586 
L 847.350025 281.234204 
L 851.412269 275.252334 
L 855.474513 268.878551 
L 861.974103 258.20405 
L 867.661245 248.95817 
L 870.91104 244.018029 
L 873.348387 240.607602 
L 875.785733 237.541269 
L 876.598182 236.611005 
L 876.598182 236.611005 
" clip-path="url(#p781b58eac1)" style="fill: none; stroke: #8c564b; stroke-width: 1.5; stroke-linecap: square"/>
   </g>
   <g id="patch_9">
    <path d="M 24.38 339.84 
L 24.38 188.64 
" style="fill: none; stroke: #000000; stroke-width: 0.8; stroke-linejoin: miter; stroke-linecap: square"/>
   </g>
   <g id="patch_10">
    <path d="M 917.18 339.84 
L 917.18 188.64 
" style="fill: none; stroke: #000000; stroke-width: 0.8; stroke-linejoin: miter; stroke-linecap: square"/>
   </g>
   <g id="patch_11">
    <path d="M 24.38 339.84 
L 917.18 339.84 
" style="fill: none; stroke: #000000; stroke-width: 0.8; stroke-linejoin: miter; stroke-linecap: square"/>
   </g>
   <g id="patch_12">
    <path d="M 24.38 188.64 
L 917.18 188.64 
" style="fill: none; stroke: #000000; stroke-width: 0.8; stroke-linejoin: miter; stroke-linecap: square"/>
   </g>
   <g id="legend_2">
    <g id="patch_13">
     <path d="M 35.58 299.29 
L 111.58 299.29 
Q 114.78 299.29 114.78 296.09 
L 114.78 199.84 
Q 114.78 196.64 111.58 196.64 
L 35.58 196.64 
Q 32.38 196.64 32.38 199.84 
L 32.38 296.09 
Q 32.38 299.29 35.58 299.29 
z
" style="fill: #ffffff; opacity: 0.8; stroke: #cccccc; stroke-linejoin: miter"/>
    </g>
    <g id="line2d_31">
     <path d="M 38.78 209.5975 
L 54.78 209.5975 
L 70.78 209.5975 
" style="fill: none; stroke: #2ca02c; stroke-width: 1.5; stroke-linecap: square"/>
    </g>
    <g id="text_26">
     <!-- $x^\top$ -->
     <g transform="translate(83.58 215.1975) scale(0.16 -0.16)">
      <defs>
       <path id="DejaVuSans-Oblique-78" d="M 3841 3500 
L 2234 1784 
L 3219 0 
L 2559 0 
L 1819 1388 
L 531 0 
L -166 0 
L 1556 1844 
L 641 3500 
L 1300 3500 
L 1972 2234 
L 3144 3500 
L 3841 3500 
z
" transform="scale(0.015625)"/>
       <path id="DejaVuSans-22a4" d="M 5028 4481 
L 5028 4084 
L 2988 4084 
L 2988 0 
L 2588 0 
L 2588 4084 
L 547 4084 
L 547 4481 
L 5028 4481 
z
" transform="scale(0.015625)"/>
      </defs>
      <use xlink:href="#DejaVuSans-Oblique-78" transform="translate(0 0.707813)"/>
      <use xlink:href="#DejaVuSans-22a4" transform="translate(77.283529 38.989063) scale(0.7)"/>
     </g>
    </g>
    <g id="line2d_32">
     <path d="M 38.78 233.0825 
L 54.78 233.0825 
L 70.78 233.0825 
" style="fill: none; stroke: #d62728; stroke-width: 1.5; stroke-linecap: square"/>
    </g>
    <g id="text_27">
     <!-- $x^\bot$ -->
     <g transform="translate(83.58 238.6825) scale(0.16 -0.16)">
      <defs>
       <path id="DejaVuSans-22a5" d="M 547 0 
L 547 397 
L 2588 397 
L 2588 4481 
L 2988 4481 
L 2988 397 
L 5028 397 
L 5028 0 
L 547 0 
z
" transform="scale(0.015625)"/>
      </defs>
      <use xlink:href="#DejaVuSans-Oblique-78" transform="translate(0 0.707813)"/>
      <use xlink:href="#DejaVuSans-22a5" transform="translate(77.283529 38.989063) scale(0.7)"/>
     </g>
    </g>
    <g id="line2d_33">
     <path d="M 38.78 258.49 
L 54.78 258.49 
L 70.78 258.49 
" style="fill: none; stroke: #9467bd; stroke-width: 1.5; stroke-linecap: square"/>
    </g>
    <g id="text_28">
     <!-- $y^\top$ -->
     <g transform="translate(83.58 264.09) scale(0.16 -0.16)">
      <defs>
       <path id="DejaVuSans-Oblique-79" d="M 1588 -325 
Q 1188 -997 936 -1164 
Q 684 -1331 294 -1331 
L -159 -1331 
L -63 -850 
L 269 -850 
Q 509 -850 678 -719 
Q 847 -588 1056 -206 
L 1234 128 
L 459 3500 
L 1069 3500 
L 1650 819 
L 3256 3500 
L 3859 3500 
L 1588 -325 
z
" transform="scale(0.015625)"/>
      </defs>
      <use xlink:href="#DejaVuSans-Oblique-79" transform="translate(0 0.707813)"/>
      <use xlink:href="#DejaVuSans-22a4" transform="translate(77.283529 38.989063) scale(0.7)"/>
     </g>
    </g>
    <g id="line2d_34">
     <path d="M 38.78 283.93 
L 54.78 283.93 
L 70.78 283.93 
" style="fill: none; stroke: #8c564b; stroke-width: 1.5; stroke-linecap: square"/>
    </g>
    <g id="text_29">
     <!-- $y^\bot$ -->
     <g transform="translate(83.58 289.53) scale(0.16 -0.16)">
      <use xlink:href="#DejaVuSans-Oblique-79" transform="translate(0 0.707813)"/>
      <use xlink:href="#DejaVuSans-22a5" transform="translate(77.283529 38.989063) scale(0.7)"/>
     </g>
    </g>
   </g>
  </g>
 </g>
 <defs>
  <clipPath id="p5d37f2b3e1">
   <rect x="24.38" y="7.2" width="892.8" height="151.2"/>
  </clipPath>
  <clipPath id="p781b58eac1">
   <rect x="24.38" y="188.64" width="892.8" height="151.2"/>
  </clipPath>
 </defs>
</svg>
