<?xml version="1.0" encoding="utf-8" standalone="no"?>
<!DOCTYPE svg PUBLIC "-//W3C//DTD SVG 1.1//EN"
  "http://www.w3.org/Graphics/SVG/1.1/DTD/svg11.dtd">
<svg xmlns:xlink="http://www.w3.org/1999/xlink" width="883.845pt" height="389.01pt" viewBox="0 0 883.845 389.01" xmlns="http://www.w3.org/2000/svg" version="1.1">
 <metadata>
  <rdf:RDF xmlns:dc="http://purl.org/dc/elements/1.1/" xmlns:cc="http://creativecommons.org/ns#" xmlns:rdf="http://www.w3.org/1999/02/22-rdf-syntax-ns#">
   <cc:Work>
    <dc:type rdf:resource="http://purl.org/dc/dcmitype/StillImage"/>
    <dc:date>2025-06-30T15:24:48.799345</dc:date>
    <dc:format>image/svg+xml</dc:format>
    <dc:creator>
     <cc:Agent>
      <dc:title>Matplotlib v3.10.1, https://matplotlib.org/</dc:title>
     </cc:Agent>
    </dc:creator>
   </cc:Work>
  </rdf:RDF>
 </metadata>
 <defs>
  <style type="text/css">*{stroke-linejoin: round; stroke-linecap: butt}</style>
 </defs>
 <g id="figure_1">
  <g id="patch_1">
   <path d="M 0 389.01 
L 883.845 389.01 
L 883.845 0 
L 0 0 
z
" style="fill: #ffffff"/>
  </g>
  <g id="axes_1">
   <g id="patch_2">
    <path d="M 39.645 158.4 
L 876.645 158.4 
L 876.645 7.2 
L 39.645 7.2 
z
" style="fill: #ffffff"/>
   </g>
   <g id="matplotlib.axis_1">
    <g id="xtick_1">
     <g id="line2d_1">
      <defs>
       <path id="ma8193a16fd" d="M 0 0 
L 0 3.5 
" style="stroke: #000000; stroke-width: 0.8"/>
      </defs>
      <g>
       <use xlink:href="#ma8193a16fd" x="77.690455" y="158.4" style="stroke: #000000; stroke-width: 0.8"/>
      </g>
     </g>
     <g id="text_1">
      <!-- 0.0 -->
      <g transform="translate(64.967955 177.5575) scale(0.16 -0.16)">
       <defs>
        <path id="DejaVuSans-30" d="M 2034 4250 
Q 1547 4250 1301 3770 
Q 1056 3291 1056 2328 
Q 1056 1369 1301 889 
Q 1547 409 2034 409 
Q 2525 409 2770 889 
Q 3016 1369 3016 2328 
Q 3016 3291 2770 3770 
Q 2525 4250 2034 4250 
z
M 2034 4750 
Q 2819 4750 3233 4129 
Q 3647 3509 3647 2328 
Q 3647 1150 3233 529 
Q 2819 -91 2034 -91 
Q 1250 -91 836 529 
Q 422 1150 422 2328 
Q 422 3509 836 4129 
Q 1250 4750 2034 4750 
z
" transform="scale(0.015625)"/>
        <path id="DejaVuSans-2e" d="M 684 794 
L 1344 794 
L 1344 0 
L 684 0 
L 684 794 
z
" transform="scale(0.015625)"/>
       </defs>
       <use xlink:href="#DejaVuSans-30"/>
       <use xlink:href="#DejaVuSans-2e" transform="translate(63.623047 0)"/>
       <use xlink:href="#DejaVuSans-30" transform="translate(95.410156 0)"/>
      </g>
     </g>
    </g>
    <g id="xtick_2">
     <g id="line2d_2">
      <g>
       <use xlink:href="#ma8193a16fd" x="178.609157" y="158.4" style="stroke: #000000; stroke-width: 0.8"/>
      </g>
     </g>
     <g id="text_2">
      <!-- 2.5 -->
      <g transform="translate(165.886657 177.5575) scale(0.16 -0.16)">
       <defs>
        <path id="DejaVuSans-32" d="M 1228 531 
L 3431 531 
L 3431 0 
L 469 0 
L 469 531 
Q 828 903 1448 1529 
Q 2069 2156 2228 2338 
Q 2531 2678 2651 2914 
Q 2772 3150 2772 3378 
Q 2772 3750 2511 3984 
Q 2250 4219 1831 4219 
Q 1534 4219 1204 4116 
Q 875 4013 500 3803 
L 500 4441 
Q 881 4594 1212 4672 
Q 1544 4750 1819 4750 
Q 2544 4750 2975 4387 
Q 3406 4025 3406 3419 
Q 3406 3131 3298 2873 
Q 3191 2616 2906 2266 
Q 2828 2175 2409 1742 
Q 1991 1309 1228 531 
z
" transform="scale(0.015625)"/>
        <path id="DejaVuSans-35" d="M 691 4666 
L 3169 4666 
L 3169 4134 
L 1269 4134 
L 1269 2991 
Q 1406 3038 1543 3061 
Q 1681 3084 1819 3084 
Q 2600 3084 3056 2656 
Q 3513 2228 3513 1497 
Q 3513 744 3044 326 
Q 2575 -91 1722 -91 
Q 1428 -91 1123 -41 
Q 819 9 494 109 
L 494 744 
Q 775 591 1075 516 
Q 1375 441 1709 441 
Q 2250 441 2565 725 
Q 2881 1009 2881 1497 
Q 2881 1984 2565 2268 
Q 2250 2553 1709 2553 
Q 1456 2553 1204 2497 
Q 953 2441 691 2322 
L 691 4666 
z
" transform="scale(0.015625)"/>
       </defs>
       <use xlink:href="#DejaVuSans-32"/>
       <use xlink:href="#DejaVuSans-2e" transform="translate(63.623047 0)"/>
       <use xlink:href="#DejaVuSans-35" transform="translate(95.410156 0)"/>
      </g>
     </g>
    </g>
    <g id="xtick_3">
     <g id="line2d_3">
      <g>
       <use xlink:href="#ma8193a16fd" x="279.52786" y="158.4" style="stroke: #000000; stroke-width: 0.8"/>
      </g>
     </g>
     <g id="text_3">
      <!-- 5.0 -->
      <g transform="translate(266.80536 177.5575) scale(0.16 -0.16)">
       <use xlink:href="#DejaVuSans-35"/>
       <use xlink:href="#DejaVuSans-2e" transform="translate(63.623047 0)"/>
       <use xlink:href="#DejaVuSans-30" transform="translate(95.410156 0)"/>
      </g>
     </g>
    </g>
    <g id="xtick_4">
     <g id="line2d_4">
      <g>
       <use xlink:href="#ma8193a16fd" x="380.446562" y="158.4" style="stroke: #000000; stroke-width: 0.8"/>
      </g>
     </g>
     <g id="text_4">
      <!-- 7.5 -->
      <g transform="translate(367.724062 177.5575) scale(0.16 -0.16)">
       <defs>
        <path id="DejaVuSans-37" d="M 525 4666 
L 3525 4666 
L 3525 4397 
L 1831 0 
L 1172 0 
L 2766 4134 
L 525 4134 
L 525 4666 
z
" transform="scale(0.015625)"/>
       </defs>
       <use xlink:href="#DejaVuSans-37"/>
       <use xlink:href="#DejaVuSans-2e" transform="translate(63.623047 0)"/>
       <use xlink:href="#DejaVuSans-35" transform="translate(95.410156 0)"/>
      </g>
     </g>
    </g>
    <g id="xtick_5">
     <g id="line2d_5">
      <g>
       <use xlink:href="#ma8193a16fd" x="481.365265" y="158.4" style="stroke: #000000; stroke-width: 0.8"/>
      </g>
     </g>
     <g id="text_5">
      <!-- 10.0 -->
      <g transform="translate(463.552765 177.5575) scale(0.16 -0.16)">
       <defs>
        <path id="DejaVuSans-31" d="M 794 531 
L 1825 531 
L 1825 4091 
L 703 3866 
L 703 4441 
L 1819 4666 
L 2450 4666 
L 2450 531 
L 3481 531 
L 3481 0 
L 794 0 
L 794 531 
z
" transform="scale(0.015625)"/>
       </defs>
       <use xlink:href="#DejaVuSans-31"/>
       <use xlink:href="#DejaVuSans-30" transform="translate(63.623047 0)"/>
       <use xlink:href="#DejaVuSans-2e" transform="translate(127.246094 0)"/>
       <use xlink:href="#DejaVuSans-30" transform="translate(159.033203 0)"/>
      </g>
     </g>
    </g>
    <g id="xtick_6">
     <g id="line2d_6">
      <g>
       <use xlink:href="#ma8193a16fd" x="582.283967" y="158.4" style="stroke: #000000; stroke-width: 0.8"/>
      </g>
     </g>
     <g id="text_6">
      <!-- 12.5 -->
      <g transform="translate(564.471467 177.5575) scale(0.16 -0.16)">
       <use xlink:href="#DejaVuSans-31"/>
       <use xlink:href="#DejaVuSans-32" transform="translate(63.623047 0)"/>
       <use xlink:href="#DejaVuSans-2e" transform="translate(127.246094 0)"/>
       <use xlink:href="#DejaVuSans-35" transform="translate(159.033203 0)"/>
      </g>
     </g>
    </g>
    <g id="xtick_7">
     <g id="line2d_7">
      <g>
       <use xlink:href="#ma8193a16fd" x="683.20267" y="158.4" style="stroke: #000000; stroke-width: 0.8"/>
      </g>
     </g>
     <g id="text_7">
      <!-- 15.0 -->
      <g transform="translate(665.39017 177.5575) scale(0.16 -0.16)">
       <use xlink:href="#DejaVuSans-31"/>
       <use xlink:href="#DejaVuSans-35" transform="translate(63.623047 0)"/>
       <use xlink:href="#DejaVuSans-2e" transform="translate(127.246094 0)"/>
       <use xlink:href="#DejaVuSans-30" transform="translate(159.033203 0)"/>
      </g>
     </g>
    </g>
    <g id="xtick_8">
     <g id="line2d_8">
      <g>
       <use xlink:href="#ma8193a16fd" x="784.121372" y="158.4" style="stroke: #000000; stroke-width: 0.8"/>
      </g>
     </g>
     <g id="text_8">
      <!-- 17.5 -->
      <g transform="translate(766.308872 177.5575) scale(0.16 -0.16)">
       <use xlink:href="#DejaVuSans-31"/>
       <use xlink:href="#DejaVuSans-37" transform="translate(63.623047 0)"/>
       <use xlink:href="#DejaVuSans-2e" transform="translate(127.246094 0)"/>
       <use xlink:href="#DejaVuSans-35" transform="translate(159.033203 0)"/>
      </g>
     </g>
    </g>
   </g>
   <g id="matplotlib.axis_2">
    <g id="ytick_1">
     <g id="line2d_9">
      <defs>
       <path id="m3edd9daa64" d="M 0 0 
L -3.5 0 
" style="stroke: #000000; stroke-width: 0.8"/>
      </defs>
      <g>
       <use xlink:href="#m3edd9daa64" x="39.645" y="151.218305" style="stroke: #000000; stroke-width: 0.8"/>
      </g>
     </g>
     <g id="text_9">
      <!-- 1 -->
      <g transform="translate(22.465 157.297055) scale(0.16 -0.16)">
       <use xlink:href="#DejaVuSans-31"/>
      </g>
     </g>
    </g>
    <g id="ytick_2">
     <g id="line2d_10">
      <g>
       <use xlink:href="#m3edd9daa64" x="39.645" y="82.794297" style="stroke: #000000; stroke-width: 0.8"/>
      </g>
     </g>
     <g id="text_10">
      <!-- 2 -->
      <g transform="translate(22.465 88.873047) scale(0.16 -0.16)">
       <use xlink:href="#DejaVuSans-32"/>
      </g>
     </g>
    </g>
    <g id="ytick_3">
     <g id="line2d_11">
      <g>
       <use xlink:href="#m3edd9daa64" x="39.645" y="14.370288" style="stroke: #000000; stroke-width: 0.8"/>
      </g>
     </g>
     <g id="text_11">
      <!-- 3 -->
      <g transform="translate(22.465 20.449038) scale(0.16 -0.16)">
       <defs>
        <path id="DejaVuSans-33" d="M 2597 2516 
Q 3050 2419 3304 2112 
Q 3559 1806 3559 1356 
Q 3559 666 3084 287 
Q 2609 -91 1734 -91 
Q 1441 -91 1130 -33 
Q 819 25 488 141 
L 488 750 
Q 750 597 1062 519 
Q 1375 441 1716 441 
Q 2309 441 2620 675 
Q 2931 909 2931 1356 
Q 2931 1769 2642 2001 
Q 2353 2234 1838 2234 
L 1294 2234 
L 1294 2753 
L 1863 2753 
Q 2328 2753 2575 2939 
Q 2822 3125 2822 3475 
Q 2822 3834 2567 4026 
Q 2313 4219 1838 4219 
Q 1578 4219 1281 4162 
Q 984 4106 628 3988 
L 628 4550 
Q 988 4650 1302 4700 
Q 1616 4750 1894 4750 
Q 2613 4750 3031 4423 
Q 3450 4097 3450 3541 
Q 3450 3153 3228 2886 
Q 3006 2619 2597 2516 
z
" transform="scale(0.015625)"/>
       </defs>
       <use xlink:href="#DejaVuSans-33"/>
      </g>
     </g>
    </g>
   </g>
   <g id="line2d_12">
    <path d="M 77.690455 82.794297 
L 89.115516 101.958049 
L 92.92387 107.910814 
L 97.493894 114.641557 
L 104.348931 124.330989 
L 108.157285 129.276797 
L 111.965639 133.804742 
L 115.012322 137.102889 
L 118.059005 140.09582 
L 121.105688 142.767573 
L 124.152371 145.121389 
L 126.437383 146.660269 
L 128.722396 147.985585 
L 131.007408 149.086767 
L 133.29242 149.958677 
L 135.577432 150.600659 
L 137.862445 151.015604 
L 140.147457 151.209069 
L 142.432469 151.188498 
L 144.717482 150.962523 
L 147.002494 150.540005 
L 149.287506 149.909283 
L 151.572518 149.063446 
L 153.857531 148.006206 
L 156.142543 146.741294 
L 158.427555 145.272449 
L 161.474238 143.003481 
L 164.520921 140.389167 
L 167.567604 137.442593 
L 170.614287 134.182065 
L 173.660971 130.63418 
L 177.469324 125.822905 
L 181.277678 120.628329 
L 185.847703 113.954079 
L 190.417727 106.877735 
L 196.511093 96.977127 
L 206.412813 80.327793 
L 216.314533 63.766474 
L 221.646229 55.251342 
L 226.216253 48.347841 
L 230.024607 42.943909 
L 233.832961 37.896745 
L 237.641314 33.242092 
L 240.687998 29.836314 
L 243.734681 26.729298 
L 246.781364 23.936263 
L 249.828047 21.472473 
L 252.87473 19.352809 
L 255.159742 17.997483 
L 257.444754 16.849479 
L 259.729767 15.91432 
L 262.014779 15.197393 
L 264.299791 14.703181 
L 266.584803 14.429114 
L 268.869816 14.374352 
L 271.154828 14.538449 
L 273.43984 14.920379 
L 275.724853 15.518542 
L 278.009865 16.33078 
L 280.294877 17.35442 
L 282.579889 18.58632 
L 284.864902 20.022936 
L 287.911585 22.250145 
L 290.958268 24.824598 
L 294.004951 27.734943 
L 297.051634 30.962339 
L 300.098317 34.486176 
L 303.906671 39.27471 
L 307.715025 44.447572 
L 312.285049 51.095427 
L 316.855074 58.142849 
L 322.94844 68.009038 
L 331.326818 82.089335 
L 341.990209 99.980009 
L 348.083575 109.744595 
L 352.6536 116.677944 
L 357.223624 123.17734 
L 361.031978 128.198407 
L 364.840332 132.811446 
L 367.887015 136.186843 
L 370.933698 139.263489 
L 373.980381 142.023856 
L 377.027064 144.450842 
L 380.073747 146.528062 
L 382.358759 147.847002 
L 384.643771 148.954166 
L 386.928784 149.853762 
L 389.213796 150.54137 
L 391.498808 151.008915 
L 393.783821 151.252531 
L 396.068833 151.271527 
L 398.353845 151.067491 
L 400.638857 150.643528 
L 402.92387 150.003606 
L 405.208882 149.15201 
L 407.493894 148.092862 
L 409.778907 146.829702 
L 412.063919 145.363436 
L 415.110602 143.095527 
L 418.157285 140.486934 
L 421.203968 137.553019 
L 424.250651 134.307414 
L 427.297334 130.76464 
L 431.105688 125.947179 
L 434.914042 120.748818 
L 439.484066 114.072722 
L 444.054091 106.992968 
L 450.147457 97.089919 
L 459.287506 81.714518 
L 468.427555 66.411722 
L 474.520921 56.614364 
L 479.852617 48.476168 
L 484.422641 41.948888 
L 488.230995 36.905561 
L 492.039349 32.283028 
L 495.086032 28.921259 
L 498.132715 25.880802 
L 501.179398 23.174893 
L 504.226081 20.810261 
L 507.272764 18.793994 
L 509.557776 17.514974 
L 511.842789 16.439438 
L 514.127801 15.570599 
L 516.412813 14.911593 
L 518.697826 14.465485 
L 520.982838 14.235304 
L 523.26785 14.22413 
L 525.552862 14.43521 
L 527.837875 14.872126 
L 530.122887 15.538773 
L 532.407899 16.427279 
L 534.692912 17.529123 
L 536.977924 18.840115 
L 539.262936 20.355502 
L 542.309619 22.68472 
L 545.356302 25.353816 
L 548.402985 28.347315 
L 551.449668 31.648479 
L 554.496351 35.239567 
L 558.304705 40.107979 
L 562.113059 45.360793 
L 566.683084 52.093891 
L 571.253108 59.23077 
L 576.584803 67.958408 
L 584.963182 82.177386 
L 594.864902 98.947041 
L 600.196597 107.600752 
L 604.766622 114.667498 
L 609.336646 121.336645 
L 613.145 126.533742 
L 616.953354 131.350647 
L 620.000037 134.896565 
L 623.04672 138.141433 
L 626.093403 141.061979 
L 629.140086 143.66544 
L 632.186769 145.926453 
L 634.471781 147.377973 
L 636.756794 148.610775 
L 639.041806 149.620545 
L 641.326818 150.406072 
L 643.61183 150.968564 
L 645.896843 151.310983 
L 648.181855 151.437404 
L 650.466867 151.352394 
L 652.75188 151.060435 
L 655.036892 150.561937 
L 657.321904 149.846918 
L 659.606916 148.917456 
L 661.891929 147.777133 
L 664.176941 146.429614 
L 666.461953 144.878691 
L 669.508636 142.501533 
L 672.555319 139.78168 
L 675.602002 136.734703 
L 678.648686 133.382821 
L 681.695369 129.743879 
L 685.503722 124.821699 
L 689.312076 119.525772 
L 693.882101 112.739772 
L 699.213796 104.337028 
L 706.068833 93.014577 
L 726.633943 58.577257 
L 731.203968 51.498388 
L 735.773993 44.829121 
L 739.582346 39.618053 
L 743.3907 34.78607 
L 746.437383 31.225537 
L 749.484066 27.953957 
L 752.530749 24.988494 
L 755.577432 22.346361 
L 758.624115 20.044351 
L 760.909128 18.550742 
L 763.19414 17.26397 
L 765.479152 16.190261 
L 767.764165 15.335658 
L 770.049177 14.701246 
L 772.334189 14.285643 
L 774.619201 14.089387 
L 776.904214 14.112475 
L 779.189226 14.354354 
L 781.474238 14.813921 
L 783.759251 15.489556 
L 786.044263 16.379156 
L 788.329275 17.480196 
L 790.614287 18.789798 
L 792.8993 20.304822 
L 795.945983 22.638675 
L 798.992666 25.321586 
L 802.039349 28.334863 
L 805.086032 31.659113 
L 808.132715 35.273755 
L 811.941069 40.167098 
L 815.749423 45.435077 
L 820.319447 52.184732 
L 824.889472 59.321811 
L 830.982838 69.29299 
L 838.599545 82.173987 
L 838.599545 82.173987 
" clip-path="url(#pf574156304)" style="fill: none; stroke: #1f77b4; stroke-width: 1.5; stroke-linecap: square"/>
   </g>
   <g id="line2d_13">
    <path d="M 77.690455 151.218305 
L 79.975467 151.108714 
L 82.260479 150.774879 
L 84.545491 150.200225 
L 86.830504 149.414921 
L 89.877187 148.084292 
L 92.92387 146.457152 
L 95.970553 144.528663 
L 98.255565 142.856941 
L 100.540577 140.947914 
L 103.58726 138.045915 
L 106.633943 134.827017 
L 109.680627 131.320722 
L 113.48898 126.573387 
L 117.297334 121.456162 
L 121.105688 115.979148 
L 125.675713 108.995907 
L 131.007408 100.422092 
L 138.624115 87.69542 
L 152.334189 64.742598 
L 157.665885 56.219355 
L 162.235909 49.277855 
L 166.805934 42.772915 
L 170.614287 37.743566 
L 174.422641 33.107568 
L 177.469324 29.714074 
L 180.516007 26.622942 
L 183.56269 23.849617 
L 186.609373 21.408555 
L 189.656057 19.313572 
L 191.941069 17.977567 
L 194.226081 16.849478 
L 196.511093 15.935004 
L 198.796106 15.238282 
L 201.081118 14.754895 
L 203.36613 14.486817 
L 205.651143 14.43654 
L 207.936155 14.605558 
L 210.221167 14.994354 
L 212.506179 15.602392 
L 214.791192 16.428128 
L 217.076204 17.469034 
L 219.361216 18.721626 
L 221.646229 20.181512 
L 224.692912 22.44131 
L 227.739595 25.045655 
L 230.786278 27.977807 
L 233.832961 31.219205 
L 236.879644 34.750331 
L 240.687998 39.543832 
L 244.496351 44.722968 
L 249.066376 51.385153 
L 253.6364 58.45511 
L 259.729767 68.354776 
L 268.869816 83.734026 
L 278.771536 100.322144 
L 284.103231 108.884192 
L 288.673256 115.863141 
L 293.24328 122.421162 
L 297.051634 127.513627 
L 300.859988 132.209399 
L 303.906671 135.645063 
L 306.953354 138.771697 
L 310.000037 141.572531 
L 313.04672 144.035127 
L 316.093403 146.150294 
L 318.378415 147.504152 
L 320.663428 148.655238 
L 322.94844 149.599826 
L 325.233452 150.332991 
L 327.518464 150.848065 
L 329.803477 151.14342 
L 332.088489 151.219781 
L 334.373501 151.077145 
L 336.658514 150.716091 
L 338.943526 150.137586 
L 341.228538 149.34312 
L 343.51355 148.334954 
L 345.798563 147.115839 
L 348.083575 145.691591 
L 351.130258 143.481898 
L 354.176941 140.926328 
L 357.223624 138.037629 
L 360.270307 134.834672 
L 363.31699 131.333291 
L 367.125344 126.567378 
L 370.933698 121.413602 
L 375.503722 114.794331 
L 380.073747 107.788845 
L 385.405442 99.204311 
L 393.02215 86.446293 
L 404.447211 67.292131 
L 410.540577 57.507401 
L 415.110602 50.488582 
L 419.680627 43.882803 
L 423.48898 38.754762 
L 427.297334 34.018828 
L 430.344017 30.54109 
L 433.3907 27.361308 
L 436.437383 24.49956 
L 439.484066 21.974286 
L 442.530749 19.794255 
L 444.815762 18.390577 
L 447.100774 17.188897 
L 449.385786 16.192632 
L 451.670799 15.405355 
L 453.955811 14.830842 
L 456.240823 14.473092 
L 458.525835 14.336339 
L 460.810848 14.425029 
L 463.09586 14.738776 
L 465.380872 15.264377 
L 467.665885 16.002765 
L 469.950897 16.954912 
L 472.235909 18.120381 
L 474.520921 19.49733 
L 476.805934 21.082528 
L 479.852617 23.511967 
L 482.8993 26.288957 
L 485.945983 29.395391 
L 488.992666 32.809862 
L 492.80102 37.474032 
L 496.609373 42.529454 
L 500.417727 47.927494 
L 504.987752 54.805451 
L 510.319447 63.281348 
L 517.174484 74.672291 
L 534.692912 104.077361 
L 540.024607 112.481742 
L 544.594631 119.291376 
L 548.402985 124.612982 
L 552.211339 129.557017 
L 556.019693 134.079369 
L 559.066376 137.37067 
L 562.113059 140.364794 
L 565.159742 143.058869 
L 568.206425 145.403523 
L 570.491437 146.914593 
L 572.77645 148.207331 
L 575.061462 149.280313 
L 577.346474 150.134407 
L 579.631486 150.771657 
L 581.916499 151.19442 
L 584.201511 151.40474 
L 586.486523 151.40386 
L 588.771536 151.191874 
L 591.056548 150.767447 
L 593.34156 150.127595 
L 595.626572 149.267511 
L 597.911585 148.180852 
L 600.196597 146.873836 
L 602.481609 145.359679 
L 605.528292 143.033948 
L 608.574975 140.372078 
L 611.621658 137.386873 
L 614.668342 134.090419 
L 617.715025 130.496694 
L 621.523378 125.615325 
L 625.331732 120.351317 
L 629.901757 113.616553 
L 634.471781 106.482293 
L 640.565147 96.498924 
L 664.938612 55.959957 
L 669.508636 49.000135 
L 674.078661 42.476512 
L 677.887015 37.431004 
L 681.695369 32.787154 
L 684.742052 29.391276 
L 687.788735 26.29828 
L 690.835418 23.524509 
L 693.882101 21.085381 
L 696.928784 18.995689 
L 699.213796 17.666439 
L 701.498808 16.547938 
L 703.783821 15.645521 
L 706.068833 14.959494 
L 708.353845 14.490738 
L 710.638857 14.240025 
L 712.92387 14.207571 
L 715.208882 14.39305 
L 717.493894 14.795599 
L 719.778907 15.413834 
L 722.063919 16.245863 
L 724.348931 17.28929 
L 726.633943 18.541236 
L 728.918956 19.998343 
L 731.965639 22.253629 
L 735.012322 24.856519 
L 738.059005 27.795363 
L 741.105688 31.051841 
L 744.152371 34.600952 
L 747.960725 39.421229 
L 751.769079 44.630588 
L 756.339103 51.331414 
L 760.909128 58.440033 
L 767.002494 68.386906 
L 776.142543 83.831339 
L 786.044263 100.492378 
L 791.375958 109.085887 
L 795.945983 116.091414 
L 800.516007 122.67447 
L 804.324361 127.7773 
L 808.132715 132.48003 
L 811.179398 135.922277 
L 814.226081 139.057347 
L 817.272764 141.868215 
L 820.319447 144.34147 
L 823.36613 146.466424 
L 825.651143 147.82591 
L 827.936155 148.980087 
L 830.221167 149.924092 
L 832.506179 150.652452 
L 834.791192 151.163198 
L 837.076204 151.454919 
L 838.599545 151.527273 
L 838.599545 151.527273 
" clip-path="url(#pf574156304)" style="fill: none; stroke: #ff7f0e; stroke-width: 1.5; stroke-linecap: square"/>
   </g>
   <g id="patch_3">
    <path d="M 39.645 158.4 
L 39.645 7.2 
" style="fill: none; stroke: #000000; stroke-width: 0.8; stroke-linejoin: miter; stroke-linecap: square"/>
   </g>
   <g id="patch_4">
    <path d="M 876.645 158.4 
L 876.645 7.2 
" style="fill: none; stroke: #000000; stroke-width: 0.8; stroke-linejoin: miter; stroke-linecap: square"/>
   </g>
   <g id="patch_5">
    <path d="M 39.645 158.4 
L 876.645 158.4 
" style="fill: none; stroke: #000000; stroke-width: 0.8; stroke-linejoin: miter; stroke-linecap: square"/>
   </g>
   <g id="patch_6">
    <path d="M 39.645 7.2 
L 876.645 7.2 
" style="fill: none; stroke: #000000; stroke-width: 0.8; stroke-linejoin: miter; stroke-linecap: square"/>
   </g>
   <g id="legend_1">
    <g id="patch_7">
     <path d="M 50.845 67.0025 
L 111.325 67.0025 
Q 114.525 67.0025 114.525 63.8025 
L 114.525 18.4 
Q 114.525 15.2 111.325 15.2 
L 50.845 15.2 
Q 47.645 15.2 47.645 18.4 
L 47.645 63.8025 
Q 47.645 67.0025 50.845 67.0025 
z
" style="fill: #ffffff; opacity: 0.8; stroke: #cccccc; stroke-linejoin: miter"/>
    </g>
    <g id="line2d_14">
     <path d="M 54.045 28.1575 
L 70.045 28.1575 
L 86.045 28.1575 
" style="fill: none; stroke: #1f77b4; stroke-width: 1.5; stroke-linecap: square"/>
    </g>
    <g id="text_12">
     <!-- $x$ -->
     <g transform="translate(98.845 33.7575) scale(0.16 -0.16)">
      <defs>
       <path id="Cmmi10-78" d="M 500 184 
Q 613 97 819 97 
Q 1019 97 1172 289 
Q 1325 481 1381 709 
L 1672 1844 
Q 1741 2153 1741 2266 
Q 1741 2425 1652 2544 
Q 1563 2663 1403 2663 
Q 1200 2663 1022 2536 
Q 844 2409 722 2214 
Q 600 2019 550 1819 
Q 538 1778 500 1778 
L 422 1778 
Q 372 1778 372 1838 
L 372 1856 
Q 434 2094 584 2320 
Q 734 2547 951 2687 
Q 1169 2828 1416 2828 
Q 1650 2828 1839 2703 
Q 2028 2578 2106 2363 
Q 2216 2559 2386 2693 
Q 2556 2828 2759 2828 
Q 2897 2828 3040 2779 
Q 3184 2731 3275 2631 
Q 3366 2531 3366 2381 
Q 3366 2219 3261 2101 
Q 3156 1984 2994 1984 
Q 2891 1984 2822 2050 
Q 2753 2116 2753 2216 
Q 2753 2350 2845 2451 
Q 2938 2553 3066 2572 
Q 2950 2663 2747 2663 
Q 2541 2663 2389 2472 
Q 2238 2281 2175 2047 
L 1894 916 
Q 1825 659 1825 494 
Q 1825 331 1917 214 
Q 2009 97 2163 97 
Q 2463 97 2698 361 
Q 2934 625 3009 941 
Q 3022 978 3059 978 
L 3138 978 
Q 3163 978 3178 961 
Q 3194 944 3194 922 
Q 3194 916 3188 903 
Q 3097 522 2806 225 
Q 2516 -72 2150 -72 
Q 1916 -72 1727 54 
Q 1538 181 1459 397 
Q 1359 209 1182 68 
Q 1006 -72 806 -72 
Q 669 -72 523 -23 
Q 378 25 287 125 
Q 197 225 197 378 
Q 197 528 301 651 
Q 406 775 563 775 
Q 669 775 741 711 
Q 813 647 813 544 
Q 813 409 723 309 
Q 634 209 500 184 
z
" transform="scale(0.015625)"/>
      </defs>
      <use xlink:href="#Cmmi10-78" transform="translate(0 0.8125)"/>
     </g>
    </g>
    <g id="line2d_15">
     <path d="M 54.045 51.6425 
L 70.045 51.6425 
L 86.045 51.6425 
" style="fill: none; stroke: #ff7f0e; stroke-width: 1.5; stroke-linecap: square"/>
    </g>
    <g id="text_13">
     <!-- $y$ -->
     <g transform="translate(98.845 57.2425) scale(0.16 -0.16)">
      <defs>
       <path id="Cmmi10-79" d="M 538 -916 
Q 672 -1147 1006 -1147 
Q 1309 -1147 1531 -934 
Q 1753 -722 1889 -420 
Q 2025 -119 2100 197 
Q 1816 -72 1484 -72 
Q 1231 -72 1053 15 
Q 875 103 776 276 
Q 678 450 678 697 
Q 678 906 734 1126 
Q 791 1347 892 1617 
Q 994 1888 1069 2088 
Q 1153 2322 1153 2472 
Q 1153 2663 1013 2663 
Q 759 2663 595 2402 
Q 431 2141 353 1819 
Q 341 1778 300 1778 
L 225 1778 
Q 172 1778 172 1838 
L 172 1856 
Q 275 2238 487 2533 
Q 700 2828 1025 2828 
Q 1253 2828 1411 2678 
Q 1569 2528 1569 2297 
Q 1569 2178 1516 2047 
Q 1488 1969 1388 1706 
Q 1288 1444 1234 1272 
Q 1181 1100 1147 934 
Q 1113 769 1113 603 
Q 1113 391 1203 244 
Q 1294 97 1491 97 
Q 1888 97 2203 581 
L 2688 2553 
Q 2709 2638 2787 2698 
Q 2866 2759 2956 2759 
Q 3034 2759 3092 2709 
Q 3150 2659 3150 2578 
Q 3150 2541 3144 2528 
L 2509 -19 
Q 2425 -347 2200 -647 
Q 1975 -947 1658 -1130 
Q 1341 -1313 997 -1313 
Q 831 -1313 668 -1248 
Q 506 -1184 406 -1056 
Q 306 -928 306 -756 
Q 306 -581 409 -453 
Q 513 -325 684 -325 
Q 788 -325 858 -389 
Q 928 -453 928 -556 
Q 928 -703 818 -812 
Q 709 -922 563 -922 
Q 556 -919 550 -917 
Q 544 -916 538 -916 
z
" transform="scale(0.015625)"/>
      </defs>
      <use xlink:href="#Cmmi10-79" transform="translate(0 0.8125)"/>
     </g>
    </g>
   </g>
  </g>
  <g id="axes_2">
   <g id="patch_8">
    <path d="M 39.645 339.84 
L 876.645 339.84 
L 876.645 188.64 
L 39.645 188.64 
z
" style="fill: #ffffff"/>
   </g>
   <g id="matplotlib.axis_3">
    <g id="xtick_9">
     <g id="line2d_16">
      <g>
       <use xlink:href="#ma8193a16fd" x="77.690455" y="339.84" style="stroke: #000000; stroke-width: 0.8"/>
      </g>
     </g>
     <g id="text_14">
      <!-- 0.0 -->
      <g transform="translate(64.967955 358.9975) scale(0.16 -0.16)">
       <use xlink:href="#DejaVuSans-30"/>
       <use xlink:href="#DejaVuSans-2e" transform="translate(63.623047 0)"/>
       <use xlink:href="#DejaVuSans-30" transform="translate(95.410156 0)"/>
      </g>
     </g>
    </g>
    <g id="xtick_10">
     <g id="line2d_17">
      <g>
       <use xlink:href="#ma8193a16fd" x="178.609157" y="339.84" style="stroke: #000000; stroke-width: 0.8"/>
      </g>
     </g>
     <g id="text_15">
      <!-- 2.5 -->
      <g transform="translate(165.886657 358.9975) scale(0.16 -0.16)">
       <use xlink:href="#DejaVuSans-32"/>
       <use xlink:href="#DejaVuSans-2e" transform="translate(63.623047 0)"/>
       <use xlink:href="#DejaVuSans-35" transform="translate(95.410156 0)"/>
      </g>
     </g>
    </g>
    <g id="xtick_11">
     <g id="line2d_18">
      <g>
       <use xlink:href="#ma8193a16fd" x="279.52786" y="339.84" style="stroke: #000000; stroke-width: 0.8"/>
      </g>
     </g>
     <g id="text_16">
      <!-- 5.0 -->
      <g transform="translate(266.80536 358.9975) scale(0.16 -0.16)">
       <use xlink:href="#DejaVuSans-35"/>
       <use xlink:href="#DejaVuSans-2e" transform="translate(63.623047 0)"/>
       <use xlink:href="#DejaVuSans-30" transform="translate(95.410156 0)"/>
      </g>
     </g>
    </g>
    <g id="xtick_12">
     <g id="line2d_19">
      <g>
       <use xlink:href="#ma8193a16fd" x="380.446562" y="339.84" style="stroke: #000000; stroke-width: 0.8"/>
      </g>
     </g>
     <g id="text_17">
      <!-- 7.5 -->
      <g transform="translate(367.724062 358.9975) scale(0.16 -0.16)">
       <use xlink:href="#DejaVuSans-37"/>
       <use xlink:href="#DejaVuSans-2e" transform="translate(63.623047 0)"/>
       <use xlink:href="#DejaVuSans-35" transform="translate(95.410156 0)"/>
      </g>
     </g>
    </g>
    <g id="xtick_13">
     <g id="line2d_20">
      <g>
       <use xlink:href="#ma8193a16fd" x="481.365265" y="339.84" style="stroke: #000000; stroke-width: 0.8"/>
      </g>
     </g>
     <g id="text_18">
      <!-- 10.0 -->
      <g transform="translate(463.552765 358.9975) scale(0.16 -0.16)">
       <use xlink:href="#DejaVuSans-31"/>
       <use xlink:href="#DejaVuSans-30" transform="translate(63.623047 0)"/>
       <use xlink:href="#DejaVuSans-2e" transform="translate(127.246094 0)"/>
       <use xlink:href="#DejaVuSans-30" transform="translate(159.033203 0)"/>
      </g>
     </g>
    </g>
    <g id="xtick_14">
     <g id="line2d_21">
      <g>
       <use xlink:href="#ma8193a16fd" x="582.283967" y="339.84" style="stroke: #000000; stroke-width: 0.8"/>
      </g>
     </g>
     <g id="text_19">
      <!-- 12.5 -->
      <g transform="translate(564.471467 358.9975) scale(0.16 -0.16)">
       <use xlink:href="#DejaVuSans-31"/>
       <use xlink:href="#DejaVuSans-32" transform="translate(63.623047 0)"/>
       <use xlink:href="#DejaVuSans-2e" transform="translate(127.246094 0)"/>
       <use xlink:href="#DejaVuSans-35" transform="translate(159.033203 0)"/>
      </g>
     </g>
    </g>
    <g id="xtick_15">
     <g id="line2d_22">
      <g>
       <use xlink:href="#ma8193a16fd" x="683.20267" y="339.84" style="stroke: #000000; stroke-width: 0.8"/>
      </g>
     </g>
     <g id="text_20">
      <!-- 15.0 -->
      <g transform="translate(665.39017 358.9975) scale(0.16 -0.16)">
       <use xlink:href="#DejaVuSans-31"/>
       <use xlink:href="#DejaVuSans-35" transform="translate(63.623047 0)"/>
       <use xlink:href="#DejaVuSans-2e" transform="translate(127.246094 0)"/>
       <use xlink:href="#DejaVuSans-30" transform="translate(159.033203 0)"/>
      </g>
     </g>
    </g>
    <g id="xtick_16">
     <g id="line2d_23">
      <g>
       <use xlink:href="#ma8193a16fd" x="784.121372" y="339.84" style="stroke: #000000; stroke-width: 0.8"/>
      </g>
     </g>
     <g id="text_21">
      <!-- 17.5 -->
      <g transform="translate(766.308872 358.9975) scale(0.16 -0.16)">
       <use xlink:href="#DejaVuSans-31"/>
       <use xlink:href="#DejaVuSans-37" transform="translate(63.623047 0)"/>
       <use xlink:href="#DejaVuSans-2e" transform="translate(127.246094 0)"/>
       <use xlink:href="#DejaVuSans-35" transform="translate(159.033203 0)"/>
      </g>
     </g>
    </g>
    <g id="text_22">
     <!-- time -->
     <g transform="translate(440.07125 378.4825) scale(0.16 -0.16)">
      <defs>
       <path id="DejaVuSans-74" d="M 1172 4494 
L 1172 3500 
L 2356 3500 
L 2356 3053 
L 1172 3053 
L 1172 1153 
Q 1172 725 1289 603 
Q 1406 481 1766 481 
L 2356 481 
L 2356 0 
L 1766 0 
Q 1100 0 847 248 
Q 594 497 594 1153 
L 594 3053 
L 172 3053 
L 172 3500 
L 594 3500 
L 594 4494 
L 1172 4494 
z
" transform="scale(0.015625)"/>
       <path id="DejaVuSans-69" d="M 603 3500 
L 1178 3500 
L 1178 0 
L 603 0 
L 603 3500 
z
M 603 4863 
L 1178 4863 
L 1178 4134 
L 603 4134 
L 603 4863 
z
" transform="scale(0.015625)"/>
       <path id="DejaVuSans-6d" d="M 3328 2828 
Q 3544 3216 3844 3400 
Q 4144 3584 4550 3584 
Q 5097 3584 5394 3201 
Q 5691 2819 5691 2113 
L 5691 0 
L 5113 0 
L 5113 2094 
Q 5113 2597 4934 2840 
Q 4756 3084 4391 3084 
Q 3944 3084 3684 2787 
Q 3425 2491 3425 1978 
L 3425 0 
L 2847 0 
L 2847 2094 
Q 2847 2600 2669 2842 
Q 2491 3084 2119 3084 
Q 1678 3084 1418 2786 
Q 1159 2488 1159 1978 
L 1159 0 
L 581 0 
L 581 3500 
L 1159 3500 
L 1159 2956 
Q 1356 3278 1631 3431 
Q 1906 3584 2284 3584 
Q 2666 3584 2933 3390 
Q 3200 3197 3328 2828 
z
" transform="scale(0.015625)"/>
       <path id="DejaVuSans-65" d="M 3597 1894 
L 3597 1613 
L 953 1613 
Q 991 1019 1311 708 
Q 1631 397 2203 397 
Q 2534 397 2845 478 
Q 3156 559 3463 722 
L 3463 178 
Q 3153 47 2828 -22 
Q 2503 -91 2169 -91 
Q 1331 -91 842 396 
Q 353 884 353 1716 
Q 353 2575 817 3079 
Q 1281 3584 2069 3584 
Q 2775 3584 3186 3129 
Q 3597 2675 3597 1894 
z
M 3022 2063 
Q 3016 2534 2758 2815 
Q 2500 3097 2075 3097 
Q 1594 3097 1305 2825 
Q 1016 2553 972 2059 
L 3022 2063 
z
" transform="scale(0.015625)"/>
      </defs>
      <use xlink:href="#DejaVuSans-74"/>
      <use xlink:href="#DejaVuSans-69" transform="translate(39.208984 0)"/>
      <use xlink:href="#DejaVuSans-6d" transform="translate(66.992188 0)"/>
      <use xlink:href="#DejaVuSans-65" transform="translate(164.404297 0)"/>
     </g>
    </g>
   </g>
   <g id="matplotlib.axis_4">
    <g id="ytick_4">
     <g id="line2d_24">
      <g>
       <use xlink:href="#m3edd9daa64" x="39.645" y="324.565348" style="stroke: #000000; stroke-width: 0.8"/>
      </g>
     </g>
     <g id="text_23">
      <!-- 0.5 -->
      <g transform="translate(7.2 330.644098) scale(0.16 -0.16)">
       <use xlink:href="#DejaVuSans-30"/>
       <use xlink:href="#DejaVuSans-2e" transform="translate(63.623047 0)"/>
       <use xlink:href="#DejaVuSans-35" transform="translate(95.410156 0)"/>
      </g>
     </g>
    </g>
    <g id="ytick_5">
     <g id="line2d_25">
      <g>
       <use xlink:href="#m3edd9daa64" x="39.645" y="281.547808" style="stroke: #000000; stroke-width: 0.8"/>
      </g>
     </g>
     <g id="text_24">
      <!-- 1.0 -->
      <g transform="translate(7.2 287.626558) scale(0.16 -0.16)">
       <use xlink:href="#DejaVuSans-31"/>
       <use xlink:href="#DejaVuSans-2e" transform="translate(63.623047 0)"/>
       <use xlink:href="#DejaVuSans-30" transform="translate(95.410156 0)"/>
      </g>
     </g>
    </g>
    <g id="ytick_6">
     <g id="line2d_26">
      <g>
       <use xlink:href="#m3edd9daa64" x="39.645" y="238.530267" style="stroke: #000000; stroke-width: 0.8"/>
      </g>
     </g>
     <g id="text_25">
      <!-- 1.5 -->
      <g transform="translate(7.2 244.609017) scale(0.16 -0.16)">
       <use xlink:href="#DejaVuSans-31"/>
       <use xlink:href="#DejaVuSans-2e" transform="translate(63.623047 0)"/>
       <use xlink:href="#DejaVuSans-35" transform="translate(95.410156 0)"/>
      </g>
     </g>
    </g>
    <g id="ytick_7">
     <g id="line2d_27">
      <g>
       <use xlink:href="#m3edd9daa64" x="39.645" y="195.512727" style="stroke: #000000; stroke-width: 0.8"/>
      </g>
     </g>
     <g id="text_26">
      <!-- 2.0 -->
      <g transform="translate(7.2 201.591477) scale(0.16 -0.16)">
       <use xlink:href="#DejaVuSans-32"/>
       <use xlink:href="#DejaVuSans-2e" transform="translate(63.623047 0)"/>
       <use xlink:href="#DejaVuSans-30" transform="translate(95.410156 0)"/>
      </g>
     </g>
    </g>
   </g>
   <g id="line2d_28">
    <path d="M 77.690455 195.512727 
L 79.975467 209.201906 
L 82.260479 221.220113 
L 84.545491 231.811016 
L 86.830504 241.125775 
L 89.115516 249.300161 
L 91.400528 256.465826 
L 93.685541 262.750308 
L 95.970553 268.277029 
L 98.255565 273.165293 
L 100.540577 277.530291 
L 102.82559 281.423441 
L 105.110602 284.848602 
L 107.395614 287.850996 
L 109.680627 290.4701 
L 111.965639 292.739601 
L 114.250651 294.687397 
L 116.535663 296.335596 
L 118.820676 297.700521 
L 121.105688 298.792982 
L 123.3907 299.634953 
L 125.675713 300.236706 
L 127.960725 300.599513 
L 130.245737 300.72718 
L 132.530749 300.626051 
L 134.815762 300.305005 
L 137.100774 299.775458 
L 139.385786 299.051363 
L 142.432469 297.812136 
L 145.479152 296.302749 
L 148.525835 294.569155 
L 152.334189 292.116702 
L 156.904214 288.851042 
L 162.99758 284.177877 
L 171.375958 277.757992 
L 175.945983 274.552201 
L 180.516007 271.632563 
L 184.324361 269.439997 
L 188.132715 267.472227 
L 191.941069 265.720527 
L 196.511093 263.870959 
L 201.081118 262.246766 
L 206.412813 260.589525 
L 212.506179 258.930918 
L 219.361216 257.28725 
L 226.977924 255.688457 
L 233.832961 254.468557 
L 239.164656 253.72597 
L 245.258022 253.127376 
L 250.589717 252.809428 
L 255.921413 252.722403 
L 260.491437 252.895655 
L 264.299791 253.27329 
L 268.108145 253.859802 
L 272.67817 254.812944 
L 277.248194 256.02957 
L 281.818219 257.506988 
L 286.388243 259.249091 
L 290.958268 261.266363 
L 295.528292 263.564653 
L 300.098317 266.105934 
L 305.430012 269.323898 
L 311.523378 273.26354 
L 319.140086 278.464896 
L 342.75188 294.834193 
L 348.083575 298.096028 
L 352.6536 300.625084 
L 356.461953 302.502702 
L 360.270307 304.133705 
L 364.078661 305.477989 
L 367.125344 306.334833 
L 370.172027 306.986358 
L 373.21871 307.419934 
L 376.265393 307.62062 
L 379.312076 307.571161 
L 382.358759 307.251992 
L 385.405442 306.644372 
L 388.452125 305.764526 
L 391.498808 304.613604 
L 394.545491 303.192484 
L 397.592174 301.511846 
L 400.638857 299.592179 
L 404.447211 296.903545 
L 409.017236 293.362942 
L 416.633943 287.101756 
L 425.012322 280.264241 
L 429.582346 276.792204 
L 434.152371 273.61656 
L 438.722396 270.770921 
L 442.530749 268.646864 
L 446.339103 266.749027 
L 450.147457 265.0657 
L 454.717482 263.294038 
L 460.049177 261.484335 
L 465.380872 259.873683 
L 471.474238 258.291339 
L 481.375958 255.982813 
L 488.992666 254.394746 
L 494.324361 253.511575 
L 498.132715 253.092403 
L 502.70274 252.828253 
L 508.034435 252.77577 
L 513.36613 252.966294 
L 517.936155 253.332915 
L 522.506179 253.927153 
L 526.314533 254.643249 
L 530.122887 255.615333 
L 533.931241 256.828334 
L 538.501265 258.539599 
L 543.07129 260.509282 
L 547.641314 262.719139 
L 552.211339 265.154522 
L 557.543034 268.266297 
L 562.87473 271.657773 
L 568.968096 275.812377 
L 580.393157 283.946651 
L 590.294877 290.870607 
L 597.149914 295.383153 
L 601.719939 298.168498 
L 606.289963 300.694046 
L 610.098317 302.577332 
L 613.906671 304.230452 
L 617.715025 305.617847 
L 620.761708 306.507424 
L 623.808391 307.173191 
L 626.855074 307.591702 
L 629.901757 307.773198 
L 632.94844 307.697902 
L 635.995123 307.346229 
L 639.041806 306.707371 
L 642.088489 305.77929 
L 645.135172 304.568724 
L 648.181855 303.091183 
L 651.228538 301.37095 
L 655.036892 298.92732 
L 658.845246 296.193313 
L 663.41527 292.61497 
L 670.270307 286.907875 
L 677.887015 280.610807 
L 682.457039 277.106638 
L 687.027064 273.889296 
L 690.835418 271.457034 
L 694.643771 269.259946 
L 698.452125 267.291604 
L 703.02215 265.201548 
L 707.592174 263.350345 
L 712.92387 261.450308 
L 718.255565 259.800054 
L 724.348931 258.174814 
L 731.203968 256.608751 
L 739.582346 254.94393 
L 744.914042 254.082295 
L 751.007408 253.331917 
L 756.339103 252.877787 
L 760.909128 252.676425 
L 765.479152 252.711507 
L 769.287506 252.976989 
L 773.09586 253.445151 
L 777.665885 254.253618 
L 782.235909 255.324278 
L 786.805934 256.657481 
L 791.375958 258.261569 
L 795.184312 259.816785 
L 798.992666 261.579618 
L 803.56269 263.937977 
L 808.894386 266.974202 
L 814.226081 270.263603 
L 821.081118 274.782832 
L 828.697826 280.078876 
L 838.599545 287.150495 
L 838.599545 287.150495 
" clip-path="url(#p827090e000)" style="fill: none; stroke: #2ca02c; stroke-width: 1.5; stroke-linecap: square"/>
   </g>
   <g id="line2d_29">
    <path d="M 77.690455 281.547808 
L 79.975467 286.087082 
L 82.260479 290.016305 
L 84.545491 293.405597 
L 86.830504 296.31855 
L 89.115516 298.810922 
L 91.400528 300.930404 
L 93.685541 302.716624 
L 95.970553 304.201143 
L 98.255565 305.407458 
L 100.540577 306.351001 
L 102.82559 307.053604 
L 105.110602 307.545025 
L 107.395614 307.843219 
L 109.680627 307.964348 
L 112.72731 307.875017 
L 115.773993 307.52542 
L 118.820676 306.939081 
L 121.867359 306.134286 
L 125.675713 304.863791 
L 130.245737 303.059465 
L 146.240823 296.425959 
L 149.287506 295.481711 
L 152.334189 294.760347 
L 155.380872 294.290594 
L 158.427555 294.092411 
L 161.474238 294.177168 
L 164.520921 294.547645 
L 167.567604 295.198032 
L 170.614287 296.113931 
L 173.660971 297.272211 
L 177.469324 298.999902 
L 182.039349 301.374075 
L 188.132715 304.843645 
L 200.319447 311.85667 
L 205.651143 314.653212 
L 210.982838 317.202333 
L 216.314533 319.476534 
L 220.884558 321.198383 
L 225.454582 322.712976 
L 230.786278 324.234499 
L 236.117973 325.525236 
L 242.211339 326.76145 
L 248.304705 327.753258 
L 254.398071 328.52329 
L 262.014779 329.240246 
L 270.393157 329.806515 
L 278.771536 330.137311 
L 287.149914 330.251392 
L 297.051634 330.15927 
L 306.191683 329.848797 
L 314.570061 329.335555 
L 322.186769 328.655986 
L 329.803477 327.75527 
L 336.658514 326.708531 
L 342.75188 325.546578 
L 348.083575 324.319301 
L 353.41527 322.863594 
L 357.985295 321.410766 
L 362.555319 319.744617 
L 367.125344 317.852995 
L 371.695369 315.742787 
L 377.027064 313.028156 
L 383.12043 309.64935 
L 395.307162 302.727978 
L 399.115516 300.841523 
L 402.92387 299.226913 
L 405.970553 298.184835 
L 409.017236 297.408903 
L 411.302248 297.025386 
L 413.58726 296.817833 
L 415.872273 296.783263 
L 418.918956 296.998927 
L 421.965639 297.499881 
L 425.012322 298.26558 
L 428.059005 299.269688 
L 431.867359 300.810593 
L 435.675713 302.59763 
L 441.007408 305.358538 
L 459.287506 315.07111 
L 464.619201 317.520248 
L 469.950897 319.725618 
L 475.282592 321.664492 
L 479.852617 323.107025 
L 485.184312 324.543406 
L 490.516007 325.743483 
L 496.609373 326.891812 
L 503.46441 327.973118 
L 510.319447 328.809269 
L 517.174484 329.405801 
L 524.791192 329.837267 
L 535.454582 330.194086 
L 544.594631 330.258444 
L 553.734681 330.083047 
L 562.87473 329.684786 
L 571.253108 329.123606 
L 578.108145 328.459452 
L 584.963182 327.564362 
L 591.056548 326.554581 
L 597.149914 325.337105 
L 602.481609 324.070108 
L 607.813305 322.563896 
L 613.145 320.797921 
L 617.715025 319.059464 
L 622.285049 317.095653 
L 626.855074 314.888991 
L 632.186769 312.037827 
L 639.803477 307.650666 
L 647.420184 303.295872 
L 651.990209 300.943479 
L 655.036892 299.579652 
L 658.083575 298.435853 
L 661.130258 297.547249 
L 664.176941 296.939199 
L 666.461953 296.677369 
L 668.746966 296.586113 
L 671.031978 296.665997 
L 674.078661 297.034277 
L 677.125344 297.688792 
L 680.172027 298.605272 
L 683.21871 299.744487 
L 687.027064 301.420677 
L 691.597088 303.703372 
L 698.452125 307.428295 
L 707.592174 312.379557 
L 713.685541 315.421403 
L 719.017236 317.84647 
L 724.348931 320.020237 
L 729.680627 321.927784 
L 735.012322 323.567915 
L 740.344017 324.955531 
L 746.437383 326.288719 
L 752.530749 327.368938 
L 758.624115 328.2178 
L 765.479152 328.949902 
L 773.857531 329.620107 
L 782.235909 330.045415 
L 790.614287 330.242934 
L 800.516007 330.242418 
L 809.656057 330.024494 
L 818.034435 329.606952 
L 826.412813 328.958045 
L 834.029521 328.151828 
L 838.599545 327.548162 
L 838.599545 327.548162 
" clip-path="url(#p827090e000)" style="fill: none; stroke: #d62728; stroke-width: 1.5; stroke-linecap: square"/>
   </g>
   <g id="line2d_30">
    <path d="M 77.690455 281.547808 
L 85.307162 281.646042 
L 89.877187 281.911083 
L 94.447211 282.381059 
L 99.017236 283.056567 
L 105.110602 284.210495 
L 118.059005 286.780661 
L 121.867359 287.287335 
L 125.675713 287.596087 
L 129.484066 287.674259 
L 133.29242 287.490811 
L 137.100774 287.033494 
L 140.909128 286.308857 
L 144.717482 285.342241 
L 149.287506 283.927644 
L 153.857531 282.279423 
L 158.427555 280.390046 
L 163.759251 277.921679 
L 183.56269 268.407929 
L 189.656057 265.822837 
L 194.987752 263.819517 
L 199.557776 262.348702 
L 204.127801 261.142876 
L 207.936155 260.34691 
L 211.744509 259.744157 
L 215.552862 259.337604 
L 219.361216 259.130132 
L 223.16957 259.124507 
L 226.977924 259.323388 
L 230.786278 259.729319 
L 234.594631 260.344718 
L 239.164656 261.343097 
L 243.734681 262.593503 
L 248.304705 264.068831 
L 253.6364 266.033997 
L 259.729767 268.536254 
L 267.346474 271.919421 
L 281.818219 278.394179 
L 287.911585 280.828741 
L 292.481609 282.442288 
L 297.051634 283.83205 
L 300.859988 284.783354 
L 304.668342 285.521424 
L 308.476695 286.035646 
L 312.285049 286.327794 
L 316.093403 286.41204 
L 320.663428 286.276975 
L 325.995123 285.88428 
L 339.705197 284.756647 
L 344.275221 284.67335 
L 348.845246 284.83661 
L 353.41527 285.239653 
L 358.746966 285.94587 
L 372.457039 287.885728 
L 377.027064 288.268824 
L 380.835418 288.378479 
L 384.643771 288.23993 
L 388.452125 287.862072 
L 392.260479 287.252741 
L 396.068833 286.394606 
L 399.877187 285.290263 
L 403.685541 283.962246 
L 408.255565 282.134566 
L 414.348931 279.45727 
L 421.203968 276.199732 
L 437.199054 268.464647 
L 443.29242 265.867195 
L 448.624115 263.858106 
L 453.19414 262.372447 
L 457.764165 261.13488 
L 461.572518 260.31107 
L 465.380872 259.693293 
L 469.189226 259.287735 
L 472.99758 259.091353 
L 476.805934 259.10084 
L 480.614287 259.312624 
L 484.422641 259.722865 
L 488.230995 260.327461 
L 492.80102 261.303354 
L 497.371044 262.544711 
L 501.941069 264.025596 
L 507.272764 266.00113 
L 513.36613 268.512755 
L 521.744509 272.240923 
L 535.454582 278.386046 
L 540.786278 280.551819 
L 545.356302 282.20251 
L 549.926327 283.615481 
L 553.734681 284.58627 
L 557.543034 285.353664 
L 561.351388 285.906986 
L 565.159742 286.219867 
L 568.968096 286.318038 
L 573.53812 286.21505 
L 579.631486 285.82954 
L 594.103231 284.787057 
L 598.673256 284.718503 
L 603.24328 284.903939 
L 607.813305 285.327447 
L 613.145 286.047366 
L 626.093403 287.928533 
L 630.663428 288.295169 
L 634.471781 288.388982 
L 638.280135 288.246645 
L 642.088489 287.846466 
L 645.896843 287.185093 
L 649.705197 286.277513 
L 654.275221 284.911654 
L 658.845246 283.302731 
L 663.41527 281.456696 
L 668.746966 279.036818 
L 677.125344 274.908919 
L 687.788735 269.753098 
L 693.882101 267.014974 
L 699.213796 264.845431 
L 703.783821 263.211984 
L 708.353845 261.827308 
L 712.92387 260.706148 
L 716.732224 259.980725 
L 720.540577 259.45089 
L 724.348931 259.121281 
L 728.157285 258.995865 
L 731.965639 259.077938 
L 735.773993 259.370127 
L 739.582346 259.873956 
L 743.3907 260.578805 
L 747.960725 261.669317 
L 752.530749 263.003502 
L 757.100774 264.553806 
L 762.432469 266.594647 
L 768.525835 269.166842 
L 777.665885 273.303464 
L 788.329275 278.076015 
L 794.422641 280.551507 
L 799.754337 282.462202 
L 804.324361 283.854102 
L 808.132715 284.797449 
L 811.941069 285.521702 
L 815.749423 286.018541 
L 819.557776 286.291547 
L 823.36613 286.356209 
L 827.936155 286.198195 
L 833.26785 285.779167 
L 838.599545 285.244625 
L 838.599545 285.244625 
" clip-path="url(#p827090e000)" style="fill: none; stroke: #9467bd; stroke-width: 1.5; stroke-linecap: square"/>
   </g>
   <g id="line2d_31">
    <path d="M 77.690455 281.547808 
L 79.975467 281.687941 
L 82.260479 282.122529 
L 84.545491 282.880295 
L 86.830504 283.91802 
L 89.115516 285.19206 
L 92.162199 287.20275 
L 95.208882 289.526848 
L 98.255565 292.148638 
L 101.302248 295.080732 
L 108.157285 302.161733 
L 114.250651 308.31206 
L 118.059005 311.878307 
L 121.867359 315.157919 
L 125.675713 318.118855 
L 129.484066 320.743188 
L 132.530749 322.597715 
L 135.577432 324.239221 
L 139.385786 326.007771 
L 143.19414 327.492432 
L 147.002494 328.739305 
L 151.572518 329.976509 
L 156.142543 330.946862 
L 160.712568 331.672119 
L 165.282592 332.185597 
L 171.375958 332.620043 
L 178.230995 332.881403 
L 185.086032 332.913269 
L 192.70274 332.725131 
L 201.081118 332.294702 
L 210.221167 331.599823 
L 218.599545 330.738543 
L 226.977924 329.649763 
L 235.356302 328.333611 
L 242.97301 326.917528 
L 249.828047 325.416954 
L 255.921413 323.869475 
L 262.014779 322.089643 
L 267.346474 320.317641 
L 272.67817 318.312428 
L 277.248194 316.379149 
L 281.818219 314.228702 
L 286.388243 311.848802 
L 290.958268 309.232785 
L 295.528292 306.381368 
L 300.859988 302.78491 
L 309.238366 296.78423 
L 315.331732 292.514791 
L 319.140086 290.093195 
L 322.186769 288.395919 
L 325.233452 286.993609 
L 327.518464 286.1853 
L 329.803477 285.615637 
L 332.088489 285.306153 
L 334.373501 285.274639 
L 336.658514 285.531425 
L 338.943526 286.079381 
L 341.228538 286.913916 
L 343.51355 288.023203 
L 345.798563 289.388093 
L 348.083575 290.979415 
L 351.130258 293.398001 
L 354.938612 296.784743 
L 360.270307 301.901249 
L 367.887015 309.201142 
L 372.457039 313.260958 
L 376.265393 316.350262 
L 380.073747 319.128921 
L 383.882101 321.581178 
L 387.690455 323.723236 
L 391.498808 325.576753 
L 395.307162 327.14917 
L 399.115516 328.45734 
L 402.92387 329.527741 
L 407.493894 330.549883 
L 412.82559 331.475433 
L 418.157285 332.147425 
L 423.48898 332.589907 
L 429.582346 332.8627 
L 436.437383 332.948898 
L 444.054091 332.820197 
L 452.432469 332.449473 
L 460.810848 331.865748 
L 469.950897 331.005312 
L 478.329275 329.999193 
L 485.945983 328.868743 
L 493.56269 327.518365 
L 501.179398 325.942669 
L 508.034435 324.282281 
L 514.127801 322.56597 
L 519.459496 320.846551 
L 524.791192 318.896279 
L 530.122887 316.688515 
L 534.692912 314.578073 
L 539.262936 312.237696 
L 543.832961 309.646008 
L 548.402985 306.805375 
L 553.734681 303.212817 
L 560.589717 298.286958 
L 570.491437 291.116694 
L 573.53812 289.225598 
L 576.584803 287.619343 
L 578.869816 286.63915 
L 581.154828 285.876407 
L 583.43984 285.350077 
L 585.724853 285.075841 
L 588.009865 285.066094 
L 590.294877 285.329953 
L 592.579889 285.873248 
L 594.864902 286.698527 
L 597.149914 287.805057 
L 599.434926 289.182985 
L 601.719939 290.796723 
L 604.766622 293.245975 
L 608.574975 296.659997 
L 613.906671 301.808492 
L 622.285049 309.905135 
L 626.093403 313.28842 
L 629.901757 316.386015 
L 633.710111 319.1773 
L 637.518464 321.645101 
L 640.565147 323.384227 
L 644.373501 325.273154 
L 648.181855 326.868306 
L 651.990209 328.208079 
L 656.560233 329.543514 
L 661.130258 330.607185 
L 665.700283 331.421232 
L 670.270307 332.017478 
L 675.602002 332.492111 
L 681.695369 332.825831 
L 688.550405 332.965507 
L 696.167113 332.875433 
L 704.545491 332.535145 
L 713.685541 331.925539 
L 722.063919 331.154001 
L 730.442297 330.172085 
L 738.820676 328.967449 
L 746.437383 327.660202 
L 753.29242 326.275965 
L 760.147457 324.656383 
L 766.240823 322.987532 
L 772.334189 321.072764 
L 777.665885 319.159246 
L 782.99758 316.985148 
L 787.567604 314.891558 
L 792.137629 312.56998 
L 796.707654 310.009522 
L 801.277678 307.212478 
L 806.609373 303.660553 
L 812.70274 299.300024 
L 822.604459 292.146763 
L 826.412813 289.674292 
L 829.459496 287.944131 
L 831.744509 286.843349 
L 834.029521 285.945954 
L 836.314533 285.280128 
L 838.599545 284.871142 
L 838.599545 284.871142 
" clip-path="url(#p827090e000)" style="fill: none; stroke: #8c564b; stroke-width: 1.5; stroke-linecap: square"/>
   </g>
   <g id="patch_9">
    <path d="M 39.645 339.84 
L 39.645 188.64 
" style="fill: none; stroke: #000000; stroke-width: 0.8; stroke-linejoin: miter; stroke-linecap: square"/>
   </g>
   <g id="patch_10">
    <path d="M 876.645 339.84 
L 876.645 188.64 
" style="fill: none; stroke: #000000; stroke-width: 0.8; stroke-linejoin: miter; stroke-linecap: square"/>
   </g>
   <g id="patch_11">
    <path d="M 39.645 339.84 
L 876.645 339.84 
" style="fill: none; stroke: #000000; stroke-width: 0.8; stroke-linejoin: miter; stroke-linecap: square"/>
   </g>
   <g id="patch_12">
    <path d="M 39.645 188.64 
L 876.645 188.64 
" style="fill: none; stroke: #000000; stroke-width: 0.8; stroke-linejoin: miter; stroke-linecap: square"/>
   </g>
   <g id="legend_2">
    <g id="patch_13">
     <path d="M 790.405 298.33 
L 865.445 298.33 
Q 868.645 298.33 868.645 295.13 
L 868.645 199.84 
Q 868.645 196.64 865.445 196.64 
L 790.405 196.64 
Q 787.205 196.64 787.205 199.84 
L 787.205 295.13 
Q 787.205 298.33 790.405 298.33 
z
" style="fill: #ffffff; opacity: 0.8; stroke: #cccccc; stroke-linejoin: miter"/>
    </g>
    <g id="line2d_32">
     <path d="M 793.605 209.5975 
L 809.605 209.5975 
L 825.605 209.5975 
" style="fill: none; stroke: #2ca02c; stroke-width: 1.5; stroke-linecap: square"/>
    </g>
    <g id="text_27">
     <!-- $x^\top$ -->
     <g transform="translate(838.405 215.1975) scale(0.16 -0.16)">
      <defs>
       <path id="Cmsy10-3e" d="M 2363 122 
L 2363 4006 
L 481 4006 
Q 428 4006 393 4047 
Q 359 4088 359 4134 
Q 359 4181 393 4222 
Q 428 4263 481 4263 
L 4506 4263 
Q 4553 4263 4587 4222 
Q 4622 4181 4622 4134 
Q 4622 4088 4587 4047 
Q 4553 4006 4506 4006 
L 2619 4006 
L 2619 122 
Q 2619 69 2578 34 
Q 2538 0 2491 0 
Q 2438 0 2400 34 
Q 2363 69 2363 122 
z
" transform="scale(0.015625)"/>
      </defs>
      <use xlink:href="#Cmmi10-78" transform="translate(0 0.109375)"/>
      <use xlink:href="#Cmsy10-3e" transform="translate(75.674375 38.373438) scale(0.7)"/>
     </g>
    </g>
    <g id="line2d_33">
     <path d="M 793.605 233.0825 
L 809.605 233.0825 
L 825.605 233.0825 
" style="fill: none; stroke: #d62728; stroke-width: 1.5; stroke-linecap: square"/>
    </g>
    <g id="text_28">
     <!-- $x^\bot$ -->
     <g transform="translate(838.405 238.6825) scale(0.16 -0.16)">
      <defs>
       <path id="Cmsy10-3f" d="M 481 0 
Q 428 0 393 37 
Q 359 75 359 128 
Q 359 175 393 215 
Q 428 256 481 256 
L 2363 256 
L 2363 4147 
Q 2363 4197 2400 4230 
Q 2438 4263 2491 4263 
Q 2538 4263 2578 4230 
Q 2619 4197 2619 4147 
L 2619 256 
L 4506 256 
Q 4553 256 4587 215 
Q 4622 175 4622 128 
Q 4622 75 4587 37 
Q 4553 0 4506 0 
L 481 0 
z
" transform="scale(0.015625)"/>
      </defs>
      <use xlink:href="#Cmmi10-78" transform="translate(0 0.109375)"/>
      <use xlink:href="#Cmsy10-3f" transform="translate(75.674375 38.373438) scale(0.7)"/>
     </g>
    </g>
    <g id="line2d_34">
     <path d="M 793.605 258.01 
L 809.605 258.01 
L 825.605 258.01 
" style="fill: none; stroke: #9467bd; stroke-width: 1.5; stroke-linecap: square"/>
    </g>
    <g id="text_29">
     <!-- $y^\top$ -->
     <g transform="translate(838.405 263.61) scale(0.16 -0.16)">
      <use xlink:href="#Cmmi10-79" transform="translate(0 0.109375)"/>
      <use xlink:href="#Cmsy10-3e" transform="translate(67.617734 38.373438) scale(0.7)"/>
     </g>
    </g>
    <g id="line2d_35">
     <path d="M 793.605 282.97 
L 809.605 282.97 
L 825.605 282.97 
" style="fill: none; stroke: #8c564b; stroke-width: 1.5; stroke-linecap: square"/>
    </g>
    <g id="text_30">
     <!-- $y^\bot$ -->
     <g transform="translate(838.405 288.57) scale(0.16 -0.16)">
      <use xlink:href="#Cmmi10-79" transform="translate(0 0.109375)"/>
      <use xlink:href="#Cmsy10-3f" transform="translate(67.617734 38.373438) scale(0.7)"/>
     </g>
    </g>
   </g>
  </g>
 </g>
 <defs>
  <clipPath id="pf574156304">
   <rect x="39.645" y="7.2" width="837" height="151.2"/>
  </clipPath>
  <clipPath id="p827090e000">
   <rect x="39.645" y="188.64" width="837" height="151.2"/>
  </clipPath>
 </defs>
</svg>
