<?xml version="1.0" encoding="utf-8" standalone="no"?>
<!DOCTYPE svg PUBLIC "-//W3C//DTD SVG 1.1//EN"
  "http://www.w3.org/Graphics/SVG/1.1/DTD/svg11.dtd">
<svg xmlns:xlink="http://www.w3.org/1999/xlink" width="883.845pt" height="389.01pt" viewBox="0 0 883.845 389.01" xmlns="http://www.w3.org/2000/svg" version="1.1">
 <metadata>
  <rdf:RDF xmlns:dc="http://purl.org/dc/elements/1.1/" xmlns:cc="http://creativecommons.org/ns#" xmlns:rdf="http://www.w3.org/1999/02/22-rdf-syntax-ns#">
   <cc:Work>
    <dc:type rdf:resource="http://purl.org/dc/dcmitype/StillImage"/>
    <dc:date>2025-07-08T20:33:44.438566</dc:date>
    <dc:format>image/svg+xml</dc:format>
    <dc:creator>
     <cc:Agent>
      <dc:title>Matplotlib v3.10.1, https://matplotlib.org/</dc:title>
     </cc:Agent>
    </dc:creator>
   </cc:Work>
  </rdf:RDF>
 </metadata>
 <defs>
  <style type="text/css">*{stroke-linejoin: round; stroke-linecap: butt}</style>
 </defs>
 <g id="figure_1">
  <g id="patch_1">
   <path d="M 0 389.01 
L 883.845 389.01 
L 883.845 0 
L 0 0 
z
" style="fill: #ffffff"/>
  </g>
  <g id="axes_1">
   <g id="patch_2">
    <path d="M 39.645 158.4 
L 876.645 158.4 
L 876.645 7.2 
L 39.645 7.2 
z
" style="fill: #ffffff"/>
   </g>
   <g id="matplotlib.axis_1">
    <g id="xtick_1">
     <g id="line2d_1">
      <defs>
       <path id="m29cdb9147d" d="M 0 0 
L 0 3.5 
" style="stroke: #000000; stroke-width: 0.8"/>
      </defs>
      <g>
       <use xlink:href="#m29cdb9147d" x="77.690455" y="158.4" style="stroke: #000000; stroke-width: 0.8"/>
      </g>
     </g>
     <g id="text_1">
      <!-- 0.0 -->
      <g transform="translate(64.967955 177.5575) scale(0.16 -0.16)">
       <defs>
        <path id="DejaVuSans-30" d="M 2034 4250 
Q 1547 4250 1301 3770 
Q 1056 3291 1056 2328 
Q 1056 1369 1301 889 
Q 1547 409 2034 409 
Q 2525 409 2770 889 
Q 3016 1369 3016 2328 
Q 3016 3291 2770 3770 
Q 2525 4250 2034 4250 
z
M 2034 4750 
Q 2819 4750 3233 4129 
Q 3647 3509 3647 2328 
Q 3647 1150 3233 529 
Q 2819 -91 2034 -91 
Q 1250 -91 836 529 
Q 422 1150 422 2328 
Q 422 3509 836 4129 
Q 1250 4750 2034 4750 
z
" transform="scale(0.015625)"/>
        <path id="DejaVuSans-2e" d="M 684 794 
L 1344 794 
L 1344 0 
L 684 0 
L 684 794 
z
" transform="scale(0.015625)"/>
       </defs>
       <use xlink:href="#DejaVuSans-30"/>
       <use xlink:href="#DejaVuSans-2e" transform="translate(63.623047 0)"/>
       <use xlink:href="#DejaVuSans-30" transform="translate(95.410156 0)"/>
      </g>
     </g>
    </g>
    <g id="xtick_2">
     <g id="line2d_2">
      <g>
       <use xlink:href="#m29cdb9147d" x="178.609157" y="158.4" style="stroke: #000000; stroke-width: 0.8"/>
      </g>
     </g>
     <g id="text_2">
      <!-- 2.5 -->
      <g transform="translate(165.886657 177.5575) scale(0.16 -0.16)">
       <defs>
        <path id="DejaVuSans-32" d="M 1228 531 
L 3431 531 
L 3431 0 
L 469 0 
L 469 531 
Q 828 903 1448 1529 
Q 2069 2156 2228 2338 
Q 2531 2678 2651 2914 
Q 2772 3150 2772 3378 
Q 2772 3750 2511 3984 
Q 2250 4219 1831 4219 
Q 1534 4219 1204 4116 
Q 875 4013 500 3803 
L 500 4441 
Q 881 4594 1212 4672 
Q 1544 4750 1819 4750 
Q 2544 4750 2975 4387 
Q 3406 4025 3406 3419 
Q 3406 3131 3298 2873 
Q 3191 2616 2906 2266 
Q 2828 2175 2409 1742 
Q 1991 1309 1228 531 
z
" transform="scale(0.015625)"/>
        <path id="DejaVuSans-35" d="M 691 4666 
L 3169 4666 
L 3169 4134 
L 1269 4134 
L 1269 2991 
Q 1406 3038 1543 3061 
Q 1681 3084 1819 3084 
Q 2600 3084 3056 2656 
Q 3513 2228 3513 1497 
Q 3513 744 3044 326 
Q 2575 -91 1722 -91 
Q 1428 -91 1123 -41 
Q 819 9 494 109 
L 494 744 
Q 775 591 1075 516 
Q 1375 441 1709 441 
Q 2250 441 2565 725 
Q 2881 1009 2881 1497 
Q 2881 1984 2565 2268 
Q 2250 2553 1709 2553 
Q 1456 2553 1204 2497 
Q 953 2441 691 2322 
L 691 4666 
z
" transform="scale(0.015625)"/>
       </defs>
       <use xlink:href="#DejaVuSans-32"/>
       <use xlink:href="#DejaVuSans-2e" transform="translate(63.623047 0)"/>
       <use xlink:href="#DejaVuSans-35" transform="translate(95.410156 0)"/>
      </g>
     </g>
    </g>
    <g id="xtick_3">
     <g id="line2d_3">
      <g>
       <use xlink:href="#m29cdb9147d" x="279.52786" y="158.4" style="stroke: #000000; stroke-width: 0.8"/>
      </g>
     </g>
     <g id="text_3">
      <!-- 5.0 -->
      <g transform="translate(266.80536 177.5575) scale(0.16 -0.16)">
       <use xlink:href="#DejaVuSans-35"/>
       <use xlink:href="#DejaVuSans-2e" transform="translate(63.623047 0)"/>
       <use xlink:href="#DejaVuSans-30" transform="translate(95.410156 0)"/>
      </g>
     </g>
    </g>
    <g id="xtick_4">
     <g id="line2d_4">
      <g>
       <use xlink:href="#m29cdb9147d" x="380.446562" y="158.4" style="stroke: #000000; stroke-width: 0.8"/>
      </g>
     </g>
     <g id="text_4">
      <!-- 7.5 -->
      <g transform="translate(367.724062 177.5575) scale(0.16 -0.16)">
       <defs>
        <path id="DejaVuSans-37" d="M 525 4666 
L 3525 4666 
L 3525 4397 
L 1831 0 
L 1172 0 
L 2766 4134 
L 525 4134 
L 525 4666 
z
" transform="scale(0.015625)"/>
       </defs>
       <use xlink:href="#DejaVuSans-37"/>
       <use xlink:href="#DejaVuSans-2e" transform="translate(63.623047 0)"/>
       <use xlink:href="#DejaVuSans-35" transform="translate(95.410156 0)"/>
      </g>
     </g>
    </g>
    <g id="xtick_5">
     <g id="line2d_5">
      <g>
       <use xlink:href="#m29cdb9147d" x="481.365265" y="158.4" style="stroke: #000000; stroke-width: 0.8"/>
      </g>
     </g>
     <g id="text_5">
      <!-- 10.0 -->
      <g transform="translate(463.552765 177.5575) scale(0.16 -0.16)">
       <defs>
        <path id="DejaVuSans-31" d="M 794 531 
L 1825 531 
L 1825 4091 
L 703 3866 
L 703 4441 
L 1819 4666 
L 2450 4666 
L 2450 531 
L 3481 531 
L 3481 0 
L 794 0 
L 794 531 
z
" transform="scale(0.015625)"/>
       </defs>
       <use xlink:href="#DejaVuSans-31"/>
       <use xlink:href="#DejaVuSans-30" transform="translate(63.623047 0)"/>
       <use xlink:href="#DejaVuSans-2e" transform="translate(127.246094 0)"/>
       <use xlink:href="#DejaVuSans-30" transform="translate(159.033203 0)"/>
      </g>
     </g>
    </g>
    <g id="xtick_6">
     <g id="line2d_6">
      <g>
       <use xlink:href="#m29cdb9147d" x="582.283967" y="158.4" style="stroke: #000000; stroke-width: 0.8"/>
      </g>
     </g>
     <g id="text_6">
      <!-- 12.5 -->
      <g transform="translate(564.471467 177.5575) scale(0.16 -0.16)">
       <use xlink:href="#DejaVuSans-31"/>
       <use xlink:href="#DejaVuSans-32" transform="translate(63.623047 0)"/>
       <use xlink:href="#DejaVuSans-2e" transform="translate(127.246094 0)"/>
       <use xlink:href="#DejaVuSans-35" transform="translate(159.033203 0)"/>
      </g>
     </g>
    </g>
    <g id="xtick_7">
     <g id="line2d_7">
      <g>
       <use xlink:href="#m29cdb9147d" x="683.20267" y="158.4" style="stroke: #000000; stroke-width: 0.8"/>
      </g>
     </g>
     <g id="text_7">
      <!-- 15.0 -->
      <g transform="translate(665.39017 177.5575) scale(0.16 -0.16)">
       <use xlink:href="#DejaVuSans-31"/>
       <use xlink:href="#DejaVuSans-35" transform="translate(63.623047 0)"/>
       <use xlink:href="#DejaVuSans-2e" transform="translate(127.246094 0)"/>
       <use xlink:href="#DejaVuSans-30" transform="translate(159.033203 0)"/>
      </g>
     </g>
    </g>
    <g id="xtick_8">
     <g id="line2d_8">
      <g>
       <use xlink:href="#m29cdb9147d" x="784.121372" y="158.4" style="stroke: #000000; stroke-width: 0.8"/>
      </g>
     </g>
     <g id="text_8">
      <!-- 17.5 -->
      <g transform="translate(766.308872 177.5575) scale(0.16 -0.16)">
       <use xlink:href="#DejaVuSans-31"/>
       <use xlink:href="#DejaVuSans-37" transform="translate(63.623047 0)"/>
       <use xlink:href="#DejaVuSans-2e" transform="translate(127.246094 0)"/>
       <use xlink:href="#DejaVuSans-35" transform="translate(159.033203 0)"/>
      </g>
     </g>
    </g>
   </g>
   <g id="matplotlib.axis_2">
    <g id="ytick_1">
     <g id="line2d_9">
      <defs>
       <path id="m714c5f55e6" d="M 0 0 
L -3.5 0 
" style="stroke: #000000; stroke-width: 0.8"/>
      </defs>
      <g>
       <use xlink:href="#m714c5f55e6" x="39.645" y="150.829291" style="stroke: #000000; stroke-width: 0.8"/>
      </g>
     </g>
     <g id="text_9">
      <!-- 1 -->
      <g transform="translate(22.465 156.908041) scale(0.16 -0.16)">
       <use xlink:href="#DejaVuSans-31"/>
      </g>
     </g>
    </g>
    <g id="ytick_2">
     <g id="line2d_10">
      <g>
       <use xlink:href="#m714c5f55e6" x="39.645" y="82.784772" style="stroke: #000000; stroke-width: 0.8"/>
      </g>
     </g>
     <g id="text_10">
      <!-- 2 -->
      <g transform="translate(22.465 88.863522) scale(0.16 -0.16)">
       <use xlink:href="#DejaVuSans-32"/>
      </g>
     </g>
    </g>
    <g id="ytick_3">
     <g id="line2d_11">
      <g>
       <use xlink:href="#m714c5f55e6" x="39.645" y="14.740253" style="stroke: #000000; stroke-width: 0.8"/>
      </g>
     </g>
     <g id="text_11">
      <!-- 3 -->
      <g transform="translate(22.465 20.819003) scale(0.16 -0.16)">
       <defs>
        <path id="DejaVuSans-33" d="M 2597 2516 
Q 3050 2419 3304 2112 
Q 3559 1806 3559 1356 
Q 3559 666 3084 287 
Q 2609 -91 1734 -91 
Q 1441 -91 1130 -33 
Q 819 25 488 141 
L 488 750 
Q 750 597 1062 519 
Q 1375 441 1716 441 
Q 2309 441 2620 675 
Q 2931 909 2931 1356 
Q 2931 1769 2642 2001 
Q 2353 2234 1838 2234 
L 1294 2234 
L 1294 2753 
L 1863 2753 
Q 2328 2753 2575 2939 
Q 2822 3125 2822 3475 
Q 2822 3834 2567 4026 
Q 2313 4219 1838 4219 
Q 1578 4219 1281 4162 
Q 984 4106 628 3988 
L 628 4550 
Q 988 4650 1302 4700 
Q 1616 4750 1894 4750 
Q 2613 4750 3031 4423 
Q 3450 4097 3450 3541 
Q 3450 3153 3228 2886 
Q 3006 2619 2597 2516 
z
" transform="scale(0.015625)"/>
       </defs>
       <use xlink:href="#DejaVuSans-33"/>
      </g>
     </g>
    </g>
   </g>
   <g id="line2d_12">
    <path d="M 77.690455 82.784772 
L 88.353845 100.576762 
L 93.685541 109.041771 
L 98.255565 115.879704 
L 102.82559 122.277968 
L 107.395614 128.228607 
L 110.442297 131.900694 
L 113.48898 135.283029 
L 116.535663 138.37606 
L 119.582346 141.174665 
L 122.629029 143.667819 
L 125.675713 145.838568 
L 127.960725 147.241611 
L 130.245737 148.439068 
L 132.530749 149.417738 
L 134.815762 150.16291 
L 137.100774 150.683216 
L 139.385786 150.988936 
L 141.670799 151.073393 
L 143.955811 150.934186 
L 146.240823 150.571972 
L 148.525835 149.989467 
L 150.810848 149.190644 
L 153.09586 148.1801 
L 155.380872 146.962572 
L 157.665885 145.542566 
L 160.712568 143.340616 
L 163.759251 140.791659 
L 166.805934 137.915226 
L 169.852617 134.729379 
L 172.8993 131.248686 
L 176.707654 126.503447 
L 180.516007 121.347046 
L 184.324361 115.818842 
L 188.894386 108.781071 
L 195.749423 97.730748 
L 204.127801 83.70791 
L 214.029521 67.17116 
L 220.122887 57.442212 
L 225.454582 49.355788 
L 230.024607 42.876058 
L 233.832961 37.859981 
L 237.641314 33.23308 
L 240.687998 29.838651 
L 243.734681 26.739484 
L 246.781364 23.955495 
L 249.828047 21.505404 
L 252.87473 19.406347 
L 255.159742 18.071734 
L 257.444754 16.949099 
L 259.729767 16.043769 
L 262.014779 15.35842 
L 264.299791 14.892304 
L 266.584803 14.644198 
L 268.869816 14.612565 
L 271.154828 14.795573 
L 273.43984 15.191128 
L 275.724853 15.796917 
L 278.009865 16.610474 
L 280.294877 17.629256 
L 282.579889 18.850734 
L 284.864902 20.272496 
L 287.911585 22.476007 
L 290.958268 25.027607 
L 294.004951 27.924845 
L 297.051634 31.159554 
L 300.098317 34.694012 
L 303.906671 39.495937 
L 307.715025 44.681004 
L 312.285049 51.340882 
L 316.855074 58.396879 
L 322.94844 68.267784 
L 331.326818 82.340592 
L 341.990209 100.21505 
L 348.083575 109.963159 
L 352.6536 116.8797 
L 356.461953 122.303632 
L 360.270307 127.378539 
L 364.078661 132.069404 
L 367.125344 135.517271 
L 370.172027 138.668828 
L 373.21871 141.500263 
L 376.265393 143.9886 
L 379.312076 146.133078 
L 381.597088 147.506883 
L 383.882101 148.668085 
L 386.167113 149.610749 
L 388.452125 150.332237 
L 390.737138 150.832409 
L 393.02215 151.112857 
L 395.307162 151.176167 
L 397.592174 151.025224 
L 399.877187 150.662566 
L 402.162199 150.087289 
L 404.447211 149.296949 
L 406.732224 148.293428 
L 409.017236 147.079636 
L 411.302248 145.659175 
L 414.348931 143.451045 
L 417.395614 140.894737 
L 420.442297 138.005097 
L 423.48898 134.802066 
L 426.535663 131.310384 
L 430.344017 126.560139 
L 434.152371 121.421318 
L 437.960725 115.936156 
L 442.530749 108.958326 
L 447.862445 100.38954 
L 455.479152 87.666331 
L 469.189226 64.61294 
L 474.520921 56.153179 
L 479.090946 49.310813 
L 483.660971 42.892963 
L 488.230995 36.88936 
L 492.039349 32.303218 
L 495.086032 28.957117 
L 498.132715 25.912825 
L 501.179398 23.184517 
L 504.226081 20.786393 
L 507.272764 18.73236 
L 509.557776 17.425735 
L 511.842789 16.325663 
L 514.127801 15.437423 
L 516.412813 14.766174 
L 518.697826 14.317037 
L 520.982838 14.09522 
L 523.26785 14.104203 
L 525.552862 14.33731 
L 527.837875 14.791039 
L 530.122887 15.462295 
L 532.407899 16.347525 
L 534.692912 17.442754 
L 536.977924 18.743625 
L 539.262936 20.245457 
L 542.309619 22.551932 
L 545.356302 25.194645 
L 548.402985 28.161111 
L 551.449668 31.438927 
L 554.496351 35.016153 
L 558.304705 39.888985 
L 562.113059 45.154387 
L 566.683084 51.913552 
L 571.253108 59.066604 
L 577.346474 69.052616 
L 587.248194 85.821903 
L 596.388243 101.166974 
L 601.719939 109.748929 
L 606.289963 116.734266 
L 610.098317 122.216984 
L 613.906671 127.337404 
L 617.715025 132.054513 
L 620.761708 135.517815 
L 623.808391 138.696311 
L 626.855074 141.585041 
L 629.901757 144.140512 
L 632.186769 145.816615 
L 634.471781 147.276227 
L 636.756794 148.514534 
L 639.041806 149.529979 
L 641.326818 150.323477 
L 643.61183 150.89771 
L 645.896843 151.256501 
L 648.181855 151.404268 
L 650.466867 151.34555 
L 652.75188 151.084344 
L 655.036892 150.612905 
L 657.321904 149.92532 
L 659.606916 149.02217 
L 661.891929 147.905473 
L 664.176941 146.578246 
L 666.461953 145.044272 
L 669.508636 142.685261 
L 672.555319 139.979887 
L 675.602002 136.9452 
L 678.648686 133.60439 
L 682.457039 129.048136 
L 686.265393 124.098446 
L 690.073747 118.780756 
L 694.643771 111.975756 
L 699.213796 104.782607 
L 705.307162 94.750175 
L 727.395614 57.883105 
L 731.965639 50.875229 
L 735.773993 45.375099 
L 739.582346 40.222711 
L 743.3907 35.429654 
L 747.199054 30.998677 
L 750.245737 27.784747 
L 753.29242 24.885604 
L 756.339103 22.310808 
L 759.385786 20.070365 
L 762.432469 18.174465 
L 764.717482 16.984778 
L 767.002494 15.998905 
L 769.287506 15.221111 
L 771.572518 14.655694 
L 773.857531 14.307054 
L 776.142543 14.179794 
L 778.427555 14.278858 
L 780.712568 14.609699 
L 782.99758 15.174758 
L 785.282592 15.960398 
L 787.567604 16.961118 
L 789.852617 18.172437 
L 792.137629 19.589387 
L 795.184312 21.789114 
L 798.230995 24.330835 
L 801.277678 27.199604 
L 804.324361 30.379696 
L 807.371044 33.854878 
L 811.179398 38.588789 
L 814.987752 43.726272 
L 818.796106 49.226111 
L 823.36613 56.216872 
L 828.697826 64.795227 
L 836.314533 77.553654 
L 838.599545 81.438267 
L 838.599545 81.438267 
" clip-path="url(#p71232e8a1c)" style="fill: none; stroke: #1f77b4; stroke-width: 1.5; stroke-linecap: square"/>
   </g>
   <g id="line2d_13">
    <path d="M 77.690455 150.829291 
L 79.975467 150.720307 
L 82.260479 150.392456 
L 84.545491 149.834258 
L 86.830504 149.057087 
L 89.115516 148.074551 
L 91.400528 146.89571 
L 94.447211 145.027753 
L 97.493894 142.826615 
L 100.540577 140.293691 
L 103.58726 137.429302 
L 106.633943 134.237385 
L 109.680627 130.731925 
L 113.48898 125.954016 
L 117.297334 120.7977 
L 121.867359 114.203036 
L 127.199054 106.076905 
L 132.530749 97.573765 
L 138.624115 87.410511 
L 152.334189 64.451488 
L 157.665885 55.963224 
L 162.235909 49.043045 
L 166.805934 42.532589 
L 170.614287 37.498744 
L 174.422641 32.88354 
L 177.469324 29.526285 
L 180.516007 26.488486 
L 183.56269 23.784408 
L 186.609373 21.422634 
L 189.656057 19.406247 
L 192.70274 17.733327 
L 194.987752 16.715828 
L 197.272764 15.91564 
L 199.557776 15.330499 
L 201.842789 14.958328 
L 204.127801 14.797374 
L 206.412813 14.8463 
L 208.697826 15.104242 
L 210.982838 15.570826 
L 213.26785 16.24615 
L 215.552862 17.13073 
L 217.837875 18.225419 
L 220.122887 19.531283 
L 222.407899 21.049463 
L 225.454582 23.397436 
L 228.501265 26.080679 
L 231.547948 29.084679 
L 234.594631 32.395502 
L 237.641314 35.996751 
L 241.449668 40.877717 
L 245.258022 46.140473 
L 249.828047 52.891518 
L 255.159742 61.249106 
L 262.014779 72.497425 
L 283.34156 107.908014 
L 287.911585 114.929697 
L 292.481609 121.535381 
L 296.289963 126.670979 
L 300.098317 131.431252 
L 303.145 134.930946 
L 306.191683 138.127156 
L 309.238366 140.998959 
L 312.285049 143.531342 
L 315.331732 145.71435 
L 317.616744 147.118382 
L 319.901757 148.320191 
L 322.186769 149.317659 
L 324.471781 150.107989 
L 326.756794 150.687019 
L 329.041806 151.04843 
L 331.326818 151.184721 
L 333.61183 151.100332 
L 335.896843 150.797066 
L 338.181855 150.275964 
L 340.466867 149.538673 
L 342.75188 148.587332 
L 345.036892 147.425302 
L 347.321904 146.056639 
L 349.606916 144.485126 
L 352.6536 142.082617 
L 355.700283 139.339441 
L 358.746966 136.274617 
L 361.793649 132.907767 
L 364.840332 129.257742 
L 368.648686 124.327058 
L 372.457039 119.02648 
L 377.027064 112.240603 
L 382.358759 103.8555 
L 388.452125 93.815692 
L 409.017236 59.501124 
L 414.348931 51.247061 
L 418.918956 44.615089 
L 422.72731 39.459227 
L 426.535663 34.677697 
L 429.582346 31.156249 
L 432.629029 27.929234 
L 435.675713 25.01425 
L 438.722396 22.426953 
L 441.769079 20.181584 
L 444.054091 18.729998 
L 446.339103 17.483736 
L 448.624115 16.44826 
L 450.909128 15.630458 
L 453.19414 15.043061 
L 455.479152 14.681749 
L 457.764165 14.539271 
L 460.049177 14.609135 
L 462.334189 14.88577 
L 464.619201 15.364621 
L 466.904214 16.042197 
L 469.189226 16.916067 
L 471.474238 17.984806 
L 473.759251 19.247908 
L 476.805934 21.234967 
L 479.852617 23.570423 
L 482.8993 26.257656 
L 485.945983 29.30011 
L 488.992666 32.685717 
L 492.80102 37.316826 
L 496.609373 42.350689 
L 500.417727 47.745895 
L 504.987752 54.633028 
L 510.319447 63.127833 
L 517.174484 74.544245 
L 533.931241 102.715148 
L 539.262936 111.222092 
L 543.832961 118.131319 
L 547.641314 123.539621 
L 551.449668 128.576333 
L 555.258022 133.203118 
L 559.066376 137.408001 
L 562.113059 140.45685 
L 565.159742 143.166146 
L 568.206425 145.503545 
L 570.491437 147.003819 
L 572.77645 148.285861 
L 575.061462 149.35094 
L 577.346474 150.201621 
L 579.631486 150.840843 
L 581.916499 151.271148 
L 584.201511 151.493997 
L 586.486523 151.509131 
L 588.771536 151.313902 
L 591.056548 150.902536 
L 593.34156 150.265221 
L 595.626572 149.394196 
L 597.911585 148.302356 
L 600.196597 147.003451 
L 603.24328 144.965745 
L 606.289963 142.591541 
L 609.336646 139.889282 
L 612.383329 136.864509 
L 615.430012 133.523738 
L 618.476695 129.879358 
L 622.285049 124.936466 
L 626.093403 119.632335 
L 630.663428 112.836152 
L 635.233452 105.637801 
L 641.326818 95.606475 
L 664.176941 57.520086 
L 668.746966 50.5206 
L 672.555319 45.032957 
L 676.363673 39.897625 
L 680.172027 35.128236 
L 683.980381 30.731369 
L 687.027064 27.540418 
L 690.073747 24.664109 
L 693.12043 22.116038 
L 696.167113 19.908737 
L 698.452125 18.484171 
L 700.737138 17.263223 
L 703.02215 16.251186 
L 705.307162 15.453604 
L 707.592174 14.876337 
L 709.877187 14.525206 
L 712.162199 14.400338 
L 714.447211 14.497774 
L 716.732224 14.813465 
L 719.017236 15.343382 
L 721.302248 16.083587 
L 723.58726 17.030278 
L 725.872273 18.179795 
L 728.157285 19.528611 
L 731.203968 21.63111 
L 734.250651 24.073676 
L 737.297334 26.847888 
L 740.344017 29.944579 
L 743.3907 33.353332 
L 746.437383 37.059649 
L 750.245737 42.05621 
L 754.054091 47.412388 
L 758.624115 54.252663 
L 763.955811 62.697248 
L 770.049177 72.783435 
L 789.852617 105.92117 
L 795.184312 114.235034 
L 799.754337 120.951408 
L 803.56269 126.177636 
L 807.371044 131.008125 
L 810.417727 134.558225 
L 813.46441 137.811227 
L 816.511093 140.756328 
L 819.557776 143.379804 
L 822.604459 145.655459 
L 824.889472 147.123497 
L 827.174484 148.38266 
L 829.459496 149.431042 
L 831.744509 150.267498 
L 834.029521 150.890746 
L 836.314533 151.298505 
L 838.599545 151.486604 
L 838.599545 151.486604 
" clip-path="url(#p71232e8a1c)" style="fill: none; stroke: #ff7f0e; stroke-width: 1.5; stroke-linecap: square"/>
   </g>
   <g id="patch_3">
    <path d="M 39.645 158.4 
L 39.645 7.2 
" style="fill: none; stroke: #000000; stroke-width: 0.8; stroke-linejoin: miter; stroke-linecap: square"/>
   </g>
   <g id="patch_4">
    <path d="M 876.645 158.4 
L 876.645 7.2 
" style="fill: none; stroke: #000000; stroke-width: 0.8; stroke-linejoin: miter; stroke-linecap: square"/>
   </g>
   <g id="patch_5">
    <path d="M 39.645 158.4 
L 876.645 158.4 
" style="fill: none; stroke: #000000; stroke-width: 0.8; stroke-linejoin: miter; stroke-linecap: square"/>
   </g>
   <g id="patch_6">
    <path d="M 39.645 7.2 
L 876.645 7.2 
" style="fill: none; stroke: #000000; stroke-width: 0.8; stroke-linejoin: miter; stroke-linecap: square"/>
   </g>
   <g id="legend_1">
    <g id="patch_7">
     <path d="M 50.845 67.0025 
L 111.325 67.0025 
Q 114.525 67.0025 114.525 63.8025 
L 114.525 18.4 
Q 114.525 15.2 111.325 15.2 
L 50.845 15.2 
Q 47.645 15.2 47.645 18.4 
L 47.645 63.8025 
Q 47.645 67.0025 50.845 67.0025 
z
" style="fill: #ffffff; opacity: 0.8; stroke: #cccccc; stroke-linejoin: miter"/>
    </g>
    <g id="line2d_14">
     <path d="M 54.045 28.1575 
L 70.045 28.1575 
L 86.045 28.1575 
" style="fill: none; stroke: #1f77b4; stroke-width: 1.5; stroke-linecap: square"/>
    </g>
    <g id="text_12">
     <!-- $x$ -->
     <g transform="translate(98.845 33.7575) scale(0.16 -0.16)">
      <defs>
       <path id="Cmmi10-78" d="M 500 184 
Q 613 97 819 97 
Q 1019 97 1172 289 
Q 1325 481 1381 709 
L 1672 1844 
Q 1741 2153 1741 2266 
Q 1741 2425 1652 2544 
Q 1563 2663 1403 2663 
Q 1200 2663 1022 2536 
Q 844 2409 722 2214 
Q 600 2019 550 1819 
Q 538 1778 500 1778 
L 422 1778 
Q 372 1778 372 1838 
L 372 1856 
Q 434 2094 584 2320 
Q 734 2547 951 2687 
Q 1169 2828 1416 2828 
Q 1650 2828 1839 2703 
Q 2028 2578 2106 2363 
Q 2216 2559 2386 2693 
Q 2556 2828 2759 2828 
Q 2897 2828 3040 2779 
Q 3184 2731 3275 2631 
Q 3366 2531 3366 2381 
Q 3366 2219 3261 2101 
Q 3156 1984 2994 1984 
Q 2891 1984 2822 2050 
Q 2753 2116 2753 2216 
Q 2753 2350 2845 2451 
Q 2938 2553 3066 2572 
Q 2950 2663 2747 2663 
Q 2541 2663 2389 2472 
Q 2238 2281 2175 2047 
L 1894 916 
Q 1825 659 1825 494 
Q 1825 331 1917 214 
Q 2009 97 2163 97 
Q 2463 97 2698 361 
Q 2934 625 3009 941 
Q 3022 978 3059 978 
L 3138 978 
Q 3163 978 3178 961 
Q 3194 944 3194 922 
Q 3194 916 3188 903 
Q 3097 522 2806 225 
Q 2516 -72 2150 -72 
Q 1916 -72 1727 54 
Q 1538 181 1459 397 
Q 1359 209 1182 68 
Q 1006 -72 806 -72 
Q 669 -72 523 -23 
Q 378 25 287 125 
Q 197 225 197 378 
Q 197 528 301 651 
Q 406 775 563 775 
Q 669 775 741 711 
Q 813 647 813 544 
Q 813 409 723 309 
Q 634 209 500 184 
z
" transform="scale(0.015625)"/>
      </defs>
      <use xlink:href="#Cmmi10-78" transform="translate(0 0.8125)"/>
     </g>
    </g>
    <g id="line2d_15">
     <path d="M 54.045 51.6425 
L 70.045 51.6425 
L 86.045 51.6425 
" style="fill: none; stroke: #ff7f0e; stroke-width: 1.5; stroke-linecap: square"/>
    </g>
    <g id="text_13">
     <!-- $y$ -->
     <g transform="translate(98.845 57.2425) scale(0.16 -0.16)">
      <defs>
       <path id="Cmmi10-79" d="M 538 -916 
Q 672 -1147 1006 -1147 
Q 1309 -1147 1531 -934 
Q 1753 -722 1889 -420 
Q 2025 -119 2100 197 
Q 1816 -72 1484 -72 
Q 1231 -72 1053 15 
Q 875 103 776 276 
Q 678 450 678 697 
Q 678 906 734 1126 
Q 791 1347 892 1617 
Q 994 1888 1069 2088 
Q 1153 2322 1153 2472 
Q 1153 2663 1013 2663 
Q 759 2663 595 2402 
Q 431 2141 353 1819 
Q 341 1778 300 1778 
L 225 1778 
Q 172 1778 172 1838 
L 172 1856 
Q 275 2238 487 2533 
Q 700 2828 1025 2828 
Q 1253 2828 1411 2678 
Q 1569 2528 1569 2297 
Q 1569 2178 1516 2047 
Q 1488 1969 1388 1706 
Q 1288 1444 1234 1272 
Q 1181 1100 1147 934 
Q 1113 769 1113 603 
Q 1113 391 1203 244 
Q 1294 97 1491 97 
Q 1888 97 2203 581 
L 2688 2553 
Q 2709 2638 2787 2698 
Q 2866 2759 2956 2759 
Q 3034 2759 3092 2709 
Q 3150 2659 3150 2578 
Q 3150 2541 3144 2528 
L 2509 -19 
Q 2425 -347 2200 -647 
Q 1975 -947 1658 -1130 
Q 1341 -1313 997 -1313 
Q 831 -1313 668 -1248 
Q 506 -1184 406 -1056 
Q 306 -928 306 -756 
Q 306 -581 409 -453 
Q 513 -325 684 -325 
Q 788 -325 858 -389 
Q 928 -453 928 -556 
Q 928 -703 818 -812 
Q 709 -922 563 -922 
Q 556 -919 550 -917 
Q 544 -916 538 -916 
z
" transform="scale(0.015625)"/>
      </defs>
      <use xlink:href="#Cmmi10-79" transform="translate(0 0.8125)"/>
     </g>
    </g>
   </g>
  </g>
  <g id="axes_2">
   <g id="patch_8">
    <path d="M 39.645 339.84 
L 876.645 339.84 
L 876.645 188.64 
L 39.645 188.64 
z
" style="fill: #ffffff"/>
   </g>
   <g id="matplotlib.axis_3">
    <g id="xtick_9">
     <g id="line2d_16">
      <g>
       <use xlink:href="#m29cdb9147d" x="77.690455" y="339.84" style="stroke: #000000; stroke-width: 0.8"/>
      </g>
     </g>
     <g id="text_14">
      <!-- 0.0 -->
      <g transform="translate(64.967955 358.9975) scale(0.16 -0.16)">
       <use xlink:href="#DejaVuSans-30"/>
       <use xlink:href="#DejaVuSans-2e" transform="translate(63.623047 0)"/>
       <use xlink:href="#DejaVuSans-30" transform="translate(95.410156 0)"/>
      </g>
     </g>
    </g>
    <g id="xtick_10">
     <g id="line2d_17">
      <g>
       <use xlink:href="#m29cdb9147d" x="178.609157" y="339.84" style="stroke: #000000; stroke-width: 0.8"/>
      </g>
     </g>
     <g id="text_15">
      <!-- 2.5 -->
      <g transform="translate(165.886657 358.9975) scale(0.16 -0.16)">
       <use xlink:href="#DejaVuSans-32"/>
       <use xlink:href="#DejaVuSans-2e" transform="translate(63.623047 0)"/>
       <use xlink:href="#DejaVuSans-35" transform="translate(95.410156 0)"/>
      </g>
     </g>
    </g>
    <g id="xtick_11">
     <g id="line2d_18">
      <g>
       <use xlink:href="#m29cdb9147d" x="279.52786" y="339.84" style="stroke: #000000; stroke-width: 0.8"/>
      </g>
     </g>
     <g id="text_16">
      <!-- 5.0 -->
      <g transform="translate(266.80536 358.9975) scale(0.16 -0.16)">
       <use xlink:href="#DejaVuSans-35"/>
       <use xlink:href="#DejaVuSans-2e" transform="translate(63.623047 0)"/>
       <use xlink:href="#DejaVuSans-30" transform="translate(95.410156 0)"/>
      </g>
     </g>
    </g>
    <g id="xtick_12">
     <g id="line2d_19">
      <g>
       <use xlink:href="#m29cdb9147d" x="380.446562" y="339.84" style="stroke: #000000; stroke-width: 0.8"/>
      </g>
     </g>
     <g id="text_17">
      <!-- 7.5 -->
      <g transform="translate(367.724062 358.9975) scale(0.16 -0.16)">
       <use xlink:href="#DejaVuSans-37"/>
       <use xlink:href="#DejaVuSans-2e" transform="translate(63.623047 0)"/>
       <use xlink:href="#DejaVuSans-35" transform="translate(95.410156 0)"/>
      </g>
     </g>
    </g>
    <g id="xtick_13">
     <g id="line2d_20">
      <g>
       <use xlink:href="#m29cdb9147d" x="481.365265" y="339.84" style="stroke: #000000; stroke-width: 0.8"/>
      </g>
     </g>
     <g id="text_18">
      <!-- 10.0 -->
      <g transform="translate(463.552765 358.9975) scale(0.16 -0.16)">
       <use xlink:href="#DejaVuSans-31"/>
       <use xlink:href="#DejaVuSans-30" transform="translate(63.623047 0)"/>
       <use xlink:href="#DejaVuSans-2e" transform="translate(127.246094 0)"/>
       <use xlink:href="#DejaVuSans-30" transform="translate(159.033203 0)"/>
      </g>
     </g>
    </g>
    <g id="xtick_14">
     <g id="line2d_21">
      <g>
       <use xlink:href="#m29cdb9147d" x="582.283967" y="339.84" style="stroke: #000000; stroke-width: 0.8"/>
      </g>
     </g>
     <g id="text_19">
      <!-- 12.5 -->
      <g transform="translate(564.471467 358.9975) scale(0.16 -0.16)">
       <use xlink:href="#DejaVuSans-31"/>
       <use xlink:href="#DejaVuSans-32" transform="translate(63.623047 0)"/>
       <use xlink:href="#DejaVuSans-2e" transform="translate(127.246094 0)"/>
       <use xlink:href="#DejaVuSans-35" transform="translate(159.033203 0)"/>
      </g>
     </g>
    </g>
    <g id="xtick_15">
     <g id="line2d_22">
      <g>
       <use xlink:href="#m29cdb9147d" x="683.20267" y="339.84" style="stroke: #000000; stroke-width: 0.8"/>
      </g>
     </g>
     <g id="text_20">
      <!-- 15.0 -->
      <g transform="translate(665.39017 358.9975) scale(0.16 -0.16)">
       <use xlink:href="#DejaVuSans-31"/>
       <use xlink:href="#DejaVuSans-35" transform="translate(63.623047 0)"/>
       <use xlink:href="#DejaVuSans-2e" transform="translate(127.246094 0)"/>
       <use xlink:href="#DejaVuSans-30" transform="translate(159.033203 0)"/>
      </g>
     </g>
    </g>
    <g id="xtick_16">
     <g id="line2d_23">
      <g>
       <use xlink:href="#m29cdb9147d" x="784.121372" y="339.84" style="stroke: #000000; stroke-width: 0.8"/>
      </g>
     </g>
     <g id="text_21">
      <!-- 17.5 -->
      <g transform="translate(766.308872 358.9975) scale(0.16 -0.16)">
       <use xlink:href="#DejaVuSans-31"/>
       <use xlink:href="#DejaVuSans-37" transform="translate(63.623047 0)"/>
       <use xlink:href="#DejaVuSans-2e" transform="translate(127.246094 0)"/>
       <use xlink:href="#DejaVuSans-35" transform="translate(159.033203 0)"/>
      </g>
     </g>
    </g>
    <g id="text_22">
     <!-- time -->
     <g transform="translate(440.07125 378.4825) scale(0.16 -0.16)">
      <defs>
       <path id="DejaVuSans-74" d="M 1172 4494 
L 1172 3500 
L 2356 3500 
L 2356 3053 
L 1172 3053 
L 1172 1153 
Q 1172 725 1289 603 
Q 1406 481 1766 481 
L 2356 481 
L 2356 0 
L 1766 0 
Q 1100 0 847 248 
Q 594 497 594 1153 
L 594 3053 
L 172 3053 
L 172 3500 
L 594 3500 
L 594 4494 
L 1172 4494 
z
" transform="scale(0.015625)"/>
       <path id="DejaVuSans-69" d="M 603 3500 
L 1178 3500 
L 1178 0 
L 603 0 
L 603 3500 
z
M 603 4863 
L 1178 4863 
L 1178 4134 
L 603 4134 
L 603 4863 
z
" transform="scale(0.015625)"/>
       <path id="DejaVuSans-6d" d="M 3328 2828 
Q 3544 3216 3844 3400 
Q 4144 3584 4550 3584 
Q 5097 3584 5394 3201 
Q 5691 2819 5691 2113 
L 5691 0 
L 5113 0 
L 5113 2094 
Q 5113 2597 4934 2840 
Q 4756 3084 4391 3084 
Q 3944 3084 3684 2787 
Q 3425 2491 3425 1978 
L 3425 0 
L 2847 0 
L 2847 2094 
Q 2847 2600 2669 2842 
Q 2491 3084 2119 3084 
Q 1678 3084 1418 2786 
Q 1159 2488 1159 1978 
L 1159 0 
L 581 0 
L 581 3500 
L 1159 3500 
L 1159 2956 
Q 1356 3278 1631 3431 
Q 1906 3584 2284 3584 
Q 2666 3584 2933 3390 
Q 3200 3197 3328 2828 
z
" transform="scale(0.015625)"/>
       <path id="DejaVuSans-65" d="M 3597 1894 
L 3597 1613 
L 953 1613 
Q 991 1019 1311 708 
Q 1631 397 2203 397 
Q 2534 397 2845 478 
Q 3156 559 3463 722 
L 3463 178 
Q 3153 47 2828 -22 
Q 2503 -91 2169 -91 
Q 1331 -91 842 396 
Q 353 884 353 1716 
Q 353 2575 817 3079 
Q 1281 3584 2069 3584 
Q 2775 3584 3186 3129 
Q 3597 2675 3597 1894 
z
M 3022 2063 
Q 3016 2534 2758 2815 
Q 2500 3097 2075 3097 
Q 1594 3097 1305 2825 
Q 1016 2553 972 2059 
L 3022 2063 
z
" transform="scale(0.015625)"/>
      </defs>
      <use xlink:href="#DejaVuSans-74"/>
      <use xlink:href="#DejaVuSans-69" transform="translate(39.208984 0)"/>
      <use xlink:href="#DejaVuSans-6d" transform="translate(66.992188 0)"/>
      <use xlink:href="#DejaVuSans-65" transform="translate(164.404297 0)"/>
     </g>
    </g>
   </g>
   <g id="matplotlib.axis_4">
    <g id="ytick_4">
     <g id="line2d_24">
      <g>
       <use xlink:href="#m714c5f55e6" x="39.645" y="334.088389" style="stroke: #000000; stroke-width: 0.8"/>
      </g>
     </g>
     <g id="text_23">
      <!-- 0.5 -->
      <g transform="translate(7.2 340.167139) scale(0.16 -0.16)">
       <use xlink:href="#DejaVuSans-30"/>
       <use xlink:href="#DejaVuSans-2e" transform="translate(63.623047 0)"/>
       <use xlink:href="#DejaVuSans-35" transform="translate(95.410156 0)"/>
      </g>
     </g>
    </g>
    <g id="ytick_5">
     <g id="line2d_25">
      <g>
       <use xlink:href="#m714c5f55e6" x="39.645" y="287.896501" style="stroke: #000000; stroke-width: 0.8"/>
      </g>
     </g>
     <g id="text_24">
      <!-- 1.0 -->
      <g transform="translate(7.2 293.975251) scale(0.16 -0.16)">
       <use xlink:href="#DejaVuSans-31"/>
       <use xlink:href="#DejaVuSans-2e" transform="translate(63.623047 0)"/>
       <use xlink:href="#DejaVuSans-30" transform="translate(95.410156 0)"/>
      </g>
     </g>
    </g>
    <g id="ytick_6">
     <g id="line2d_26">
      <g>
       <use xlink:href="#m714c5f55e6" x="39.645" y="241.704614" style="stroke: #000000; stroke-width: 0.8"/>
      </g>
     </g>
     <g id="text_25">
      <!-- 1.5 -->
      <g transform="translate(7.2 247.783364) scale(0.16 -0.16)">
       <use xlink:href="#DejaVuSans-31"/>
       <use xlink:href="#DejaVuSans-2e" transform="translate(63.623047 0)"/>
       <use xlink:href="#DejaVuSans-35" transform="translate(95.410156 0)"/>
      </g>
     </g>
    </g>
    <g id="ytick_7">
     <g id="line2d_27">
      <g>
       <use xlink:href="#m714c5f55e6" x="39.645" y="195.512727" style="stroke: #000000; stroke-width: 0.8"/>
      </g>
     </g>
     <g id="text_26">
      <!-- 2.0 -->
      <g transform="translate(7.2 201.591477) scale(0.16 -0.16)">
       <use xlink:href="#DejaVuSans-32"/>
       <use xlink:href="#DejaVuSans-2e" transform="translate(63.623047 0)"/>
       <use xlink:href="#DejaVuSans-30" transform="translate(95.410156 0)"/>
      </g>
     </g>
    </g>
   </g>
   <g id="line2d_28">
    <path d="M 77.690455 195.512727 
L 79.975467 205.471141 
L 82.260479 214.496324 
L 84.545491 222.691855 
L 86.830504 230.127984 
L 89.115516 236.863254 
L 91.400528 242.952623 
L 93.685541 248.44747 
L 95.970553 253.395591 
L 98.255565 257.8412 
L 100.540577 261.824926 
L 102.82559 265.38382 
L 105.110602 268.551349 
L 107.395614 271.357345 
L 109.680627 273.786563 
L 111.965639 275.835015 
L 114.250651 277.533285 
L 116.535663 278.905281 
L 118.820676 279.968236 
L 121.105688 280.732708 
L 123.3907 281.202579 
L 125.675713 281.375057 
L 127.960725 281.240674 
L 130.245737 280.783287 
L 131.769079 280.287922 
L 133.29242 279.630585 
L 134.815762 278.801568 
L 137.100774 277.273073 
L 139.385786 275.442251 
L 141.670799 273.317284 
L 143.955811 270.910807 
L 146.240823 268.239907 
L 149.287506 264.305247 
L 152.334189 260.002665 
L 156.142543 254.226348 
L 162.99758 243.289105 
L 169.090946 233.711588 
L 173.660971 226.956523 
L 177.469324 221.763868 
L 180.516007 217.967541 
L 183.56269 214.539215 
L 186.609373 211.520427 
L 188.894386 209.547652 
L 191.179398 207.840387 
L 193.46441 206.406397 
L 195.749423 205.191545 
L 198.034435 204.175123 
L 200.319447 203.351894 
L 202.604459 202.714672 
L 204.889472 202.254309 
L 207.936155 201.896142 
L 210.982838 201.800716 
L 214.029521 201.930132 
L 217.837875 202.34035 
L 223.16957 203.195761 
L 227.739595 204.10424 
L 233.07129 205.410902 
L 240.687998 207.521224 
L 249.066376 210.056054 
L 254.398071 211.859673 
L 258.968096 213.634172 
L 263.53812 215.684754 
L 268.869816 218.356357 
L 274.201511 221.281759 
L 279.533206 224.445967 
L 284.864902 227.869453 
L 289.434926 231.051671 
L 294.004951 234.52086 
L 298.574975 238.301788 
L 304.668342 243.663257 
L 311.523378 250.00616 
L 323.710111 261.664198 
L 333.61183 271.035874 
L 338.943526 275.81823 
L 343.51355 279.658012 
L 347.321904 282.61987 
L 351.130258 285.318287 
L 354.176941 287.250329 
L 357.223624 288.948656 
L 360.270307 290.402215 
L 363.31699 291.593976 
L 366.363673 292.500071 
L 368.648686 292.973955 
L 370.933698 293.254533 
L 373.21871 293.324157 
L 375.503722 293.163014 
L 377.788735 292.76038 
L 380.073747 292.120376 
L 382.358759 291.230152 
L 384.643771 290.079884 
L 386.928784 288.66346 
L 389.213796 286.978476 
L 391.498808 285.026243 
L 393.783821 282.811781 
L 396.068833 280.343821 
L 399.115516 276.680919 
L 402.162199 272.62798 
L 405.208882 268.231125 
L 409.017236 262.342933 
L 414.348931 253.611563 
L 423.48898 238.499144 
L 427.297334 232.643024 
L 431.105688 227.23206 
L 434.152371 223.284143 
L 437.199054 219.712983 
L 440.245737 216.541121 
L 442.530749 214.431065 
L 444.815762 212.551826 
L 447.100774 210.89964 
L 449.385786 209.466951 
L 452.432469 207.858321 
L 455.479152 206.55004 
L 458.525835 205.543556 
L 461.572518 204.834213 
L 464.619201 204.409897 
L 467.665885 204.251039 
L 470.712568 204.330616 
L 473.759251 204.614145 
L 477.567604 205.190765 
L 483.660971 206.386614 
L 494.324361 208.625572 
L 500.417727 210.254149 
L 507.272764 212.314179 
L 513.36613 214.3859 
L 517.936155 216.17203 
L 521.744509 217.888254 
L 526.314533 220.250161 
L 530.884558 222.874399 
L 535.454582 225.734991 
L 540.786278 229.350704 
L 546.117973 233.259704 
L 551.449668 237.473302 
L 556.019693 241.349699 
L 561.351388 246.170954 
L 568.968096 253.394556 
L 587.248194 270.894878 
L 593.34156 276.355142 
L 597.911585 280.202098 
L 601.719939 283.16863 
L 605.528292 285.853683 
L 608.574975 287.762636 
L 611.621658 289.431877 
L 614.668342 290.83882 
L 617.715025 291.963238 
L 620.761708 292.787267 
L 623.04672 293.198644 
L 625.331732 293.41257 
L 627.616744 293.408924 
L 629.901757 293.176627 
L 632.186769 292.706247 
L 634.471781 291.989995 
L 636.756794 291.02173 
L 639.041806 289.796957 
L 641.326818 288.312825 
L 643.61183 286.568131 
L 645.896843 284.563317 
L 648.181855 282.30047 
L 650.466867 279.783325 
L 653.51355 276.044034 
L 656.560233 271.918112 
L 659.606916 267.456487 
L 663.41527 261.491096 
L 668.746966 252.64932 
L 677.887015 237.358528 
L 681.695369 231.477176 
L 684.742052 227.155135 
L 687.788735 223.173098 
L 690.835418 219.566776 
L 693.882101 216.360501 
L 696.167113 214.226245 
L 698.452125 212.325089 
L 700.737138 210.654109 
L 703.02215 209.206611 
L 705.307162 207.972133 
L 707.592174 206.936446 
L 710.638857 205.828987 
L 713.685541 204.990732 
L 716.732224 204.408606 
L 719.778907 204.068999 
L 722.82559 203.954966 
L 725.872273 204.04623 
L 729.680627 204.412723 
L 733.48898 205.00942 
L 738.820676 206.112748 
L 748.722396 208.459861 
L 754.054091 209.992009 
L 760.909128 212.204992 
L 767.764165 214.639179 
L 773.09586 216.748986 
L 777.665885 218.806417 
L 781.474238 220.782957 
L 786.044263 223.480913 
L 790.614287 226.440474 
L 795.945983 230.19052 
L 801.277678 234.233696 
L 806.609373 238.553388 
L 811.941069 243.145102 
L 817.272764 248.011783 
L 825.651143 256.005977 
L 838.599545 268.481012 
L 838.599545 268.481012 
" clip-path="url(#pd3416a30f1)" style="fill: none; stroke: #2ca02c; stroke-width: 1.5; stroke-linecap: square"/>
   </g>
   <g id="line2d_29">
    <path d="M 77.690455 287.896501 
L 79.975467 290.331274 
L 82.260479 292.425364 
L 84.545491 294.206345 
L 86.830504 295.696566 
L 89.115516 296.91538 
L 91.400528 297.880015 
L 93.685541 298.605567 
L 95.970553 299.105003 
L 98.255565 299.389161 
L 100.540577 299.46675 
L 102.82559 299.344348 
L 105.110602 299.026406 
L 107.395614 298.515238 
L 109.680627 297.8082 
L 111.965639 296.910529 
L 115.012322 295.436626 
L 118.059005 293.669901 
L 121.105688 291.635344 
L 124.152371 289.356956 
L 127.960725 286.201047 
L 131.769079 282.742807 
L 136.339103 278.260456 
L 143.955811 270.741947 
L 147.764165 267.354137 
L 150.810848 264.972282 
L 153.09586 263.42774 
L 155.380872 262.123979 
L 157.665885 261.089226 
L 159.950897 260.349991 
L 162.235909 259.934178 
L 164.520921 259.843056 
L 166.805934 260.063909 
L 169.090946 260.582483 
L 171.375958 261.382984 
L 173.660971 262.44808 
L 175.945983 263.758899 
L 178.230995 265.29503 
L 181.277678 267.655528 
L 184.324361 270.321092 
L 188.132715 273.988423 
L 193.46441 279.512167 
L 205.651143 292.275132 
L 210.982838 297.484007 
L 215.552862 301.627703 
L 219.361216 304.814644 
L 223.16957 307.739135 
L 226.977924 310.407721 
L 230.786278 312.841761 
L 234.594631 315.042862 
L 238.402985 317.016199 
L 242.211339 318.770758 
L 246.781364 320.605724 
L 251.351388 322.173621 
L 255.921413 323.511696 
L 261.253108 324.839789 
L 266.584803 325.93848 
L 271.916499 326.810218 
L 277.248194 327.465784 
L 283.34156 327.971876 
L 289.434926 328.251622 
L 296.289963 328.349956 
L 303.145 328.225141 
L 309.238366 327.902009 
L 315.331732 327.363419 
L 321.425098 326.590726 
L 326.756794 325.705323 
L 332.088489 324.605802 
L 336.658514 323.464622 
L 341.228538 322.111033 
L 345.798563 320.515233 
L 349.606916 318.975593 
L 353.41527 317.221126 
L 357.223624 315.223672 
L 361.031978 312.965126 
L 364.840332 310.43016 
L 368.648686 307.604051 
L 372.457039 304.472676 
L 376.265393 301.022554 
L 380.073747 297.263076 
L 384.643771 292.432801 
L 399.877187 275.958316 
L 402.92387 273.104954 
L 405.970553 270.595546 
L 408.255565 268.983394 
L 410.540577 267.630496 
L 412.82559 266.556528 
L 415.110602 265.776142 
L 417.395614 265.298965 
L 419.680627 265.129601 
L 421.965639 265.267629 
L 424.250651 265.707607 
L 426.535663 266.437816 
L 428.820676 267.435311 
L 431.105688 268.67489 
L 433.3907 270.131233 
L 436.437383 272.365993 
L 439.484066 274.879365 
L 443.29242 278.31828 
L 448.624115 283.466816 
L 459.287506 293.820856 
L 464.619201 298.706279 
L 469.189226 302.639001 
L 473.759251 306.286058 
L 477.567604 309.079664 
L 481.375958 311.632134 
L 485.184312 313.931718 
L 488.992666 315.980849 
L 493.56269 318.176511 
L 498.132715 320.099513 
L 502.70274 321.760137 
L 507.272764 323.174802 
L 511.842789 324.366069 
L 517.174484 325.512156 
L 523.26785 326.568979 
L 529.361216 327.388057 
L 535.454582 327.967289 
L 541.547948 328.31698 
L 547.641314 328.452407 
L 554.496351 328.37406 
L 561.351388 328.075792 
L 567.444754 327.60256 
L 573.53812 326.903523 
L 578.869816 326.082289 
L 584.201511 325.041662 
L 589.533206 323.757046 
L 594.103231 322.441767 
L 598.673256 320.901742 
L 602.481609 319.412165 
L 606.289963 317.706083 
L 610.098317 315.759346 
L 613.906671 313.550724 
L 617.715025 311.061904 
L 621.523378 308.277491 
L 624.570061 305.820177 
L 628.378415 302.422211 
L 632.186769 298.714967 
L 636.756794 293.958256 
L 644.373501 285.63417 
L 651.228538 278.211305 
L 655.036892 274.362878 
L 658.083575 271.612394 
L 660.368587 269.795128 
L 662.6536 268.219046 
L 664.938612 266.906767 
L 667.223624 265.876314 
L 669.508636 265.141108 
L 671.793649 264.70997 
L 674.078661 264.587123 
L 676.363673 264.772188 
L 678.648686 265.260187 
L 680.933698 266.041544 
L 683.21871 267.099476 
L 685.503722 268.39938 
L 687.788735 269.912783 
L 690.835418 272.216914 
L 693.882101 274.791342 
L 697.690455 278.296477 
L 703.02215 283.530171 
L 712.92387 293.303332 
L 718.255565 298.231085 
L 722.82559 302.181997 
L 727.395614 305.841751 
L 731.965639 309.183926 
L 735.773993 311.714573 
L 739.582346 314.009528 
L 743.3907 316.069977 
L 747.960725 318.252976 
L 752.530749 320.172795 
L 757.100774 321.838251 
L 761.670799 323.259027 
L 766.240823 324.451102 
L 771.572518 325.582869 
L 776.904214 326.480125 
L 783.759251 327.378423 
L 789.852617 327.950408 
L 795.945983 328.301724 
L 802.039349 328.43945 
L 808.132715 328.373399 
L 814.987752 328.071246 
L 821.081118 327.60141 
L 827.174484 326.911939 
L 832.506179 326.107639 
L 837.837875 325.092152 
L 838.599545 324.928312 
L 838.599545 324.928312 
" clip-path="url(#pd3416a30f1)" style="fill: none; stroke: #d62728; stroke-width: 1.5; stroke-linecap: square"/>
   </g>
   <g id="line2d_30">
    <path d="M 77.690455 287.896501 
L 82.260479 282.836127 
L 86.068833 278.94616 
L 89.115516 276.106788 
L 92.162199 273.543815 
L 95.208882 271.27936 
L 98.255565 269.326742 
L 101.302248 267.690481 
L 104.348931 266.366302 
L 107.395614 265.341111 
L 110.442297 264.569311 
L 113.48898 264.007107 
L 117.297334 263.558736 
L 121.867359 263.303866 
L 134.815762 262.8621 
L 139.385786 262.293215 
L 143.19414 261.617151 
L 147.002494 260.732719 
L 150.810848 259.632992 
L 154.619201 258.326531 
L 159.189226 256.520841 
L 165.282592 253.829596 
L 171.375958 250.884278 
L 179.754337 246.543969 
L 188.132715 242.231083 
L 192.70274 240.10953 
L 198.034435 237.930853 
L 202.604459 236.312626 
L 206.412813 235.170823 
L 210.221167 234.235477 
L 214.029521 233.518386 
L 217.837875 233.026036 
L 221.646229 232.759604 
L 225.454582 232.717077 
L 229.262936 232.906363 
L 233.07129 233.326286 
L 236.879644 233.96954 
L 240.687998 234.824503 
L 245.258022 236.107164 
L 249.828047 237.635742 
L 255.159742 239.669748 
L 262.014779 242.554013 
L 278.009865 249.452155 
L 282.579889 251.12768 
L 286.388243 252.323143 
L 290.196597 253.292499 
L 294.004951 253.996058 
L 297.051634 254.343022 
L 300.098317 254.475623 
L 303.145 254.366036 
L 306.191683 253.995932 
L 309.238366 253.357397 
L 312.285049 252.45293 
L 315.331732 251.295445 
L 318.378415 249.90827 
L 322.186769 247.903697 
L 326.756794 245.221875 
L 335.896843 239.778867 
L 338.943526 238.216614 
L 341.990209 236.902481 
L 344.275221 236.116851 
L 346.560233 235.52513 
L 348.845246 235.141157 
L 351.130258 234.972601 
L 353.41527 235.021697 
L 355.700283 235.283554 
L 357.985295 235.744278 
L 361.031978 236.638623 
L 364.078661 237.809752 
L 367.887015 239.578748 
L 373.21871 242.396411 
L 380.073747 246.0347 
L 384.643771 248.195819 
L 388.452125 249.719417 
L 391.498808 250.715214 
L 394.545491 251.491082 
L 397.592174 252.035627 
L 400.638857 252.345837 
L 403.685541 252.434746 
L 406.732224 252.308607 
L 409.778907 251.972588 
L 412.82559 251.437661 
L 416.633943 250.515395 
L 420.442297 249.354488 
L 425.012322 247.731431 
L 431.105688 245.321695 
L 449.385786 237.841686 
L 454.717482 236.020254 
L 459.287506 234.701169 
L 463.09586 233.805133 
L 466.904214 233.113209 
L 470.712568 232.637618 
L 474.520921 232.38491 
L 478.329275 232.355967 
L 482.137629 232.546002 
L 485.945983 232.944559 
L 489.754337 233.544896 
L 493.56269 234.356354 
L 498.132715 235.589832 
L 502.70274 237.076385 
L 508.034435 239.078014 
L 514.127801 241.625472 
L 533.931241 250.166355 
L 538.501265 251.761045 
L 542.309619 252.850092 
L 546.117973 253.675017 
L 549.164656 254.118265 
L 552.211339 254.348861 
L 555.258022 254.349926 
L 558.304705 254.103745 
L 561.351388 253.586862 
L 564.398071 252.797228 
L 567.444754 251.744269 
L 570.491437 250.44678 
L 573.53812 248.932926 
L 577.346474 246.794415 
L 582.67817 243.51535 
L 589.533206 239.318278 
L 592.579889 237.673982 
L 595.626572 236.296181 
L 597.911585 235.4783 
L 600.196597 234.859909 
L 602.481609 234.449593 
L 604.766622 234.251805 
L 607.051634 234.266858 
L 609.336646 234.490934 
L 611.621658 234.916077 
L 613.906671 235.530196 
L 616.953354 236.61434 
L 620.000037 237.955217 
L 623.808391 239.893941 
L 637.518464 247.174026 
L 641.326818 248.85135 
L 644.373501 249.986378 
L 647.420184 250.906264 
L 650.466867 251.587699 
L 653.51355 252.017048 
L 656.560233 252.225651 
L 659.606916 252.219109 
L 662.6536 251.997994 
L 665.700283 251.568857 
L 668.746966 250.944236 
L 672.555319 249.917343 
L 676.363673 248.663699 
L 681.695369 246.65215 
L 689.312076 243.52649 
L 700.737138 238.827977 
L 706.068833 236.873366 
L 710.638857 235.417136 
L 715.208882 234.202599 
L 719.017236 233.402046 
L 722.82559 232.812662 
L 726.633943 232.44616 
L 730.442297 232.308583 
L 734.250651 232.400305 
L 738.059005 232.716033 
L 741.867359 233.244802 
L 745.675713 233.970203 
L 749.484066 234.890254 
L 754.054091 236.240492 
L 758.624115 237.825164 
L 763.955811 239.913482 
L 770.810848 242.855203 
L 785.282592 249.148433 
L 789.852617 250.897995 
L 793.660971 252.156502 
L 797.469324 253.177597 
L 800.516007 253.792551 
L 803.56269 254.205673 
L 806.609373 254.399153 
L 809.656057 254.357832 
L 812.70274 254.069198 
L 815.749423 253.523391 
L 818.796106 252.712534 
L 821.842789 251.6393 
L 824.889472 250.320098 
L 827.936155 248.782846 
L 831.744509 246.615821 
L 837.837875 242.835747 
L 838.599545 242.35855 
L 838.599545 242.35855 
" clip-path="url(#pd3416a30f1)" style="fill: none; stroke: #9467bd; stroke-width: 1.5; stroke-linecap: square"/>
   </g>
   <g id="line2d_31">
    <path d="M 77.690455 287.896501 
L 79.975467 285.473185 
L 82.260479 283.457713 
L 83.783821 282.366684 
L 85.307162 281.482452 
L 86.830504 280.802813 
L 88.353845 280.32473 
L 89.877187 280.044322 
L 91.400528 279.956874 
L 92.92387 280.05683 
L 94.447211 280.337796 
L 95.970553 280.792539 
L 97.493894 281.412988 
L 99.778907 282.634641 
L 102.063919 284.17528 
L 104.348931 285.997051 
L 107.395614 288.790009 
L 111.203968 292.67985 
L 118.059005 300.132563 
L 124.152371 306.617029 
L 127.960725 310.387617 
L 131.769079 313.858824 
L 135.577432 316.999642 
L 139.385786 319.802391 
L 143.19414 322.269719 
L 147.002494 324.41199 
L 150.810848 326.246144 
L 154.619201 327.795699 
L 158.427555 329.090747 
L 162.235909 330.16875 
L 166.805934 331.211563 
L 171.375958 331.991307 
L 175.945983 332.524992 
L 180.516007 332.837421 
L 185.847703 332.966194 
L 191.941069 332.883563 
L 198.034435 332.607075 
L 204.889472 332.042866 
L 211.744509 331.246168 
L 218.599545 330.216029 
L 224.692912 329.07294 
L 230.786278 327.709321 
L 236.879644 326.115704 
L 242.211339 324.506693 
L 247.543034 322.668732 
L 252.87473 320.569378 
L 257.444754 318.533702 
L 262.014779 316.256852 
L 266.584803 313.713091 
L 270.393157 311.348419 
L 274.201511 308.728213 
L 278.009865 305.825071 
L 281.818219 302.614891 
L 285.626572 299.076867 
L 289.434926 295.193495 
L 293.24328 290.950567 
L 297.051634 286.33783 
L 300.859988 281.36046 
L 305.430012 274.964051 
L 311.523378 265.972314 
L 318.378415 255.917181 
L 321.425098 251.764963 
L 324.471781 247.992545 
L 326.756794 245.503676 
L 329.041806 243.384606 
L 330.565147 242.214278 
L 332.088489 241.253745 
L 333.61183 240.514302 
L 335.135172 240.008044 
L 336.658514 239.744275 
L 338.181855 239.729514 
L 339.705197 239.967489 
L 341.228538 240.459147 
L 342.75188 241.202557 
L 344.275221 242.191815 
L 345.798563 243.418299 
L 347.321904 244.871164 
L 349.606916 247.445731 
L 351.891929 250.446244 
L 354.176941 253.814352 
L 357.223624 258.756996 
L 361.031978 265.422852 
L 373.980381 288.629377 
L 377.788735 294.801356 
L 380.835418 299.369268 
L 383.882101 303.58804 
L 386.928784 307.447594 
L 389.975467 310.945835 
L 393.02215 314.088647 
L 396.068833 316.889897 
L 399.115516 319.371433 
L 402.162199 321.562086 
L 405.208882 323.485731 
L 408.255565 325.160896 
L 411.302248 326.606616 
L 414.348931 327.842539 
L 418.157285 329.123333 
L 421.965639 330.148928 
L 425.773993 330.961324 
L 430.344017 331.68954 
L 434.914042 332.177621 
L 439.484066 332.457363 
L 444.815762 332.556081 
L 450.147457 332.442099 
L 455.479152 332.12846 
L 461.572518 331.559515 
L 468.427555 330.699911 
L 475.282592 329.619455 
L 481.375958 328.444959 
L 486.707654 327.204962 
L 492.80102 325.523481 
L 498.132715 323.829268 
L 503.46441 321.895262 
L 508.034435 320.01864 
L 512.604459 317.911281 
L 517.174484 315.542309 
L 520.982838 313.34358 
L 524.791192 310.925445 
L 528.599545 308.268868 
L 532.407899 305.326673 
L 536.216253 302.060641 
L 540.024607 298.442896 
L 543.832961 294.455905 
L 547.641314 290.092476 
L 551.449668 285.355762 
L 555.258022 280.259255 
L 559.066376 274.804577 
L 564.398071 266.666548 
L 571.253108 256.237785 
L 574.299791 251.937683 
L 577.346474 248.014488 
L 579.631486 245.392723 
L 581.916499 243.103303 
L 584.201511 241.198339 
L 585.724853 240.167826 
L 587.248194 239.347088 
L 588.771536 238.751802 
L 590.294877 238.397705 
L 591.818219 238.300598 
L 593.34156 238.476344 
L 594.864902 238.936308 
L 596.388243 239.670595 
L 597.911585 240.66319 
L 599.434926 241.897926 
L 600.958268 243.35848 
L 603.24328 245.936636 
L 605.528292 248.929514 
L 607.813305 252.28007 
L 610.859988 257.20381 
L 614.668342 263.895649 
L 621.523378 276.60171 
L 626.093403 284.874006 
L 629.901757 291.35828 
L 633.710111 297.367945 
L 636.756794 301.789091 
L 639.803477 305.843764 
L 642.85016 309.523252 
L 645.896843 312.830489 
L 648.943526 315.780051 
L 651.990209 318.398163 
L 655.036892 320.720117 
L 658.083575 322.768059 
L 661.130258 324.556743 
L 664.176941 326.102531 
L 667.223624 327.423423 
L 670.270307 328.539056 
L 674.078661 329.677522 
L 677.887015 330.573791 
L 682.457039 331.398758 
L 687.027064 331.986632 
L 691.597088 332.35388 
L 696.928784 332.542899 
L 702.260479 332.508518 
L 708.353845 332.227249 
L 714.447211 331.706755 
L 720.540577 330.974289 
L 727.395614 329.922 
L 734.250651 328.62517 
L 740.344017 327.239114 
L 745.675713 325.808658 
L 751.007408 324.160982 
L 756.339103 322.282502 
L 760.909128 320.460851 
L 765.479152 318.415396 
L 770.049177 316.115311 
L 773.857531 313.979315 
L 777.665885 311.620766 
L 781.474238 309.01605 
L 785.282592 306.155516 
L 789.090946 303.007293 
L 792.8993 299.519829 
L 796.707654 295.659596 
L 800.516007 291.411136 
L 804.324361 286.777072 
L 808.132715 281.7781 
L 812.70274 275.353518 
L 818.034435 267.404235 
L 826.412813 254.818513 
L 829.459496 250.608944 
L 832.506179 246.805387 
L 834.791192 244.307104 
L 837.076204 242.185098 
L 838.599545 241.013224 
L 838.599545 241.013224 
" clip-path="url(#pd3416a30f1)" style="fill: none; stroke: #8c564b; stroke-width: 1.5; stroke-linecap: square"/>
   </g>
   <g id="patch_9">
    <path d="M 39.645 339.84 
L 39.645 188.64 
" style="fill: none; stroke: #000000; stroke-width: 0.8; stroke-linejoin: miter; stroke-linecap: square"/>
   </g>
   <g id="patch_10">
    <path d="M 876.645 339.84 
L 876.645 188.64 
" style="fill: none; stroke: #000000; stroke-width: 0.8; stroke-linejoin: miter; stroke-linecap: square"/>
   </g>
   <g id="patch_11">
    <path d="M 39.645 339.84 
L 876.645 339.84 
" style="fill: none; stroke: #000000; stroke-width: 0.8; stroke-linejoin: miter; stroke-linecap: square"/>
   </g>
   <g id="patch_12">
    <path d="M 39.645 188.64 
L 876.645 188.64 
" style="fill: none; stroke: #000000; stroke-width: 0.8; stroke-linejoin: miter; stroke-linecap: square"/>
   </g>
   <g id="legend_2">
    <g id="patch_13">
     <path d="M 790.405 298.33 
L 865.445 298.33 
Q 868.645 298.33 868.645 295.13 
L 868.645 199.84 
Q 868.645 196.64 865.445 196.64 
L 790.405 196.64 
Q 787.205 196.64 787.205 199.84 
L 787.205 295.13 
Q 787.205 298.33 790.405 298.33 
z
" style="fill: #ffffff; opacity: 0.8; stroke: #cccccc; stroke-linejoin: miter"/>
    </g>
    <g id="line2d_32">
     <path d="M 793.605 209.5975 
L 809.605 209.5975 
L 825.605 209.5975 
" style="fill: none; stroke: #2ca02c; stroke-width: 1.5; stroke-linecap: square"/>
    </g>
    <g id="text_27">
     <!-- $x^\top$ -->
     <g transform="translate(838.405 215.1975) scale(0.16 -0.16)">
      <defs>
       <path id="Cmsy10-3e" d="M 2363 122 
L 2363 4006 
L 481 4006 
Q 428 4006 393 4047 
Q 359 4088 359 4134 
Q 359 4181 393 4222 
Q 428 4263 481 4263 
L 4506 4263 
Q 4553 4263 4587 4222 
Q 4622 4181 4622 4134 
Q 4622 4088 4587 4047 
Q 4553 4006 4506 4006 
L 2619 4006 
L 2619 122 
Q 2619 69 2578 34 
Q 2538 0 2491 0 
Q 2438 0 2400 34 
Q 2363 69 2363 122 
z
" transform="scale(0.015625)"/>
      </defs>
      <use xlink:href="#Cmmi10-78" transform="translate(0 0.109375)"/>
      <use xlink:href="#Cmsy10-3e" transform="translate(75.674375 38.373438) scale(0.7)"/>
     </g>
    </g>
    <g id="line2d_33">
     <path d="M 793.605 233.0825 
L 809.605 233.0825 
L 825.605 233.0825 
" style="fill: none; stroke: #d62728; stroke-width: 1.5; stroke-linecap: square"/>
    </g>
    <g id="text_28">
     <!-- $x^\bot$ -->
     <g transform="translate(838.405 238.6825) scale(0.16 -0.16)">
      <defs>
       <path id="Cmsy10-3f" d="M 481 0 
Q 428 0 393 37 
Q 359 75 359 128 
Q 359 175 393 215 
Q 428 256 481 256 
L 2363 256 
L 2363 4147 
Q 2363 4197 2400 4230 
Q 2438 4263 2491 4263 
Q 2538 4263 2578 4230 
Q 2619 4197 2619 4147 
L 2619 256 
L 4506 256 
Q 4553 256 4587 215 
Q 4622 175 4622 128 
Q 4622 75 4587 37 
Q 4553 0 4506 0 
L 481 0 
z
" transform="scale(0.015625)"/>
      </defs>
      <use xlink:href="#Cmmi10-78" transform="translate(0 0.109375)"/>
      <use xlink:href="#Cmsy10-3f" transform="translate(75.674375 38.373438) scale(0.7)"/>
     </g>
    </g>
    <g id="line2d_34">
     <path d="M 793.605 258.01 
L 809.605 258.01 
L 825.605 258.01 
" style="fill: none; stroke: #9467bd; stroke-width: 1.5; stroke-linecap: square"/>
    </g>
    <g id="text_29">
     <!-- $y^\top$ -->
     <g transform="translate(838.405 263.61) scale(0.16 -0.16)">
      <use xlink:href="#Cmmi10-79" transform="translate(0 0.109375)"/>
      <use xlink:href="#Cmsy10-3e" transform="translate(67.617734 38.373438) scale(0.7)"/>
     </g>
    </g>
    <g id="line2d_35">
     <path d="M 793.605 282.97 
L 809.605 282.97 
L 825.605 282.97 
" style="fill: none; stroke: #8c564b; stroke-width: 1.5; stroke-linecap: square"/>
    </g>
    <g id="text_30">
     <!-- $y^\bot$ -->
     <g transform="translate(838.405 288.57) scale(0.16 -0.16)">
      <use xlink:href="#Cmmi10-79" transform="translate(0 0.109375)"/>
      <use xlink:href="#Cmsy10-3f" transform="translate(67.617734 38.373438) scale(0.7)"/>
     </g>
    </g>
   </g>
  </g>
 </g>
 <defs>
  <clipPath id="p71232e8a1c">
   <rect x="39.645" y="7.2" width="837" height="151.2"/>
  </clipPath>
  <clipPath id="pd3416a30f1">
   <rect x="39.645" y="188.64" width="837" height="151.2"/>
  </clipPath>
 </defs>
</svg>
